<?xml version="1.0" encoding="utf-8"?>
<!-- Generator: Adobe Illustrator 25.3.1, SVG Export Plug-In . SVG Version: 6.00 Build 0)  -->
<svg version="1.1" id="图层_1" xmlns="http://www.w3.org/2000/svg" xmlns:xlink="http://www.w3.org/1999/xlink" x="0px" y="0px"
	 viewBox="0 0 640 640" style="enable-background:new 0 0 640 640;" xml:space="preserve">
<style type="text/css">
	.st0{fill:#C07948;}
	.st1{fill:#FF3B00;}
	.st2{fill:#E8D65D;}
	.st3{fill:#FED2CD;}
	.st4{fill:#FFF4DF;}
	.st5{fill:#FECFC5;}
	.st6{fill:#016654;}
	.st7{fill:#00846C;}
	.st8{fill:#008771;}
	.st9{fill:#91C9C0;}
	.st10{fill:#FFFFFF;}
</style>
<g>
	<path class="st0" d="M528.49,284.31c-5.31-6.26-10.94-12.07-16.46-18.43c0.78-0.07,1.26-0.18,1.73-0.14
		c2.73,0.21,5.45,0.45,8.18,0.67c1.03,0.08,1.82,0.47,2.54,1.28c4.79,5.4,9.63,10.75,14.47,16.1c0.33,0.37,0.79,0.88,1.2,0.88
		c3.4,0.07,6.8,0.04,10.2,0.04c0.54-0.98-0.31-1.4-0.77-1.92c-4.05-4.53-8.13-9.03-12.2-13.55c-0.33-0.37-0.61-0.78-1.17-1.5
		c3.49,0.3,6.57,0.53,9.63,0.87c0.52,0.06,1.09,0.52,1.47,0.94c4.2,4.6,8.39,9.21,12.51,13.88c0.77,0.87,1.45,1.36,2.66,1.34
		c2.27-0.05,4.55,0.1,6.83,0.14c0.8,0.01,1.6-0.08,2.86-0.15c-1.3-2.2-2.88-3.59-4.24-5.14c-1.41-1.59-2.83-3.17-4.26-4.75
		c-1.41-1.57-2.82-3.13-4-5.08c0.7,0.21,1.41,0.36,2.08,0.62c4.09,1.62,8.19,3.23,12.25,4.94c0.87,0.36,1.72,0.96,2.37,1.65
		c2.13,2.27,4.14,4.65,6.26,6.93c0.37,0.39,0.99,0.74,1.51,0.77c2.88,0.13,5.77,0.18,8.65,0.2c1.09,0.01,1.09-0.06,1.62-1.46
		c3.8,1.52,7.61,2.99,11.38,4.59c0.88,0.37,1.61,1.12,2.35,1.76c1.64,1.43,3.25,2.91,5.25,4.72c-1.19,0.13-1.9,0.25-2.61,0.27
		c-6.53,0.2-13.06,0.36-19.59,0.57c-0.86,0.03-1.71,0.23-2.81,0.38c1.82,3.91,3.5,7.51,5.31,11.41c-20.81,0-41.24,0-62.07,0
		c2.94-3.8,5.7-7.36,8.4-10.86c-0.15-1.01-0.8-1.15-1.53-1.17c-1.44-0.04-2.88-0.1-4.32-0.11c-6.84-0.02-13.68,0-20.52-0.04
		c-8.43-0.04-16.87-0.12-25.3-0.2c-1.52-0.02-3.04-0.09-4.54-0.25c-1.45-0.14-2.38,0.42-3.26,1.56
		c-5.82,7.51-11.69,14.96-17.56,22.43c-7.03,8.96-14.07,17.93-21.11,26.88c-0.23,0.29-0.5,0.54-0.95,1.02
		c-0.89-1.34-1.71-2.56-2.6-3.89c2.74-2.74,2.97-6.05,2.3-9.56c-0.07-0.37-0.07-0.76-0.14-1.13c-0.73-4.11-1.48-8.21-2.2-12.32
		c-0.24-1.34-0.3-2.72-0.64-4.04c-2-7.75-7.13-12.49-14.57-14.95c-2.69-0.89-5.49-1.21-8.31-1.17c-15.95,0.19-31.9,0.42-47.86,0.58
		c-1.49,0.01-3.04-0.18-4.48-0.58c-14.04-3.87-28.07-7.81-42.09-11.74c-0.63-0.18-1.24-0.4-2.32-0.76
		c4.79-3.48,9.25-6.71,13.86-10.06c4.1,3.56,8.14,7.06,12.45,10.81c0.49-0.38,1.25-0.83,1.83-1.45c5.65-5.95,11.27-11.92,16.9-17.89
		c0.78-0.83,1.57-1.64,2.54-2.66c1.18,1.27,2.32,2.45,3.41,3.67c4.41,4.92,8.8,9.86,13.23,14.76c0.31,0.35,0.87,0.66,1.32,0.67
		c3.11,0.11,6.22,0.13,9.33,0.17c0.2,0,0.41-0.14,0.6-0.21c0.43-1-0.4-1.41-0.86-1.92c-4.82-5.37-9.66-10.72-14.49-16.08
		c-0.44-0.49-0.84-1.01-1.56-1.89c1.87-0.04,3.34-0.11,4.81-0.09c1.96,0.03,4.15-0.37,5.82,0.36c1.6,0.7,2.69,2.6,3.95,4.01
		c4.47,4.97,8.91,9.97,13.38,14.93c0.32,0.35,0.86,0.7,1.3,0.71c3.19,0.1,6.37,0.12,9.56,0.15c0.13,0,0.27-0.12,0.42-0.19
		c0.49-0.95-0.36-1.36-0.82-1.88c-4.82-5.37-9.66-10.72-14.49-16.08c-0.45-0.5-0.88-1.02-1.51-1.75c0.69-0.14,1.15-0.3,1.61-0.31
		c2.58-0.03,5.17,0.01,7.75-0.05c1.08-0.03,1.85,0.32,2.57,1.13c5.37,6,10.76,11.98,16.17,17.94c0.42,0.46,1.04,1,1.59,1.03
		c3.11,0.15,6.22,0.15,9.33,0.18c0.2,0,0.41-0.13,0.61-0.2c0.44-1-0.4-1.41-0.86-1.92c-4.82-5.37-9.66-10.72-14.5-16.08
		c-0.45-0.5-0.87-1.02-1.49-1.76c0.71-0.13,1.18-0.29,1.64-0.3c2.43-0.03,4.87,0.04,7.29-0.04c1.09-0.04,1.82,0.32,2.53,1.12
		c4.61,5.15,9.26,10.27,13.89,15.4c0.41,0.45,0.92,0.84,1.21,1.36c1.21,2.19,3.14,2.49,5.39,2.33c1.5-0.11,3.03,0.09,4.55,0.13
		c0.89,0.02,1.79,0,2.56,0c0.61-1.2-0.24-1.62-0.7-2.13c-4.87-5.42-9.77-10.83-14.65-16.24c-0.5-0.55-0.96-1.13-1.65-1.95
		c3.6,0,6.89,0,10.33,0c5.73,6.4,11.55,12.91,17.38,19.4c0.28,0.31,0.71,0.7,1.07,0.7c3.4,0.05,6.8,0.03,10.19,0.03
		c0.53-0.99-0.32-1.41-0.78-1.92c-4.21-4.69-8.45-9.36-12.67-14.04c-1.16-1.29-2.3-2.59-3.82-4.3c1.46-0.02,2.47-0.03,3.48-0.04
		c1.52-0.01,3.06,0.14,4.56-0.04c2.04-0.25,3.35,0.62,4.63,2.08c5.16,5.88,10.41,11.68,15.65,17.48c0.32,0.36,0.84,0.75,1.27,0.76
		c3.33,0.06,6.66,0.03,10,0.03c0.57-0.95-0.26-1.38-0.73-1.9c-4.21-4.69-8.45-9.36-12.67-14.04c-1.17-1.29-2.32-2.6-3.68-4.13
		c0.71-0.11,1.18-0.25,1.65-0.25c2.66-0.02,5.32,0.02,7.98-0.03c0.97-0.02,1.65,0.24,2.34,1.02c5.49,6.19,11.05,12.33,16.6,18.47
		c0.33,0.36,0.82,0.8,1.24,0.82c3.26,0.1,6.52,0.11,9.78,0.13C527.81,284.82,527.93,284.67,528.49,284.31z"/>
	<path class="st1" d="M591.66,312.28c5.68,13.23,11.28,26.26,16.88,39.31c3.54,0,7.02,0,10.69,0c0.05,0.46,0.19,1.03,0.17,1.6
		c-0.18,4.02-0.27,8.05-0.62,12.06c-0.43,5.01-2.58,6.94-7.62,7.23c-0.15,0.01-0.3,0-0.46,0c-7.67,0.1-15.34,0.2-23.02,0.31
		c-14.13,0.2-28.26,0.41-42.39,0.63c-8.96,0.14-17.92,0.3-26.89,0.45c-9.34,0.15-18.68,0.31-28.03,0.46
		c-9.04,0.15-18.08,0.28-27.11,0.44c-4.63,0.08-9.26,0.22-13.89,0.28c-1.36,0.02-2.75-0.03-4.08-0.28
		c-2.62-0.49-4.39-2.05-4.95-4.71c-1.52-7.12-4.06-13.83-7.76-20.11c-0.11-0.19-0.16-0.41-0.32-0.86c0.77-0.37,1.55-0.75,2.51-1.21
		c1.44,1.82,2.84,3.59,4.2,5.3c4.11,0,8.13,0,12.15,0c0.76,0,1.52-0.05,2.28-0.05c10.26-0.02,20.52-0.01,30.78-0.05
		c5.39-0.02,10.79-0.21,16.18-0.16c1.44,0.01,2.03-0.76,2.7-1.68c7.36-10.05,14.72-20.1,22.07-30.15c1.66-2.27,3.35-4.51,4.96-6.82
		c0.76-1.09,1.62-1.56,3-1.56c8.97-0.01,17.93-0.12,26.9-0.19c9.65-0.08,19.3-0.16,28.95-0.23
		C589.79,312.27,590.62,312.28,591.66,312.28z M558.99,359.89c0,0.03,0,0.05,0,0.08c0.99,0,1.97-0.01,2.96,0
		c10.1,0.06,20.2,0.14,30.29,0.18c2.23,0.01,2.82-0.57,2.91-2.8c0.06-1.29,0.05-2.58,0-3.87c-0.06-1.59-0.44-1.95-2.05-2.11
		c-0.38-0.04-0.76-0.03-1.14-0.03c-6.07-0.09-12.14-0.23-18.21-0.26c-15.64-0.1-31.28-0.15-46.93-0.22c-0.53,0-1.06-0.02-1.59,0.01
		c-1.66,0.11-2.01,0.43-2.06,2.05c-0.04,1.52,0.11,3.04,0.01,4.55c-0.12,1.97,0.21,2.34,2.31,2.42c0.38,0.01,0.76,0.01,1.14,0.01
		C537.43,359.89,548.21,359.89,558.99,359.89z"/>
	<path class="st2" d="M212.94,359.09c-11.03-0.81-21.98-1.61-33.18-2.44c0.18-0.58,0.25-1,0.43-1.36
		c10.58-21.69,26.28-38.3,48.44-48.38c12.86-5.85,26.44-8.45,40.55-7.8c18.48,0.86,35.34,6.81,50.79,16.91
		c5.03,3.29,9.71,7.02,14.23,10.98c0.57,0.5,1.15,0.99,1.8,1.55c-0.32,0.87-0.58,1.56-0.83,2.26c-1.18,3.2-2.41,6.38-3.53,9.6
		c-0.86,2.47-1.27,5-0.27,8.03c-0.91-0.58-1.42-0.85-1.86-1.2c-12.98-10.51-27.78-16.99-44.21-19.68
		c-15.19-2.49-30.14-1.58-44.48,4.42c-10.65,4.46-19.36,11.31-25.13,21.53c-0.52,0.92-0.97,1.89-1.44,2.84
		C213.8,357.23,213.4,358.12,212.94,359.09z"/>
	<path class="st1" d="M429.6,344.84c-2.82-2.88-5.18-5.57-7.83-7.95c-7.13-6.38-15.5-10.12-25.05-10.88
		c-8.23-0.65-16.01,1.19-23.23,5.22c-10.05,5.6-17.1,13.98-22.06,24.2c-3.68,7.59-5.85,15.62-6.57,24.03
		c-0.2,2.33-0.34,4.67-0.51,7.02c-1.68,0.54-6.07,0.54-8.77-0.06c0.1-2.03,0.16-4.12,0.32-6.21c0.4-5.53,0.61-11.08,1.36-16.56
		c0.39-2.88-0.31-5.35-1.08-7.95c-0.77-2.62-1.44-5.27-2.2-7.89c-0.89-3.04-0.03-5.89,1.04-8.65c2.65-6.87,5.43-13.69,8.14-20.54
		c2.15-5.42,5.78-9.59,10.7-12.65c3.89-2.42,8.09-3.69,12.72-3.71c13.98-0.08,27.96-0.29,41.94-0.38c3.34-0.02,6.7-0.06,10,0.35
		c7.48,0.93,14.83,6.6,16.19,15.62c0.62,4.11,1.74,8.15,2.55,12.23c0.35,1.78,0.51,3.61,0.7,5.42c0.26,2.56-0.73,4.7-2.75,6.15
		C433.44,342.9,431.42,343.81,429.6,344.84z"/>
	<path class="st0" d="M613.39,375.47c0.83,1.43,1.46,2.52,2.11,3.65c-0.52,0.3-0.88,0.51-1.3,0.75c0.18,0.23,0.28,0.5,0.45,0.56
		c0.72,0.25,1.43,0.4,1.53,1.4c0.4,3.98,0.21,7.88-1.33,11.64c-0.63,1.55-1.67,2.11-3.34,2.13c-11.39,0.16-22.79,0.39-34.18,0.61
		c-16.1,0.32-32.2,0.65-48.31,0.99c-5.32,0.11-10.64,0.47-15.95,0.33c-16.17-0.42-32.35,0.09-48.52-0.07c-0.59-0.01-1.19,0-1.97,0
		c0.1-3.52,0.37-6.83,0.24-10.13c-0.13-3.25-0.65-6.48-1.02-9.87c0.49-0.05,1.08-0.16,1.66-0.17c6.23-0.1,12.45-0.17,18.68-0.27
		c8.96-0.14,17.92-0.43,26.88-0.41c6.21,0.02,12.4-0.41,18.6-0.41c11.39,0.01,22.77-0.02,34.16-0.12c6.91-0.06,13.82-0.3,20.73-0.39
		c1.49-0.02,2.98,0.37,4.47,0.35c2.12-0.02,4.23-0.25,6.35-0.39c0.3-0.02,0.61-0.04,0.91-0.04c2.88-0.05,5.77-0.12,8.65-0.14
		C606.39,375.45,609.87,375.47,613.39,375.47z"/>
	<path class="st1" d="M215.75,359.28c2.95-7.3,7.41-12.96,13.17-17.62c7.91-6.41,17.04-10.22,26.97-11.99
		c21.45-3.83,41.46,0.53,60.27,11.14c5.44,3.07,10.41,6.81,15.05,10.99c0.93,0.83,1.74,1.67,1.84,3c0.02,0.29,0.14,0.6,0.27,0.87
		c1.58,3.3,1.24,6.71,0.86,10.22c-0.69,6.48-1.11,13-1.64,19.5c-0.02,0.3-0.06,0.59-0.1,1.06c-1.8,0-3.57,0-5.4,0
		c-0.2-0.54-0.37-0.95-0.5-1.37c-4.17-13.48-12.76-23.28-25.12-29.83c-8.51-4.51-17.67-6.46-27.25-5.94
		c-10.77,0.59-20.47,4.15-28.68,11.32c-0.71,0.62-1.37,0.82-2.24,0.75c-6.66-0.51-13.31-1-19.97-1.5
		C220.87,359.68,218.46,359.49,215.75,359.28z"/>
	<path class="st1" d="M313.95,380.62c-4.88,0-9.42,0-13.95,0c-0.61,0-1.21-0.08-1.82-0.09c-8.66-0.11-17.31-0.19-25.97-0.31
		c-14.73-0.2-29.46-0.43-44.19-0.65c-9.79-0.15-19.59-0.3-29.38-0.45c-9.87-0.15-19.74-0.3-29.61-0.46
		c-4.25-0.07-8.5-0.17-12.75-0.26c-0.43-0.01-0.85-0.05-1.64-0.11c1.88-3.4,3.54-6.61,5.41-9.69c0.98-1.61,2.25-3.06,3.53-4.45
		c3.79-4.08,8.3-5.93,14.05-5.4c13.6,1.26,27.24,2.16,40.86,3.18c14.46,1.08,28.92,2.15,43.38,3.2c12.26,0.89,24.53,1.74,36.8,2.6
		c2.62,0.18,4.8,1.39,6.76,2.99C308.77,373.42,311.55,376.6,313.95,380.62z"/>
	<path class="st3" d="M263.5,219.19c23.14,18.28,45.94,36.29,69.17,54.65c-1.55,0.26-2.56,0.58-3.55,0.56
		c-8.66-0.17-17.31-0.39-25.97-0.6c-6.38-0.15-12.75-0.3-19.13-0.46c-5.85-0.15-11.69-0.29-17.54-0.45
		c-5.24-0.14-10.47-0.29-15.71-0.44c-0.36-0.01-0.72-0.13-1.37-0.25C251.26,253.86,256.24,236.45,263.5,219.19z"/>
	<path class="st1" d="M143.47,276.13c-15.53,19.46-31.06,38.91-46.35,58.06c-3.67-0.18-6.99-0.56-10.3-0.45
		c-8.63,0.27-16.04,3.7-22.47,9.33c-6.92,6.07-11.43,13.71-14.28,22.4c-0.16,0.5-0.33,1-0.5,1.53c-1.28,0.65-2.55,0.19-3.8,0.02
		c-8.65-1.13-14.46-7.34-15.08-15.97c-0.09-1.31,0.55-1.89,1.49-2.51c7.83-5.1,15.63-10.24,23.45-15.36
		c28.46-18.66,56.92-37.32,85.38-55.98c0.69-0.45,1.39-0.9,2.09-1.35C143.23,275.95,143.35,276.04,143.47,276.13z"/>
	<path class="st4" d="M154.87,272.74c20.09,13.13,39.82,26.03,59.85,39.11c-16.13,10.6-27.99,24.61-36.51,41.63
		C177.16,351.79,155.68,277.48,154.87,272.74z"/>
	<path class="st2" d="M22.59,348.21c-0.21-4.88-0.41-9.77-0.63-14.94c1.6-0.1,3.01-0.19,4.42-0.29c2.73-0.19,2.99-0.45,2.86-3.15
		c-0.14-2.96-0.34-5.91-0.51-8.87c-0.02-0.37,0-0.75,0-1.32c36.22-14.58,72.42-29.15,108.63-43.72c0.06,0.11,0.12,0.22,0.19,0.32
		c-0.65,0.45-1.28,0.91-1.94,1.34c-34.98,22.94-69.99,45.84-104.91,68.88C28.11,348.17,25.66,348.54,22.59,348.21z"/>
	<path class="st2" d="M246.3,272.33c-1.93,0-3.79,0-6,0c0.42-2.56,0.72-4.95,1.22-7.31c3.46-16.22,8.39-31.99,14.77-47.31
		c0.93-2.24,2.16-4.35,3.19-6.55c0.56-1.2,1.39-1.54,2.69-1.55c11.17-0.06,22.34-0.23,33.51-0.28c4.4-0.02,8.81,0.16,13.21,0.35
		c1.03,0.04,2.08,0.4,3.05,0.79c5.54,2.26,10.41,5.64,15.04,9.35c11.58,9.28,21.4,20.23,30.19,32.14c2.52,3.41,4.86,6.95,7.48,10.74
		c-6.75,2.46-13.19,4.81-19.94,7.27c0.12-0.49,0.14-0.75,0.25-0.95c2.01-3.56,1.74-7.13,0.07-10.7c-1.54-3.29-3.97-5.89-6.59-8.36
		c-3.81-3.6-7.57-7.24-11.32-10.9c-5.66-5.51-11.28-11.07-16.96-16.55c-2.32-2.24-5.06-3.88-8.03-5.11
		c-1.03-0.43-2.17-0.74-3.28-0.83c-3.02-0.24-6.06-0.39-9.09-0.46c-5.85-0.12-11.7-0.14-17.55-0.24c-2.43-0.04-4.85-0.15-7.28-0.24
		c-2.05-0.07-3.38,0.79-4.23,2.73c-4.81,11.03-8.5,22.43-11.05,34.17c-1.32,6.07-2.1,12.26-3.12,18.39
		C246.47,271.37,246.39,271.81,246.3,272.33z"/>
	<path class="st2" d="M228.9,281.82c1.83,1.48,3.41,2.77,4.99,4.05c1.64,1.33,1.6,1.25,3.53,0.34c6.03-2.86,12.1-5.66,18.15-8.48
		c1.17-0.54,2.4-0.97,3.5-1.63c1.09-0.65,1.93-0.43,2.91,0.21c5.21,3.4,10.49,6.71,15.67,10.16c1.28,0.85,2.28,0.84,3.55,0.15
		c5.67-3.09,11.38-6.09,17.03-9.2c1.27-0.7,2.2-0.81,3.48,0.1c3.88,2.79,7.89,5.4,11.84,8.11c0.64,0.44,1.49,0.69,1.41,1.84
		c-0.07,1.01,0.93,1.02,1.64,1.22c6.94,1.93,13.89,3.87,20.83,5.81c4.82,1.35,9.64,2.71,14.46,4.08c0.55,0.16,1.07,0.41,1.54,0.9
		c-6.9-0.27-13.8-0.55-20.71-0.8c-2.58-0.09-5.16-0.13-7.74-0.2c-5.84-0.17-11.69-0.33-17.53-0.52c-9.49-0.3-18.97-0.69-28.46-0.9
		c-9.14-0.21-18.13-1.73-27.17-2.8c-8.82-1.04-17.62-2.25-26.43-3.37c-11-1.4-21.99-2.77-32.99-4.17c-0.11-0.01-0.22-0.13-0.51-0.33
		c0.49-0.24,0.86-0.45,1.25-0.6c4.12-1.55,8.26-3.05,12.35-4.65c1.17-0.46,2.11-0.43,3.2,0.23c3.37,2.03,6.78,3.99,10.19,5.95
		c0.81,0.47,1.61,0.53,2.47-0.1C223.76,285.45,226.23,283.72,228.9,281.82z"/>
	<path class="st4" d="M266.64,218.12c0.8,0,1.6-0.01,2.39,0c7.82,0.15,15.63,0.31,23.45,0.45c1.36,0.02,2.72-0.13,4.08-0.07
		c4.43,0.22,7.96,2.52,11.03,5.38c5.83,5.43,11.43,11.11,17.14,16.67c3.97,3.86,7.96,7.7,11.95,11.54c2.81,2.71,5.35,5.58,6.44,9.48
		c0.89,3.19-0.01,5.83-2.29,8.08c-0.54,0.53-1.15,1-1.78,1.42c-3.29,2.16-3.35,2.17-6.47-0.29c-14.36-11.33-28.7-22.67-43.06-34.01
		c-7.21-5.69-14.41-11.38-21.62-17.08c-0.46-0.37-0.89-0.77-1.33-1.16C266.59,218.4,266.62,218.26,266.64,218.12z"/>
	<path class="st3" d="M328.18,213.43c2.59,0,4.67-0.08,6.75,0.02c4.7,0.22,9.39,0.55,14.09,0.81c3.26,0.18,6.52,0.35,9.78,0.44
		c0.89,0.03,1.36,0.52,1.88,1.08c6.22,6.87,12.45,13.73,18.67,20.59c7.09,7.82,14.17,15.65,21.26,23.48
		c0.55,0.61,1.08,1.24,1.86,2.14c-1.01,0.16-1.77,0.39-2.54,0.39c-9.35,0.03-18.7,0.03-28.04,0.03c-0.22,0-0.44-0.09-0.43-0.08
		c-9.72-18.31-23.48-32.93-39.18-45.88c-0.59-0.48-1.21-0.92-1.82-1.37C329.83,214.62,329.22,214.18,328.18,213.43z"/>
	<path class="st2" d="M508.37,296.91c-2.12,2.87-3.99,5.43-5.89,7.97c-9.98,13.37-20,26.72-29.93,40.13
		c-1.05,1.41-2.1,2.02-3.9,1.99c-7.36-0.11-14.73-0.04-22.09-0.04c-0.75,0-1.51,0-2.51,0c0.24-0.5,0.34-0.84,0.55-1.1
		c12.37-15.76,24.76-31.5,37.08-47.29c1.14-1.47,2.32-2.06,4.19-2.02c7.06,0.17,14.11,0.17,21.17,0.24
		C507.32,296.79,507.62,296.84,508.37,296.91z"/>
	<path class="st5" d="M99.93,335.27c13.62-17.06,27.16-34.03,40.7-50.99c0.1,0.04,0.19,0.09,0.29,0.13
		c-0.29,1.09-0.7,2.17-0.85,3.28c-0.35,2.63-0.5,5.28-0.85,7.91c-1.46,11.13-2.97,22.26-4.45,33.4
		c-1.59,11.96-3.15,23.92-4.74,35.88c-0.18,1.35-0.39,2.7-0.65,4.52c-0.38-0.75-0.64-1.13-0.77-1.55
		c-1.8-5.76-4.25-11.21-7.75-16.15c-5.07-7.18-11.48-12.7-19.8-15.84C100.73,335.73,100.42,335.53,99.93,335.27z"/>
	<path class="st4" d="M187.08,262.6c-2.55-3.4-4.46-7.01-6.15-10.73c-0.18-0.39-0.02-1.04,0.17-1.48
		c3.93-9.05,7.89-18.08,11.84-27.12c0.67-1.53,1.28-3.08,1.88-4.64c0.35-0.89,0.92-1.31,1.9-1.26c1.52,0.07,3.04,0.08,4.56,0.06
		c12.68-0.14,25.36-0.29,38.04-0.45c1.28-0.02,2.55-0.12,3.95-0.18C242.28,218.42,195.92,256.16,187.08,262.6z"/>
	<path class="st4" d="M363.93,215.11c2.63,0.12,5.26,0.22,7.88,0.36c5.22,0.28,10.44,0.61,15.67,0.85c1.28,0.06,2.29,0.41,3.23,1.33
		c10.34,10.16,20.72,20.29,31.1,30.42c4.29,4.19,8.6,8.36,12.9,12.54c0.37,0.36,0.71,0.74,1.3,1.37c-0.85,0.07-1.41,0.15-1.98,0.15
		c-8.73,0.01-17.47-0.01-26.2,0.04c-1.33,0.01-2.25-0.38-3.14-1.38c-7.66-8.52-15.38-16.99-23.08-25.48
		c-5.35-5.9-10.7-11.81-16.05-17.72c-0.61-0.67-1.19-1.36-1.78-2.05C363.83,215.42,363.88,215.26,363.93,215.11z"/>
	<path class="st3" d="M244.82,219.93c-6.36,17.02-11.85,34.13-14.17,52.51c-0.46,0.04-1.03,0.14-1.6,0.12
		c-8.12-0.29-16.25,0.47-24.36,0.04c-2.4-0.13-4.84-0.44-7.19-0.99c-3.04-0.53-4.32-1.95-5.24-2.98c-1.08-1.36-2.46-2.47-3.84-4.02
		c19.27-14.34,36.71-30.75,55.83-44.98C244.4,219.74,244.67,219.81,244.82,219.93z"/>
	<path class="st2" d="M474.18,346.84c12.62-16.9,24.97-33.43,37.22-49.83c8.19,0,16.23,0,24.69,0c-0.57,0.88-0.88,1.43-1.26,1.94
		c-11.78,15.56-23.57,31.1-35.33,46.67c-0.7,0.93-1.42,1.37-2.63,1.36c-7.06-0.06-14.13-0.03-21.19-0.03
		C475.34,346.94,474.98,346.9,474.18,346.84z"/>
	<path class="st6" d="M441.46,375.9c4.63,2.33,9.31,1.32,13.9,1.43c1.38,4.85,1.75,9.6,1.48,14.38
		c-0.74,13.15-4.61,25.33-11.67,36.47c-2.78,4.39-6.1,8.33-10.31,11.45c-2.69,1.99-5.5,3.21-9.04,3.05
		c-5.76-0.26-11.54-0.07-17.65-0.07c0.5-0.34,0.75-0.56,1.04-0.69c9.96-4.37,17.41-11.54,22.95-20.75
		c7.6-12.63,10.49-26.41,9.59-41.05C441.67,378.84,441.57,377.57,441.46,375.9z"/>
	<path class="st2" d="M175.95,356.34c-3.68-0.24-6.66,0.48-9.45,2.01c-1.03,0.57-1.74-0.13-2.37-0.79
		c-1.77-1.84-2.93-4.05-3.64-6.48c-3.14-10.7-6.27-21.4-9.41-32.11c-2.24-7.64-4.48-15.29-6.73-22.93c-0.45-1.51-1.18-2.98-1.4-4.52
		c-0.21-1.46,0.04-3,0.2-4.49c0.06-0.58,0.33-1.18,0.64-1.69c2.55-4.2,5.13-8.39,7.7-12.58c0.17,0.01,0.34,0.03,0.52,0.04
		C159.94,300.51,167.89,328.21,175.95,356.34z"/>
	<path class="st4" d="M133.38,274.79c-34.86,14.03-69.71,28.06-104.89,42.22c-0.42-6.66-0.82-13.02-1.23-19.53
		c35.33-7.73,70.65-15.46,105.96-23.19C133.28,274.45,133.33,274.62,133.38,274.79z"/>
	<path class="st2" d="M393.55,217c2.26,0,4.08-0.08,5.89,0.01c5,0.25,9.99,0.58,14.99,0.84c0.88,0.05,1.55,0.31,2.23,0.9
		c15.34,13.48,30.7,26.93,46.06,40.39c0.96,0.84,1.91,1.69,3.17,2.79c-0.93,0.09-1.49,0.19-2.05,0.19
		c-7.44,0.01-14.89-0.01-22.33,0.04c-1.32,0.01-2.29-0.37-3.22-1.29c-8.56-8.41-17.14-16.79-25.72-25.17
		c-5.7-5.57-11.41-11.14-17.11-16.71C394.88,218.44,394.34,217.83,393.55,217z"/>
	<path class="st2" d="M178.92,247.23c-0.52-1.71-1.08-3.42-1.55-5.14c-1.7-6.27-2.67-12.63-2.14-19.14c0.1-1.26,0.41-2.55,0.87-3.73
		c0.92-2.41,2.11-4.72,3-7.14c0.54-1.48,1.39-1.92,2.89-1.92c8.89,0.02,17.78-0.02,26.67-0.08c15.12-0.11,30.24-0.25,45.36-0.37
		c0.82-0.01,1.64,0,2.65,0c-9.2,20.21-15.72,41.04-19.52,62.81c-1.06,0-2.1,0-3.27,0c-0.04-4,0.58-7.87,1.34-11.71
		c2.92-14.72,7.71-28.86,13.48-42.69c1.38-3.29,1.2-3.62-2.37-3.59c-8.81,0.06-17.63,0.1-26.44,0.23
		c-7.97,0.12-15.94,0.39-23.92,0.5c-1.81,0.02-2.73,0.78-3.42,2.37c-3.9,8.98-7.86,17.93-11.81,26.89c-0.41,0.94-0.86,1.85-1.3,2.78
		C179.27,247.27,179.1,247.25,178.92,247.23z"/>
	<path class="st0" d="M129.34,272.64c-35.82,7.84-71.64,15.68-107.75,23.59c0.17-0.78,0.23-1.28,0.39-1.74
		c3.47-9.9,12.52-16.7,23-17.29c11.3-0.64,22.59-1.28,33.88-1.93c13.04-0.75,26.07-1.52,39.11-2.29c3.76-0.22,7.53-0.49,11.29-0.74
		C129.3,272.37,129.32,272.51,129.34,272.64z"/>
	<path class="st7" d="M428.99,350.71c-3.01,0.26-5.73,0.52-8.44,0.73c-6.79,0.53-13.59,1.05-20.38,1.54
		c-0.68,0.05-1.45,0.08-2.07-0.17c-7.7-3.06-15.19-2.44-22.54,1.22c-0.14,0.07-0.3,0.08-0.45,0.12c0.11-1.71,7.11-18.59,10.3-24.82
		C401.73,325.02,419.71,334.66,428.99,350.71z"/>
	<path class="st0" d="M344.5,389.65c0.06,0.73,0.11,1.37,0.18,2.27c-71.27-0.42-142.35-0.35-213.55-0.98c0-1.7,0-2.97,0-4.28
		c0.33-0.11,0.61-0.28,0.89-0.27c4.25,0.02,8.51,0.07,12.76,0.12c0.53,0.01,1.06,0.08,1.59,0.09c9.34,0.1,18.69,0.17,28.03,0.28
		c11.93,0.14,23.85,0.31,35.78,0.46c5.39,0.07,10.79,0.13,16.18,0.2c11.39,0.15,22.79,0.3,34.18,0.46
		c10.94,0.15,21.88,0.3,32.81,0.45c11.32,0.15,22.64,0.28,33.95,0.47c4.78,0.08,9.56,0.28,14.34,0.45
		C342.56,389.39,343.46,389.54,344.5,389.65z"/>
	<path class="st7" d="M141.8,302.81c2.83,25.08,5.65,50.17,8.51,75.54c-6.5,0.01-12.81-0.48-19.03-0.61
		c3.35-25.07,6.67-49.98,10-74.88C141.45,302.84,141.63,302.82,141.8,302.81z"/>
	<path class="st4" d="M419.8,218.2c3.84,0.22,7.21-0.14,10.45,1.15c5.68,2.27,10.83,5.4,15.67,9.12c13.96,10.73,28,21.37,42,32.04
		c0.41,0.31,0.78,0.68,1.44,1.25c-0.81,0.1-1.29,0.21-1.77,0.21c-5.47,0.01-10.94-0.01-16.4,0.02c-1.04,0.01-1.9-0.2-2.7-0.9
		c-15.91-13.97-31.84-27.92-47.76-41.88C420.51,219.05,420.35,218.83,419.8,218.2z"/>
	<path class="st7" d="M323.86,386.03c-0.29,0.05-0.59,0.13-0.88,0.14c-0.6,0.02-1.21,0.01-1.67,0.01c-2.1-3.07-4.11-6-6.11-8.93
		c-2.07-3.03-4.61-5.62-7.39-8.01c-3.42-2.93-7.5-3.75-11.82-4.05c-7.94-0.55-15.88-1.18-23.82-1.76
		c-7.41-0.54-14.83-1.06-22.24-1.59c-0.5-0.04-1-0.16-1.6-0.25c8.94-8.55,26.73-13.52,43.75-7.95
		C309.52,359.34,321.28,373.85,323.86,386.03z"/>
	<path class="st2" d="M592.06,297.22c7.73-0.24,15.14-0.47,22.74-0.71c0.11,0.75,0.27,1.39,0.29,2.04
		c0.25,7.74,0.46,15.47,0.72,23.21c0.23,6.9,0.5,13.8,0.72,20.7c0.04,1.24,0.39,2.19,1.57,2.78c0.39,0.19,0.64,0.69,1.28,1.42
		c-2.49,0.11-4.49,0.2-6.65,0.3C605.36,330.64,599.48,313.76,592.06,297.22z"/>
	<path class="st7" d="M287.9,299.23c22.61,0.75,45.21,1.49,67.82,2.24c0.04,0.13,0.07,0.25,0.11,0.38
		c-0.39,0.26-0.76,0.56-1.17,0.77c-6.86,3.46-11.81,8.66-14.53,15.91c-0.96,2.55-2.05,5.05-3.17,7.79
		c-14.29-12.99-30.49-22.12-49.19-26.66C287.8,299.52,287.85,299.38,287.9,299.23z"/>
	<path class="st3" d="M182.34,287.43c24.96,3.16,49.93,6.32,74.89,9.47c0.02,0.15,0.04,0.31,0.05,0.46
		c-7.15,0.73-14.17,2.05-20.99,4.28c-6.8,2.22-13.25,5.21-19.43,8.91c-11.62-7.58-23.16-15.12-34.71-22.65
		C182.22,287.74,182.28,287.58,182.34,287.43z"/>
	<path class="st4" d="M317.61,386.46c-1.1,0-1.92,0.01-2.73,0c-14.43-0.17-28.87-0.33-43.3-0.51c-10.86-0.14-21.72-0.3-32.58-0.45
		c-11.47-0.16-22.94-0.3-34.41-0.46c-10.86-0.15-21.72-0.3-32.58-0.45c-11.39-0.16-22.79-0.29-34.18-0.47
		c-2.18-0.03-4.36-0.23-6.67-0.36c0-1.21,0-2.3,0-3.62c3.92,0.12,7.77,0.24,11.62,0.34c3.34,0.08,6.68,0.15,10.02,0.19
		c11.92,0.16,23.85,0.3,35.77,0.47c7.75,0.12,15.49,0.32,23.24,0.43c11.85,0.18,23.7,0.31,35.55,0.47
		c9.57,0.14,19.14,0.3,28.71,0.45c10.1,0.16,20.2,0.3,30.3,0.46c2.35,0.04,4.7,0.16,7.06,0.21
		C316.32,383.24,316.32,383.23,317.61,386.46z"/>
	<path class="st8" d="M73.44,357.31c0.17-0.54,0.23-0.83,0.35-1.1c2.89-6.51,5.79-13.02,8.66-19.47c13.2-3.3,28.52,4.39,36.6,17.6
		c-0.53,0.12-0.99,0.28-1.46,0.31c-7.5,0.58-14.99,1.15-22.49,1.69c-0.58,0.04-1.23,0.04-1.76-0.16
		c-6.55-2.47-12.94-2.11-19.19,0.98C74.03,357.23,73.87,357.23,73.44,357.31z"/>
	<path class="st9" d="M107.9,385.7c-0.29,10.36-3.14,18.85-10.13,25.64c-2.88,2.8-6.28,4.79-10.21,5.7
		c-6.6,1.53-12.3-0.44-17.28-4.76c-4.63-4.02-7.41-9.21-8.82-15.09c-2.19-9.11-1.26-17.93,3.09-26.29c1.8-3.47,4.19-6.49,7.24-8.98
		c9.02-7.35,20.31-6.48,28.09,2.17c4.02,4.47,6.35,9.77,7.38,15.63C107.65,381.97,107.75,384.25,107.9,385.7z M63.69,387.59
		c0.24,2.25,0.34,4.53,0.76,6.75c1.03,5.39,3.16,10.29,7.11,14.23c6.28,6.28,15.45,6.74,22.25,1.03c1.61-1.35,3.12-2.94,4.26-4.69
		c5.9-9.01,6.91-18.75,3.81-28.96c-1.37-4.52-3.74-8.46-7.43-11.5c-3.85-3.16-8.24-4.42-13.18-3.5c-4.64,0.86-8.22,3.43-11.05,7.09
		C65.77,373.78,63.91,380.38,63.69,387.59z"/>
	<path class="st9" d="M359.79,389.56c0.01-9.24,2.61-17.65,8.15-25.09c2.76-3.7,6.12-6.76,10.27-8.84
		c8.76-4.38,17.05-3.49,24.71,2.56c4.65,3.68,7.78,8.53,9.59,14.13c4.38,13.49,2.71,26.23-5.22,38.02
		c-3.15,4.68-7.32,8.33-12.58,10.54c-7.59,3.19-14.85,2.45-21.62-2.24c-5.31-3.67-8.69-8.82-10.93-14.79
		C360.44,399.24,359.76,394.46,359.79,389.56z M387,418.62c2.14-0.43,4.35-0.65,6.42-1.31c5.84-1.86,10.09-5.79,13.25-10.9
		c4.28-6.92,5.95-14.48,5.37-22.6c-0.47-6.59-2.41-12.63-6.28-18c-6.22-8.62-16.5-11.78-25.74-7.87c-5.3,2.24-9.18,6.11-12.04,11.03
		c-3.87,6.66-5.48,13.84-4.98,21.56c0.42,6.44,2.15,12.4,5.84,17.69C373.21,414.46,379.05,418.27,387,418.62z"/>
	<path class="st2" d="M176.84,284.41c-7.35-4.8-14.7-9.6-22.2-14.5c0.37-1.2,0.62-2.38,1.09-3.46c4.89-11.35,9.81-22.68,14.72-34.02
		c0.26-0.6,0.58-1.18,1.28-1.73c1.87,17.83,3.74,35.67,5.61,53.5C177.18,284.28,177.01,284.34,176.84,284.41z"/>
	<path class="st8" d="M434.93,363.87c3.72,9.12,4.72,25.28,1.78,36.19c-0.38-0.29-0.78-0.47-1.03-0.78
		c-5.91-7.14-11.81-14.29-17.68-21.46c-0.32-0.39-0.53-0.91-0.64-1.41c-1.35-5.86-3.71-11.23-7.45-15.97
		c-0.08-0.1-0.07-0.28-0.19-0.76C418.26,360.95,426.62,362.48,434.93,363.87z"/>
	<path class="st7" d="M418.05,391.59c0.61,0.77,0.9,1.1,1.14,1.46c4.13,6.2,8.23,12.41,12.39,18.59c0.65,0.97,0.89,1.78,0.33,2.91
		c-4.5,9.02-10.58,16.65-19.24,22.02c-0.69,0.43-1.42,0.77-2.43,1.31c0-0.93-0.03-1.51,0-2.08c0.54-8.49,1.1-16.98,1.66-25.46
		c0.03-0.44,0.11-0.92,0.33-1.29C415.27,403.79,417.08,398.11,418.05,391.59z"/>
	<path class="st6" d="M105.08,433.13c15.78-8.55,23.01-22.62,25.7-39.68c3.68,0,7.35,0,11.07,0c0.33,4.24-0.35,8.09-1.62,11.84
		c-2.88,8.49-7.52,15.88-14.03,22.04c-1.59,1.5-3.4,2.79-5.19,4.06c-2.35,1.67-4.94,2.5-7.91,2.3c-2.63-0.18-5.28-0.04-7.92-0.04
		C105.15,433.47,105.11,433.3,105.08,433.13z"/>
	<path class="st7" d="M403.76,419.34c-1.27,7.62-2.49,14.9-3.69,22.1c-12.33,3.33-28.03-2.61-35.8-12.45
		c1.3-0.15,2.48-0.31,3.67-0.42c7.32-0.72,14.65-1.43,21.97-2.15c1.04-0.1,2.13-0.06,2.71-1.28c0.16-0.32,0.74-0.5,1.16-0.63
		c3.15-0.98,6.01-2.51,8.67-4.43C402.74,419.86,403.08,419.72,403.76,419.34z"/>
	<path class="st2" d="M495.03,261.72c-1.85,0.53-2.99,0.09-4.17-0.82c-15.99-12.23-31.98-24.45-48.05-36.58
		c-4.08-3.08-8.77-5.21-13.64-6.67c-2.34-0.7-4.96-0.49-7.46-0.64c-5.14-0.31-10.28-0.59-15.42-0.87
		c-4.32-0.23-8.64-0.44-12.96-0.67c-5.83-0.31-11.67-0.61-17.5-0.94c-6.51-0.37-13.03-0.77-19.54-1.13
		c-4.55-0.25-9.1-0.45-13.64-0.69c-5.15-0.27-10.3-0.58-15.46-0.83c-0.92-0.05-1.97-0.45-2.92,0.8c4.7,3.1,9.23,6.37,13.25,10.24
		c4.05,3.9,8.13,7.78,11.92,11.92c3.8,4.14,7.37,8.49,10.84,12.91c3.47,4.4,6.61,9.05,8.79,14.29c-1.2,0.78-1.53,0.03-2.04-0.69
		c-4.08-5.76-8-11.66-12.36-17.2c-8.34-10.61-17.65-20.3-28.56-28.34c-2.54-1.87-5.22-3.55-8.1-5.49c2.21,0,4.13-0.07,6.05,0.01
		c5.92,0.25,11.84,0.55,17.76,0.83c11.46,0.55,22.92,1.11,34.38,1.63c8.73,0.4,17.46,0.73,26.19,1.13
		c7.13,0.33,14.26,0.74,21.4,1.07c3.18,0.15,6.1,1.17,8.97,2.4c6.97,2.99,13.26,7.02,19.06,11.91c2.49,2.1,5.22,3.92,7.84,5.87
		c11.2,8.37,22.4,16.74,33.59,25.11C493.77,260.66,494.27,261.1,495.03,261.72z"/>
	<path class="st8" d="M126.68,398.58c-0.77-0.88-1.32-1.48-1.83-2.11c-4.67-5.68-9.35-11.36-13.99-17.06
		c-0.46-0.56-0.84-1.26-1.01-1.96c-1.21-5.01-3.27-9.6-6.48-13.65c-0.08-0.1-0.08-0.27-0.21-0.72c1.49,0.24,2.85,0.45,4.22,0.68
		c5.45,0.92,10.9,1.88,16.37,2.73c1.08,0.17,1.63,0.59,1.85,1.61c0.66,3.03,1.53,6.03,2.01,9.08c1.03,6.57,0.78,13.14-0.42,19.68
		C127.09,397.31,126.93,397.73,126.68,398.58z"/>
	<path class="st7" d="M559.17,439.33c-6.59,1.06-12.9,0.71-18.9-1.89c-5.73-2.48-10.71-6.1-15.39-10.97
		c3.12-0.24,5.74-0.44,8.35-0.63c5.45-0.38,10.9-0.66,16.34-1.16c5.57-0.51,11.21-0.86,16.16-4.02c0.12,0.11,0.24,0.23,0.36,0.34
		C563.79,427.11,561.48,433.22,559.17,439.33z"/>
	<path class="st10" d="M430.94,347.02c1.65-0.84,3.3-1.68,5.12-2.61c0.74,1.08,1.5,2.02,2.07,3.06c0.84,1.52,2.05,2.01,3.75,1.99
		c8.35-0.13,16.71-0.19,25.07-0.22c9.8-0.03,19.6-0.01,29.41-0.01c0.53,0,1.07-0.04,1.6,0.01c1.69,0.15,2.83-0.56,3.84-1.92
		c4.42-5.99,8.93-11.91,13.4-17.86c4.52-6.01,9.07-12,13.53-18.06c0.91-1.24,1.89-1.75,3.42-1.68c2.43,0.11,4.86,0.02,7.29,0.01
		c17.32-0.05,34.65-0.11,51.97-0.16c0.83,0,1.66,0,2.61,0c0.78,1.87,1.55,3.67,2.29,5.48c3.94,9.62,7.87,19.25,11.82,28.86
		c0.52,1.26,1.18,2.47,1.69,3.73c0.46,1.16,1.27,1.62,2.47,1.59c1.6-0.03,3.19-0.02,4.79-0.02c0.73,0,1.47,0,2.5,0
		c-1.28,1.12-3.16,1.33-9.55,1.25c-1.56-3.61-3.15-7.28-4.73-10.96c-3.83-8.93-7.65-17.86-11.48-26.78
		c-0.77-1.8-0.95-1.86-2.92-1.71c-1.59,0.12-3.18,0.17-4.77,0.17c-6.69,0.03-13.37,0.01-20.06,0.05
		c-9.19,0.04-18.38,0.11-27.58,0.18c-2.5,0.02-5,0.14-7.5,0.13c-0.93,0-1.33,0.59-1.78,1.2c-3,4.11-6.02,8.21-9.02,12.31
		c-6.19,8.46-12.39,16.9-18.54,25.39c-0.71,0.97-1.45,1.39-2.65,1.35c-2.05-0.08-4.1,0-6.15,0.01c-14.59,0.06-29.17,0.11-43.76,0.19
		c-2.35,0.01-4.7,0.12-7.05,0.25c-1.17,0.06-2.02-0.28-2.7-1.28c-0.8-1.19-1.8-2.26-2.61-3.45c-0.74-1.08-1.54-1.27-2.71-0.72
		c-0.88,0.42-1.77,1.07-2.81,0.91C431.1,347.47,431.02,347.25,430.94,347.02z"/>
	<path class="st8" d="M103.7,430.84c0.14-2.24,0.24-3.89,0.36-5.53c0.43-5.9,0.85-11.79,1.31-17.69c0.06-0.73,0.22-1.52,0.57-2.15
		c2.2-3.95,3.55-8.19,4.38-12.61c0.07-0.37,0.16-0.74,0.25-1.1c0.01-0.04,0.1-0.07,0.29-0.18c0.34,0.45,0.72,0.89,1.04,1.37
		c3.36,5.05,6.67,10.13,10.11,15.13c0.85,1.23,0.92,2.19,0.24,3.51c-3.62,7-8.46,12.92-15.12,17.25
		C106.2,429.45,105.2,429.97,103.7,430.84z"/>
	<path class="st7" d="M371.34,335.88c-0.77,3.8-1.43,7.03-2.09,10.27c-0.98,4.79-1.97,9.58-2.91,14.38c-0.29,1.5-0.87,2.8-1.83,4.05
		c-4.72,6.52-3.5,14.26-7.77,21.72c-0.09,0.63,0,0-0.26,1.15c-0.65-1.2-1.58-1.2-1.93-1.93c-1.88-3.92-2.91-7.87-4.73-11.82
		c-0.29-0.63-1.24-1.24-1.08-1.88c3.47-13.91,9.2-25.59,20.95-34.85C370.01,336.71,370.38,336.5,371.34,335.88z"/>
	<path class="st6" d="M568.6,441.66c18.44-7.99,28.54-22.25,33.19-41.03c3.39,0,6.71,0,10.03,0
		C609.83,417.49,593.37,438.53,568.6,441.66z"/>
	<path class="st7" d="M580.16,402.63c3.77,4.23,7.34,8.22,10.84,12.14c-2.98,7.84-15.12,19.63-21.66,21
		c0.92-3.73,1.82-7.38,2.73-11.03c0.51-2.06,1.11-4.1,1.57-6.17c0.85-3.85,1.85-7.61,4.18-10.93
		C578.76,406.31,579.24,404.65,580.16,402.63z"/>
	<path class="st0" d="M48.73,369.78c-0.54,3.29-1.05,6.33-1.57,9.47c-7.6,1.27-13.66-1.15-18.25-7.19
		c-3.16-4.15-4.74-8.96-5.52-14.04c-0.35-2.29-0.45-4.63-0.68-7.1c1.84,0,3.33,0,4.97,0C29.04,363.41,36.68,368.99,48.73,369.78z"/>
	<path class="st0" d="M146.37,313.77c0.24,0.69,0.51,1.37,0.71,2.07c3.44,11.71,6.83,23.43,10.35,35.12
		c1.08,3.58,2.75,6.91,5.91,9.46c-4.44,4.14-7.84,8.97-9.91,14.7c-0.17-0.02-0.33-0.05-0.5-0.07c-2.3-20.4-4.6-40.8-6.91-61.2
		C146.14,313.83,146.26,313.8,146.37,313.77z"/>
	<path class="st8" d="M98.01,415.34c-1.01,5.87-2.02,11.74-3.05,17.75c-10.92,0.73-20.31-2.63-28.95-9.79
		c1.21-0.26,2.04-0.48,2.88-0.61c4.94-0.76,9.88-1.57,14.84-2.23c4.73-0.63,9.09-2.21,13.08-4.81c0.25-0.16,0.53-0.27,0.8-0.39
		C97.66,415.23,97.74,415.28,98.01,415.34z"/>
	<path class="st8" d="M68.71,342.97c-0.16,1.25-0.21,1.98-0.34,2.7c-1.16,6.04-2.32,12.08-3.54,18.11c-0.19,0.95-0.48,1.95-1,2.74
		c-3.67,5.5-5.67,11.55-6.29,18.09c-0.02,0.2-0.11,0.39-0.23,0.8c-0.29-0.33-0.51-0.51-0.63-0.75c-1.72-3.47-3.45-6.93-5.11-10.43
		c-0.27-0.56-0.37-1.33-0.24-1.94c2.15-10.11,6.47-19.09,13.97-26.37C66.26,344.99,67.32,344.17,68.71,342.97z"/>
	<path class="st0" d="M188.52,286.2c-2.63-0.31-5.1-0.59-7.56-0.9c-1-0.13-1.05-0.93-1.13-1.7c-0.28-2.64-0.56-5.28-0.84-7.91
		c-0.91-8.52-1.83-17.03-2.74-25.55c-0.04-0.37-0.04-0.74,0.2-1.21c0.24,0.41,0.52,0.8,0.7,1.23c2.42,5.92,5.26,11.61,9.48,16.49
		c1.92,2.22,4.08,4.23,6.43,6.64C191.66,277.26,190.11,281.65,188.52,286.2z"/>
	<path class="st7" d="M536.45,419.42c-3.62-0.35-7.24-0.69-10.86-1.05c-2.11-0.21-4.22-0.47-6.34-0.66
		c-0.81-0.07-1.41-0.31-1.82-1.09c-2.25-4.34-3.83-8.89-4.81-14.04c4.13-0.13,8.09-0.26,12.32-0.39
		c2.33,6.72,6.08,12.48,11.82,16.83C536.65,419.15,536.55,419.28,536.45,419.42z"/>
	<path class="st7" d="M369.98,421.02c-3.92-0.2-7.83-0.43-11.75-0.6c-1.15-0.05-1.48-0.92-1.92-1.69
		c-2.98-5.17-4.97-10.71-5.92-16.61c-0.3-1.87-0.55-3.75-0.76-5.63c-0.16-1.43-0.28-2.78-1.09-4.1c-0.52-0.84-0.35-2.1-0.5-3.17
		c0.15-0.05,0.31-0.1,0.46-0.16c0.4,0.5,0.84,0.98,1.2,1.5c2.45,3.56,4.9,7.12,7.33,10.69c0.51,0.75,1.05,1.52,1.34,2.36
		c2.35,6.73,6.03,12.54,11.78,16.93C370.09,420.71,370.03,420.87,369.98,421.02z"/>
	<path class="st0" d="M548.47,401.75c2.22,0,4.17,0,6.4,0c2.19,4.74,4.43,9.6,6.73,14.56c-5.83,3.14-11.49,3.53-17.53,0.85
		C545.55,411.98,546.98,406.97,548.47,401.75z"/>
	<path class="st3" d="M344.48,285.56c-3.32-2.87-6.42-5.55-9.51-8.24c-0.22-0.19-0.37-0.44-0.73-0.87
		c9.37-3.41,18.56-6.75,27.76-10.09c0.08,0.13,0.16,0.25,0.24,0.38C356.37,272.96,350.51,279.18,344.48,285.56z"/>
	<path class="st1" d="M297.29,276.32c-6.13,3.28-11.86,6.35-17.78,9.52c-5.21-3.35-10.46-6.73-15.87-10.21
		C265.57,275.03,294.65,275.6,297.29,276.32z"/>
	<path class="st8" d="M70.22,416.21c-3.31,0-6.62,0.06-9.93-0.06c-0.58-0.02-1.29-0.71-1.66-1.27c-3.07-4.58-5.14-9.6-6.54-14.91
		c-0.93-3.52-1.57-7.08-1.79-11.11c0.6,0.58,1,0.87,1.28,1.25c2.48,3.45,4.93,6.91,7.38,10.38c0.35,0.49,0.7,1,0.92,1.56
		C62.13,407.58,65.42,412.31,70.22,416.21z"/>
	<path class="st2" d="M433.71,361.22c-1.48-0.22-2.96-0.43-4.44-0.67c-7.26-1.22-14.51-2.48-21.78-3.64
		c-1.74-0.28-2.66-1.57-4.44-2.67c1.3-0.19,2.01-0.34,2.74-0.4c7.34-0.55,14.69-1.02,22.02-1.67c1.67-0.15,2.53,0.36,3.15,1.8
		c0.99,2.28,2.08,4.52,3.13,6.78C433.96,360.91,433.84,361.06,433.71,361.22z"/>
	<path class="st2" d="M573.89,401.16c-2.32,6.05-5.62,10.79-10.69,14.21c-1.19-1.2-5.32-9.71-6.61-13.64
		C562.27,401.25,567.91,401.37,573.89,401.16z"/>
	<path class="st2" d="M412.66,264.62c2.1,0,4.05-0.05,5.99,0.04c0.45,0.02,0.98,0.42,1.31,0.78c5.26,5.79,10.49,11.6,15.72,17.41
		c0.09,0.1,0.09,0.26,0.23,0.7c-2.09,0-4.09,0.03-6.09-0.03c-0.39-0.01-0.85-0.33-1.13-0.64c-5.25-5.79-10.48-11.61-15.71-17.43
		C412.85,265.32,412.83,265.08,412.66,264.62z"/>
	<path class="st2" d="M479.98,283.56c-1.88,0-3.76,0.04-5.63-0.03c-0.47-0.02-1.06-0.25-1.37-0.6c-5.46-6-10.89-12.03-16.53-18.28
		c2.34-0.46,4.42-0.22,6.48-0.19c0.31,0.01,0.68,0.33,0.92,0.59c5.45,6.01,10.89,12.02,16.33,18.04
		C480.11,283.26,480.05,283.41,479.98,283.56z"/>
	<path class="st2" d="M502.33,283.56c-1.88,0-3.76,0.04-5.64-0.03c-0.47-0.02-1.06-0.26-1.37-0.6c-5.46-6-10.89-12.03-16.53-18.28
		c2.34-0.46,4.42-0.23,6.49-0.19c0.31,0.01,0.67,0.33,0.92,0.6c5.45,6.01,10.89,12.03,16.33,18.05
		C502.46,283.26,502.39,283.41,502.33,283.56z"/>
	<path class="st2" d="M458.18,283.55c-2.05,0-4.06,0.04-6.07-0.03c-0.38-0.01-0.83-0.35-1.11-0.67
		c-5.34-5.91-10.67-11.84-15.99-17.77c-0.08-0.09-0.06-0.26-0.14-0.66c1.98,0,3.91-0.04,5.84,0.03c0.45,0.02,1,0.36,1.32,0.71
		c5.36,5.89,10.69,11.81,16.02,17.74C458.13,282.99,458.11,283.17,458.18,283.55z"/>
	<path class="st3" d="M257.3,275.37c-7.13,3.32-14.27,6.63-21.51,10c-1.74-1.41-3.43-2.79-5.35-4.35c2.02-1.34,3.98-2.46,5.74-3.84
		c2.33-1.82,4.84-2.49,7.8-2.35c4.39,0.21,8.79,0.05,13.19,0.05C257.22,275.05,257.26,275.21,257.3,275.37z"/>
	<path class="st1" d="M418.42,381.97c1.32,1.6,2.27,2.77,3.23,3.94c4.34,5.27,8.63,10.58,13.04,15.8c1.07,1.26,1.35,2.39,0.71,3.9
		c-0.62,1.45-1.06,2.98-1.72,4.87c-0.65-0.92-1.09-1.5-1.49-2.1c-3.99-6-7.85-12.1-12.03-17.96
		C418.36,387.9,418.12,385.37,418.42,381.97z"/>
	<path class="st2" d="M367.62,264.68c1.99,0,3.81-0.06,5.62,0.03c0.54,0.03,1.2,0.33,1.57,0.73c5.3,5.85,10.57,11.74,15.84,17.62
		c0.03,0.04,0,0.13,0,0.49c-1.99,0-4,0.03-6-0.03c-0.38-0.01-0.84-0.34-1.12-0.65c-5.25-5.8-10.48-11.62-15.7-17.44
		C367.74,265.35,367.75,265.17,367.62,264.68z"/>
	<path class="st2" d="M390.13,264.68c1.94,0,3.88-0.05,5.81,0.04c0.45,0.02,0.89,0.49,1.31,0.8c0.24,0.18,0.42,0.44,0.62,0.67
		c5.08,5.63,10.16,11.26,15.37,17.04c-1.25,0.64-2.46,0.2-3.58,0.37c-2.23,0.33-3.77-0.52-5.26-2.24
		c-4.36-5.06-8.91-9.95-13.38-14.9c-0.35-0.39-0.66-0.82-0.99-1.23C390.05,265.03,390.09,264.86,390.13,264.68z"/>
	<path class="st0" d="M382.84,330.69c-0.32,0.9-0.51,1.52-0.77,2.11c-3.17,7.13-6.39,14.24-9.51,21.39
		c-0.71,1.62-1.83,2.68-3.51,3.81c0.06-0.88,0.04-1.45,0.15-1.99c1.21-6.32,2.48-12.64,3.64-18.97c0.27-1.47,0.89-2.46,2.25-3.13
		C377.5,332.72,379.85,331.39,382.84,330.69z"/>
	<path class="st2" d="M525.39,283.57c-2.11,0-3.93,0.05-5.74-0.03c-0.54-0.02-1.22-0.27-1.57-0.66c-5.2-5.71-10.36-11.46-15.53-17.2
		c-0.13-0.15-0.18-0.38-0.36-0.78c2.38-0.25,4.58,0.19,6.78,0.46c0.38,0.05,0.75,0.48,1.05,0.8c4.98,5.5,9.95,11.01,14.92,16.52
		C525.08,282.84,525.14,283.06,525.39,283.57z"/>
	<path class="st1" d="M547.01,401.85c-1.43,5-2.78,9.7-4.2,14.67c-4.81-2.54-7.97-6.23-10.37-10.61c0.13-0.25,0.18-0.4,0.27-0.51
		C536.51,400.97,541.64,401.81,547.01,401.85z"/>
	<path class="st8" d="M20.81,300.06c1.18,0,2.22,0,3.26,0c0.63,1.64,2.29,27.49,1.93,30.47c-1.21,0.11-2.46,0.22-3.66,0.33
		C21.66,329.01,20.52,305.55,20.81,300.06z"/>
	<path class="st7" d="M328.68,277.18c-3.95,2.87-7.91,5.74-12.01,8.72c-4.54-3.09-9.08-6.18-13.62-9.26
		c0.04-0.16,0.08-0.31,0.12-0.47C311.63,276.23,320.08,276.49,328.68,277.18z"/>
	<path class="st1" d="M97.69,358.21c3.26-0.27,6.2-0.52,9.14-0.75c3.71-0.29,7.42-0.55,11.13-0.86c2.6-0.22,2.63-0.25,3.82,2.15
		c0.86,1.74,1.63,3.53,2.62,5.7c-1.85-0.27-3.26-0.44-4.66-0.67c-5.84-0.98-11.67-2.05-17.52-2.94
		C100.47,360.56,99.09,359.89,97.69,358.21z"/>
	<path class="st2" d="M547.72,283.56c-2.13,0-4.01,0.04-5.88-0.03c-0.47-0.02-1.06-0.26-1.37-0.6c-4.74-5.19-9.43-10.42-14.07-15.86
		c2.31,0.09,4.59-0.02,6.83,0.48c0.4,0.09,0.79,0.45,1.08,0.77c4.37,4.82,8.73,9.66,13.08,14.5
		C547.48,282.92,547.51,283.08,547.72,283.56z"/>
	<path class="st2" d="M67.32,361.92c0.78-4.13,1.48-7.83,2.19-11.54c0.45-2.38,0.98-4.75,1.36-7.14c0.24-1.55,0.91-2.61,2.41-3.22
		c2.07-0.85,4.08-1.83,6.12-2.75c0.1,0.12,0.2,0.24,0.3,0.36c-0.22,0.6-0.42,1.21-0.68,1.8c-2.8,6.3-5.63,12.58-8.39,18.89
		C69.99,359.76,69.11,360.88,67.32,361.92z"/>
	<path class="st2" d="M549.29,268.9c2.38,0.21,4.42,0.33,6.44,0.59c0.54,0.07,1.17,0.41,1.54,0.82c3.89,4.24,7.74,8.52,11.88,13.11
		c-2.46,0.31-4.6,0.17-6.73,0.06c-0.36-0.02-0.73-0.48-1.03-0.81c-3.87-4.27-7.72-8.55-11.57-12.84
		C549.69,269.67,549.61,269.46,549.29,268.9z"/>
	<path class="st4" d="M221.45,274.58c2.57,2.02,5.04,3.96,7.76,6.09c-2.85,1.78-5.43,3.43-8.07,4.99c-0.43,0.26-1.24,0.37-1.66,0.15
		c-3.82-1.94-7.59-3.97-11.94-6.27C212.53,277.76,216.96,276.18,221.45,274.58z"/>
	<path class="st2" d="M110.99,382.98c0.67,0.75,1.13,1.23,1.55,1.73c4.09,4.97,8.14,9.99,12.3,14.9c1.07,1.27,1.36,2.39,0.68,3.89
		c-0.52,1.15-0.87,2.38-1.42,3.92c-0.65-0.91-1.09-1.49-1.49-2.1c-3.32-4.98-6.53-10.04-9.98-14.92
		C111.06,388.2,110.49,385.98,110.99,382.98z"/>
	<path class="st2" d="M402.68,441c0.13-1.14,0.19-1.95,0.33-2.75c1.15-6.89,2.35-13.76,3.45-20.66c0.27-1.68,1.44-2.49,2.74-3.8
		c0,1.44,0.06,2.47-0.01,3.49c-0.44,6.66-0.96,13.32-1.33,19.99c-0.09,1.54-0.61,2.38-2.09,2.73
		C404.83,440.22,403.93,440.59,402.68,441z"/>
	<path class="st9" d="M528.66,402.04c0.43,0.92,0.78,1.69,1.13,2.46c2.5,5.46,6.13,9.94,11.46,12.86
		c6.33,3.47,12.91,3.76,19.51,0.96c6.78-2.88,11.16-8.17,14.07-14.79c0.24-0.56,0.48-1.11,0.71-1.68c0.36-0.89,0.98-0.77,1.84-0.4
		c-3.74,9.93-9.74,17.52-20.62,19.93c-7.16,1.59-13.5-0.6-19.08-5.13c-4.28-3.48-7.23-7.95-9.22-13.06c-0.08-0.2-0.1-0.43-0.13-0.66
		C528.32,402.47,528.41,402.41,528.66,402.04z"/>
	<path class="st1" d="M194.8,273.73c3.6,2,6.96,3.85,10.75,5.95c-5.01,1.87-9.62,3.6-14.76,5.52
		C192.21,281.13,193.47,277.55,194.8,273.73z"/>
	<path class="st1" d="M566.89,437.29c-1.44,0.45-3.08,0.96-5.08,1.58c0.21-0.88,0.28-1.36,0.45-1.81
		c2.18-5.82,4.41-11.63,6.56-17.47c0.56-1.53,1.65-2.46,3.35-3.53C570.38,423.25,568.69,430.05,566.89,437.29z"/>
	<path class="st0" d="M97.13,433.18c0.21-1.43,0.36-2.62,0.56-3.79c0.86-5.01,1.79-10.01,2.56-15.04c0.26-1.73,1.13-2.87,2.65-4.1
		c0.05,0.66,0.13,1.06,0.11,1.45c-0.42,5.98-0.86,11.97-1.28,17.95c-0.15,2.17-0.14,2.18-2.15,2.85
		C98.87,432.74,98.15,432.9,97.13,433.18z"/>
	<path class="st2" d="M543.87,423.04c-6.56,0.48-12.69,0.9-18.81,1.41c-1.54,0.13-2.6-0.3-3.42-1.6c-0.55-0.88-1.25-1.68-1.92-2.58
		C522.2,419.73,541.7,421.89,543.87,423.04z"/>
	<path class="st4" d="M356.01,395.68c-2.5-3.69-5-7.37-7.48-11.07c-0.2-0.3-0.4-0.7-0.38-1.04c0.15-2.38,0.36-4.76,0.55-7.15
		c0.16-0.02,0.32-0.04,0.49-0.06c0.27,0.49,0.58,0.96,0.81,1.46c1.83,3.99,3.6,8.01,5.49,11.97c0.88,1.86,0.76,3.8,0.98,5.73
		C356.32,395.57,356.16,395.63,356.01,395.68z"/>
	<path class="st3" d="M378.64,425.16c-5.47,0.55-10.44,1.03-15.4,1.55c-0.91,0.1-1.62-0.09-2.16-0.88c-0.58-0.85-1.21-1.65-1.9-2.59
		C363.46,422.55,376.06,423.71,378.64,425.16z"/>
	<path class="st4" d="M57.45,394.8c-2.28-3.2-4.6-6.38-6.8-9.64c-0.37-0.55-0.28-1.44-0.29-2.18c-0.04-1.7-0.01-3.41,0.41-5.22
		c0.27,0.39,0.58,0.76,0.79,1.18c1.79,3.61,3.65,7.18,5.28,10.85c0.65,1.48,0.77,3.19,1.13,4.79
		C57.79,394.65,57.62,394.72,57.45,394.8z"/>
	<path class="st7" d="M594.31,408.31c-2.68-2.54-4.97-4.7-7.32-6.93c1.66-0.61,6.8-0.81,9.49-0.4
		C595.8,403.3,595.12,405.59,594.31,408.31z"/>
	<path class="st2" d="M217.13,275.37c-3.02,1.13-6.03,2.28-9.06,3.37c-0.37,0.13-0.92,0.11-1.26-0.08
		c-2.17-1.15-4.31-2.36-6.87-3.78c6.04,0,11.58,0,17.11,0C217.08,275.04,217.11,275.2,217.13,275.37z"/>
	<path class="st8" d="M236.65,275.15c-2.7,1.75-5.03,3.27-7.45,4.85c-1.93-1.58-3.8-3.1-5.71-4.66
		C225.01,274.8,233.03,274.67,236.65,275.15z"/>
	<path class="st2" d="M593.42,410.31c-0.44,0.9-0.78,1.62-1.26,2.6c-3.61-3.94-7.04-7.69-10.56-11.54c1.16-0.62,1.99-0.38,2.77,0.36
		C587.32,404.55,590.29,407.35,593.42,410.31z"/>
	<path class="st2" d="M591.24,283.55c-2.15,0-4.15,0.02-6.16-0.02c-0.33-0.01-0.74-0.22-0.97-0.47c-1.56-1.7-3.09-3.43-4.79-5.32
		C584.35,278.83,589.97,281.53,591.24,283.55z"/>
	<path class="st5" d="M61.71,418.53c5.49-0.6,13.39-0.23,15.45,0.83c-3.16,0.5-6.05,0.96-8.95,1.41c-0.6,0.09-1.2,0.16-1.79,0.26
		C63.59,421.5,63.51,421.47,61.71,418.53z"/>
	<path class="st3" d="M531.66,404.45c-0.34-0.9-0.55-1.44-0.83-2.2c1.17,0,2.16,0,3.64,0C533.44,403.05,532.68,403.65,531.66,404.45
		z"/>
	<path d="M558.99,359.89c-10.78,0-21.57,0-32.35,0c-0.38,0-0.76,0.01-1.14-0.01c-2.09-0.08-2.43-0.45-2.31-2.42
		c0.09-1.51-0.06-3.04-0.01-4.55c0.04-1.62,0.4-1.94,2.06-2.05c0.53-0.03,1.06-0.02,1.59-0.01c15.64,0.07,31.28,0.13,46.93,0.22
		c6.07,0.04,12.14,0.17,18.21,0.26c0.38,0.01,0.76,0,1.14,0.03c1.6,0.16,1.99,0.52,2.05,2.11c0.05,1.29,0.06,2.58,0,3.87
		c-0.1,2.23-0.69,2.81-2.91,2.8c-10.1-0.05-20.2-0.12-30.29-0.18c-0.99-0.01-1.97,0-2.96,0
		C558.99,359.94,558.99,359.92,558.99,359.89z M592.08,354.05c-3.01-0.58-64.1-1.05-65.82-0.5c-0.03,0.58-0.09,1.18-0.07,1.78
		c0.02,0.65,0.11,1.31,0.19,2.14c21.98,0.14,43.82,0.28,65.7,0.41C592.08,356.4,592.08,355.21,592.08,354.05z"/>
	<path d="M63.69,387.59c0.22-7.21,2.08-13.81,6.53-19.55c2.83-3.65,6.41-6.23,11.05-7.09c4.94-0.91,9.34,0.34,13.18,3.5
		c3.69,3.03,6.06,6.98,7.43,11.5c3.1,10.21,2.09,19.95-3.81,28.96c-1.15,1.75-2.66,3.34-4.26,4.69c-6.8,5.71-15.96,5.25-22.25-1.03
		c-3.95-3.94-6.08-8.84-7.11-14.23C64.03,392.12,63.93,389.84,63.69,387.59z M101.49,390.24c-6.21-1.04-12.19-2.13-18.35-2.89
		c0.98,3.34,8.76,19.78,9.9,20.96C98.15,403.42,100.66,397.37,101.49,390.24z M76.01,409.9c4.78,3.87,12.1,2.77,15.7-0.86
		c-3.14-6.61-6.08-13.35-9.31-19.95c-0.15,0.03-0.3,0.06-0.46,0.08C79.97,396.07,78,402.96,76.01,409.9z M88.37,362.8
		c-5.03-2.01-10.91-0.3-14.91,4.23c2.71,5.85,5.45,11.77,8.19,17.7c0.16-0.03,0.31-0.06,0.47-0.09
		C84.2,377.4,86.27,370.16,88.37,362.8z M99.13,373.72c-5.3,4.12-10.41,8.08-15.51,12.05c0.03,0.16,0.06,0.31,0.09,0.47
		c5.91,0.95,11.82,1.89,17.92,2.87C101.99,383.63,101.28,378.72,99.13,373.72z M98.71,372.7c-2.17-4.16-4.82-7.57-9.32-9.57
		c-2.04,7.15-4,14.02-5.96,20.88c0.13,0.08,0.26,0.15,0.4,0.23C88.73,380.44,93.62,376.65,98.71,372.7z M72.59,367.74
		c-3.91,4.72-5.92,9.79-6.59,15.64c4.96,0.8,9.77,1.57,14.95,2.4C78.08,379.59,75.39,373.79,72.59,367.74z M67.45,398.32
		c1.34,4.66,4.52,9.22,7.66,10.83c1.99-6.97,3.97-13.9,5.95-20.83c-0.14-0.08-0.27-0.15-0.41-0.23
		C76.3,391.46,71.94,394.84,67.45,398.32z M65.84,384.46c-0.33,4.49-0.18,8.55,1.26,12.79c4.48-3.48,8.74-6.79,13.43-10.43
		C75.34,385.98,70.75,385.25,65.84,384.46z"/>
	<path d="M387,418.62c-7.94-0.35-13.78-4.16-18.15-10.41c-3.69-5.29-5.42-11.25-5.84-17.69c-0.5-7.73,1.1-14.9,4.98-21.56
		c2.86-4.91,6.74-8.78,12.04-11.03c9.24-3.91,19.52-0.75,25.74,7.87c3.88,5.38,5.82,11.41,6.28,18c0.58,8.12-1.09,15.68-5.37,22.6
		c-3.16,5.11-7.42,9.04-13.25,10.9C391.34,417.96,389.14,418.19,387,418.62z M398.12,413.03c5.38-2.78,11.74-13.96,11.42-20.7
		c-7.35-1.19-14.74-2.38-22.69-3.67C390.76,397.12,394.44,405.07,398.12,413.03z M375.12,362.96c1.76,4.89,9.56,21.31,10.83,22.67
		c2.59-9.06,5.15-18,7.71-26.92C388.06,355.69,379.4,358.54,375.12,362.96z M378.92,415.14c6.34,3.17,12.18,2.48,18.14-1.08
		c-3.58-7.76-7.13-15.44-10.68-23.12c-0.17,0.01-0.34,0.01-0.52,0.02C383.58,398.93,381.29,406.91,378.92,415.14z M384.46,386.79
		c-3.62-7.82-6.97-15.22-10.6-22.81c-5.37,5.76-7.98,12.25-8.87,19.74C371.48,384.78,377.7,385.88,384.46,386.79z M387.86,386.91
		c0.07,0.18,0.15,0.37,0.22,0.55c7.3,1.1,14.55,2.54,21.99,3.41c0.82-6.77-0.14-12.91-2.79-19.07
		C400.62,376.99,394.24,381.95,387.86,386.91z M406.6,370.62c-2.59-5.56-7.72-10.5-11.7-11.3c-2.42,8.46-4.84,16.92-7.25,25.39
		c0.15,0.09,0.3,0.18,0.45,0.27C394.25,380.22,400.39,375.45,406.6,370.62z M384.68,390.04c-0.16-0.1-0.31-0.2-0.47-0.3
		c-5.53,4.3-11.06,8.6-16.57,12.88c2.36,4.96,5.3,8.98,10.06,11.81C380.07,406.16,382.38,398.1,384.68,390.04z M367.13,401.29
		c5.64-4.38,10.99-8.54,16.33-12.7c-0.05-0.17-0.11-0.34-0.16-0.51c-6.07-0.98-12.14-1.95-18.34-2.95
		C364.37,390.77,365.1,395.86,367.13,401.29z"/>
	<path class="st10" d="M592.08,354.05c0,1.17,0,2.35,0,3.84c-21.88-0.14-43.72-0.28-65.7-0.41c-0.08-0.84-0.17-1.49-0.19-2.14
		c-0.02-0.6,0.05-1.2,0.07-1.78C527.98,353,589.08,353.47,592.08,354.05z"/>
	<path class="st1" d="M101.49,390.24c-0.83,7.12-3.34,13.18-8.45,18.07c-1.14-1.18-8.92-17.63-9.9-20.96
		C89.3,388.12,95.28,389.2,101.49,390.24z"/>
	<path class="st2" d="M76.01,409.9c1.99-6.94,3.96-13.83,5.93-20.72c0.15-0.03,0.3-0.06,0.46-0.08c3.24,6.6,6.18,13.34,9.31,19.95
		C88.11,412.67,80.8,413.77,76.01,409.9z"/>
	<path class="st2" d="M88.39,362.82c-2.12,7.36-4.21,14.59-6.29,21.82c-0.16,0.03-0.31,0.06-0.47,0.09
		c-2.73-5.93-5.46-11.86-8.16-17.71C77.48,362.49,83.37,360.8,88.39,362.82z"/>
	<path class="st2" d="M99.13,373.72c2.14,5,2.86,9.91,2.5,15.38c-6.1-0.98-12.01-1.92-17.92-2.87c-0.03-0.16-0.06-0.31-0.09-0.47
		C88.72,381.8,93.83,377.84,99.13,373.72z"/>
	<path class="st1" d="M98.71,372.7c-5.09,3.95-9.99,7.75-14.88,11.54c-0.13-0.08-0.26-0.15-0.4-0.23
		c1.96-6.87,3.92-13.73,5.96-20.88C93.89,365.13,96.54,368.53,98.71,372.7z"/>
	<path class="st1" d="M72.59,367.74c2.8,6.05,5.49,11.86,8.36,18.04c-5.18-0.83-9.99-1.61-14.95-2.4
		C66.66,377.53,68.68,372.45,72.59,367.74z"/>
	<path class="st1" d="M67.45,398.32c4.49-3.48,8.85-6.85,13.2-10.23c0.14,0.08,0.27,0.15,0.41,0.23
		c-1.98,6.93-3.96,13.86-5.95,20.83C71.97,407.54,68.79,402.98,67.45,398.32z"/>
	<path class="st2" d="M65.84,384.46c4.9,0.79,9.49,1.52,14.68,2.36c-4.69,3.64-8.95,6.95-13.43,10.43
		C65.67,393.01,65.52,388.95,65.84,384.46z"/>
	<path class="st0" d="M398.12,413.03c-3.68-7.96-7.36-15.91-11.27-24.37c7.95,1.28,15.34,2.48,22.69,3.67
		C409.86,399.07,403.5,410.25,398.12,413.03z"/>
	<path class="st2" d="M375.12,362.96c4.28-4.42,12.94-7.27,18.54-4.24c-2.55,8.92-5.11,17.86-7.71,26.92
		C384.68,384.27,376.88,367.85,375.12,362.96z"/>
	<path class="st2" d="M378.92,415.14c2.36-8.23,4.65-16.21,6.95-24.19c0.17-0.01,0.34-0.01,0.52-0.02
		c3.55,7.68,7.09,15.36,10.68,23.12C391.1,417.62,385.26,418.31,378.92,415.14z"/>
	<path class="st0" d="M384.46,386.79c-6.76-0.91-12.99-2.01-19.46-3.08c0.88-7.48,3.49-13.97,8.87-19.74
		C377.5,371.58,380.84,378.97,384.46,386.79z"/>
	<path class="st2" d="M387.86,386.91c6.38-4.96,12.76-9.92,19.43-15.11c2.65,6.16,3.61,12.29,2.79,19.07
		c-7.44-0.87-14.69-2.3-21.99-3.41C388.01,387.28,387.93,387.1,387.86,386.91z"/>
	<path class="st1" d="M406.6,370.62c-6.21,4.83-12.36,9.59-18.5,14.36c-0.15-0.09-0.3-0.18-0.45-0.27
		c2.42-8.47,4.84-16.94,7.25-25.39C398.88,360.13,404.01,365.07,406.6,370.62z"/>
	<path class="st1" d="M384.68,390.04c-2.3,8.06-4.61,16.12-6.97,24.39c-4.77-2.83-7.71-6.86-10.06-11.81
		c5.52-4.29,11.04-8.59,16.57-12.88C384.37,389.84,384.53,389.94,384.68,390.04z"/>
	<path class="st2" d="M367.13,401.29c-2.02-5.43-2.76-10.52-2.17-16.15c6.19,1,12.27,1.97,18.34,2.95c0.05,0.17,0.11,0.34,0.16,0.51
		C378.11,392.75,372.77,396.91,367.13,401.29z"/>
	<path d="M149.66,265.55c1.3-2.96,2.61-5.94,3.91-8.93c6.9-15.88,13.84-31.74,20.65-47.65c1.16-2.72,3.01-3.79,5.79-3.82
		c15.81-0.18,31.61-0.39,47.42-0.56c18.85-0.2,37.69-0.37,56.54-0.55c5.93-0.06,11.86-0.33,17.78-0.13
		c11.08,0.38,22.16,1.04,33.23,1.56c5.24,0.25,10.48,0.42,15.71,0.66c11.38,0.53,22.76,1.09,34.15,1.62
		c5.24,0.24,10.48,0.44,15.71,0.66c7.67,0.33,15.33,0.64,23,1c3.45,0.16,6.74,1.1,9.94,2.33c6.71,2.58,12.85,6.19,18.58,10.5
		c11.17,8.4,22.33,16.83,33.5,25.23c4.67,3.52,9.39,6.99,14.05,10.52c1.07,0.82,2.19,1.24,3.54,1.36
		c15.13,1.33,30.26,2.71,45.39,4.05c4.01,0.36,8.03,0.62,12.03,0.99c0.89,0.08,1.79,0.34,2.62,0.67
		c14.96,5.94,29.91,11.9,44.84,17.9c1.17,0.47,2.29,1.2,3.26,2.01c2.44,2.06,4.76,4.25,7.17,6.35c1.7,1.48,2.48,3.18,2.54,5.54
		c0.35,14.35,0.88,28.7,1.32,43.05c0.03,1.02,0.32,1.85,0.87,2.74c0.74,1.2,1.44,2.59,1.6,3.96c0.78,6.82,0.74,13.65-0.21,20.45
		c-0.48,3.42-1.79,6.41-4.74,8.59c2.31,4.97,2.41,10.13,1.4,15.38c-0.59,3.09-2.08,5.82-3.43,8.61c-0.29,0.6-0.55,1.24-0.69,1.89
		c-4.79,22.74-22.01,39.83-44.75,44.24c-10.3,2-20.37,0.96-30.29-2.49c-9.25-3.22-17.35-8.03-23.47-15.8
		c-5.18-6.57-9-13.87-11.32-21.93c-0.08-0.29-0.13-0.6-0.21-0.89c-0.54-1.79-0.66-1.89-2.56-1.89c-8.21,0-16.41,0-24.62,0.03
		c-5.32,0.02-10.64,0.09-15.96,0.13c-0.75,0.01-1.5,0-2.36,0c-0.31,1.25-0.58,2.34-0.86,3.43c-2.86,11.34-7.45,21.83-15.03,30.86
		c-3.5,4.17-7.5,7.79-12.62,9.88c-1.43,0.59-3.07,0.95-4.61,0.96c-12.08,0.1-24.17,0.17-36.25,0.09
		c-15.16-0.1-27.27-6.44-36.47-18.36c-6.21-8.06-9.68-17.31-11.36-27.27c-0.28-1.63-0.51-3.28-0.8-5.16
		c-65.2-0.24-130.31-0.49-195.55-0.73c-0.14,1.02-0.23,1.9-0.38,2.77c-2.33,13.86-9.29,25.05-19.85,34.11
		c-1.54,1.32-3.34,2.38-5.11,3.4c-2.81,1.62-5.8,2.41-9.13,2.29c-7.97-0.29-15.96-0.16-23.93-0.56
		c-10.34-0.52-19.52-4.28-27.4-11.02c-9.25-7.91-14.72-18.06-16.94-29.94c-0.75-4.01-0.93-8.13-1.41-12.47
		c-0.4-0.05-1.05-0.18-1.7-0.22c-9.16-0.46-15.72-5.06-20.22-12.82c-3.07-5.29-4.59-11.08-4.97-17.14
		c-0.48-7.66-0.77-15.32-1.08-22.99c-0.45-10.85-0.83-21.71-1.27-32.56c-0.06-1.39,0.06-2.65,0.71-3.96
		c0.87-1.76,1.28-3.75,2.14-5.51c5.56-11.41,14.85-17.32,27.39-18.19c9.77-0.68,19.56-1.2,29.34-1.77
		c6.07-0.36,12.14-0.67,18.2-1.03c10.46-0.61,20.93-1.23,31.39-1.84c8.27-0.48,16.53-0.96,24.8-1.44
		C148.94,265.69,149.23,265.61,149.66,265.55z M528.49,284.31c-0.56,0.36-0.68,0.51-0.8,0.51c-3.26-0.02-6.52-0.03-9.78-0.13
		c-0.43-0.01-0.92-0.45-1.24-0.82c-5.55-6.14-11.11-12.28-16.6-18.47c-0.69-0.77-1.36-1.03-2.34-1.02
		c-2.66,0.05-5.32,0.01-7.98,0.03c-0.47,0-0.93,0.14-1.65,0.25c1.36,1.53,2.51,2.83,3.68,4.13c4.22,4.68,8.46,9.35,12.67,14.04
		c0.47,0.52,1.3,0.95,0.73,1.9c-3.34,0-6.67,0.03-10-0.03c-0.43-0.01-0.95-0.4-1.27-0.76c-5.24-5.81-10.49-11.61-15.65-17.48
		c-1.29-1.46-2.6-2.33-4.63-2.08c-1.5,0.18-3.04,0.03-4.56,0.04c-1.01,0-2.02,0.02-3.48,0.04c1.52,1.71,2.66,3.01,3.82,4.3
		c4.22,4.68,8.46,9.35,12.67,14.04c0.46,0.52,1.31,0.93,0.78,1.92c-3.39,0-6.79,0.02-10.19-0.03c-0.36-0.01-0.79-0.39-1.07-0.7
		c-5.84-6.49-11.66-13-17.38-19.4c-3.44,0-6.73,0-10.33,0c0.69,0.82,1.15,1.4,1.65,1.95c4.88,5.41,9.78,10.82,14.65,16.24
		c0.46,0.51,1.31,0.93,0.7,2.13c-0.78,0-1.67,0.02-2.56,0c-1.52-0.04-3.04-0.24-4.55-0.13c-2.25,0.16-4.18-0.13-5.39-2.33
		c-0.29-0.52-0.8-0.91-1.21-1.36c-4.64-5.13-9.29-10.24-13.89-15.4c-0.72-0.8-1.44-1.16-2.53-1.12c-2.43,0.09-4.86,0.02-7.29,0.04
		c-0.47,0.01-0.93,0.16-1.64,0.3c0.62,0.73,1.04,1.26,1.49,1.76c4.83,5.36,9.68,10.71,14.5,16.08c0.46,0.52,1.3,0.93,0.86,1.92
		c-0.2,0.07-0.4,0.21-0.61,0.2c-3.11-0.04-6.23-0.04-9.33-0.18c-0.55-0.03-1.17-0.57-1.59-1.03c-5.41-5.96-10.81-11.93-16.17-17.94
		c-0.72-0.81-1.49-1.16-2.57-1.13c-2.58,0.07-5.17,0.02-7.75,0.05c-0.46,0.01-0.92,0.17-1.61,0.31c0.63,0.73,1.05,1.25,1.51,1.75
		c4.83,5.36,9.67,10.71,14.49,16.08c0.46,0.52,1.31,0.93,0.82,1.88c-0.15,0.07-0.29,0.19-0.42,0.19c-3.19-0.03-6.38-0.05-9.56-0.15
		c-0.45-0.01-0.98-0.36-1.3-0.71c-4.48-4.96-8.92-9.96-13.38-14.93c-1.27-1.41-2.36-3.31-3.95-4.01c-1.67-0.73-3.86-0.33-5.82-0.36
		c-1.47-0.02-2.94,0.05-4.81,0.09c0.72,0.88,1.12,1.4,1.56,1.89c4.83,5.36,9.67,10.71,14.49,16.08c0.46,0.52,1.3,0.93,0.86,1.92
		c-0.2,0.07-0.4,0.21-0.6,0.21c-3.11-0.04-6.22-0.06-9.33-0.17c-0.45-0.02-1.01-0.32-1.32-0.67c-4.43-4.9-8.82-9.84-13.23-14.76
		c-1.09-1.22-2.22-2.39-3.41-3.67c-0.97,1.01-1.76,1.83-2.54,2.66c-5.63,5.97-11.25,11.94-16.9,17.89
		c-0.58,0.62-1.34,1.07-1.83,1.45c-4.31-3.74-8.35-7.25-12.45-10.81c-4.62,3.35-9.07,6.58-13.86,10.06
		c1.08,0.36,1.69,0.58,2.32,0.76c14.03,3.92,28.05,7.86,42.09,11.74c1.44,0.4,2.98,0.6,4.48,0.58c15.95-0.16,31.9-0.38,47.86-0.58
		c2.83-0.03,5.62,0.29,8.31,1.17c7.44,2.46,12.57,7.2,14.57,14.95c0.34,1.31,0.41,2.69,0.64,4.04c0.72,4.11,1.47,8.22,2.2,12.32
		c0.07,0.37,0.07,0.76,0.14,1.13c0.67,3.51,0.44,6.82-2.3,9.56c0.89,1.33,1.7,2.55,2.6,3.89c0.45-0.48,0.72-0.73,0.95-1.02
		c7.04-8.96,14.08-17.92,21.11-26.88c5.86-7.47,11.74-14.93,17.56-22.43c0.88-1.14,1.82-1.71,3.26-1.56
		c1.51,0.15,3.03,0.23,4.54,0.25c8.43,0.09,16.87,0.16,25.3,0.2c6.84,0.04,13.68,0.02,20.52,0.04c1.44,0,2.88,0.06,4.32,0.11
		c0.72,0.02,1.37,0.16,1.53,1.17c-2.71,3.5-5.46,7.06-8.4,10.86c20.83,0,41.26,0,62.07,0c-1.81-3.9-3.49-7.5-5.31-11.41
		c1.1-0.15,1.95-0.35,2.81-0.38c6.53-0.21,13.06-0.37,19.59-0.57c0.71-0.02,1.42-0.14,2.61-0.27c-2-1.8-3.6-3.28-5.25-4.72
		c-0.74-0.64-1.47-1.39-2.35-1.76c-3.76-1.6-7.58-3.07-11.38-4.59c-0.53,1.4-0.53,1.47-1.62,1.46c-2.89-0.02-5.77-0.07-8.65-0.2
		c-0.52-0.02-1.15-0.37-1.51-0.77c-2.11-2.28-4.13-4.66-6.26-6.93c-0.65-0.69-1.49-1.29-2.37-1.65c-4.06-1.7-8.16-3.31-12.25-4.94
		c-0.67-0.27-1.39-0.42-2.08-0.62c1.18,1.95,2.59,3.51,4,5.08c1.42,1.58,2.85,3.16,4.26,4.75c1.37,1.55,2.94,2.93,4.24,5.14
		c-1.26,0.07-2.06,0.16-2.86,0.15c-2.28-0.03-4.56-0.18-6.83-0.14c-1.2,0.02-1.89-0.46-2.66-1.34c-4.11-4.68-8.31-9.28-12.51-13.88
		c-0.38-0.42-0.95-0.88-1.47-0.94c-3.06-0.34-6.14-0.57-9.63-0.87c0.56,0.72,0.84,1.13,1.17,1.5c4.06,4.52,8.14,9.02,12.2,13.55
		c0.46,0.52,1.31,0.94,0.77,1.92c-3.4,0-6.8,0.03-10.2-0.04c-0.41-0.01-0.87-0.52-1.2-0.88c-4.84-5.35-9.68-10.7-14.47-16.1
		c-0.72-0.81-1.51-1.2-2.54-1.28c-2.73-0.22-5.45-0.46-8.18-0.67c-0.47-0.04-0.95,0.07-1.73,0.14
		C517.55,272.24,523.18,278.04,528.49,284.31z M591.66,312.28c-1.04,0-1.87-0.01-2.71,0c-9.65,0.08-19.3,0.15-28.95,0.23
		c-8.97,0.07-17.93,0.18-26.9,0.19c-1.38,0-2.24,0.48-3,1.56c-1.6,2.31-3.3,4.55-4.96,6.82c-7.36,10.05-14.72,20.1-22.07,30.15
		c-0.67,0.92-1.26,1.69-2.7,1.68c-5.39-0.05-10.78,0.14-16.18,0.16c-10.26,0.04-20.52,0.04-30.78,0.05c-0.76,0-1.52,0.05-2.28,0.05
		c-4.02,0.01-8.04,0-12.15,0c-1.36-1.71-2.76-3.48-4.2-5.3c-0.96,0.46-1.73,0.83-2.51,1.21c0.17,0.45,0.21,0.67,0.32,0.86
		c3.7,6.27,6.24,12.99,7.76,20.11c0.57,2.66,2.33,4.22,4.95,4.71c1.33,0.25,2.72,0.3,4.08,0.28c4.63-0.06,9.26-0.2,13.89-0.28
		c9.04-0.16,18.08-0.29,27.11-0.44c9.34-0.15,18.68-0.3,28.03-0.46c8.96-0.15,17.92-0.31,26.89-0.45
		c14.13-0.22,28.26-0.43,42.39-0.63c7.67-0.11,15.34-0.21,23.02-0.31c0.15,0,0.3,0,0.46,0c5.04-0.29,7.19-2.22,7.62-7.23
		c0.35-4.01,0.44-8.04,0.62-12.06c0.02-0.57-0.12-1.14-0.17-1.6c-3.68,0-7.15,0-10.69,0C602.94,338.54,597.35,325.51,591.66,312.28z
		 M212.94,359.09c0.46-0.97,0.87-1.86,1.3-2.74c0.47-0.95,0.92-1.92,1.44-2.84c5.77-10.21,14.48-17.07,25.13-21.53
		c14.35-6.01,29.29-6.91,44.48-4.42c16.43,2.69,31.23,9.17,44.21,19.68c0.44,0.36,0.95,0.62,1.86,1.2c-1-3.03-0.59-5.57,0.27-8.03
		c1.12-3.22,2.35-6.4,3.53-9.6c0.26-0.7,0.51-1.39,0.83-2.26c-0.65-0.56-1.23-1.05-1.8-1.55c-4.51-3.96-9.2-7.69-14.23-10.98
		c-15.45-10.1-32.3-16.05-50.79-16.91c-14.1-0.66-27.69,1.94-40.55,7.8c-22.15,10.08-37.85,26.69-48.44,48.38
		c-0.18,0.36-0.25,0.78-0.43,1.36C190.95,357.48,201.9,358.28,212.94,359.09z M429.6,344.84c1.82-1.03,3.84-1.94,5.6-3.21
		c2.02-1.45,3.01-3.59,2.75-6.15c-0.19-1.81-0.35-3.64-0.7-5.42c-0.81-4.09-1.93-8.12-2.55-12.23c-1.36-9.02-8.71-14.69-16.19-15.62
		c-3.3-0.41-6.67-0.37-10-0.35c-13.98,0.09-27.96,0.3-41.94,0.38c-4.63,0.03-8.83,1.3-12.72,3.71c-4.92,3.06-8.55,7.23-10.7,12.65
		c-2.71,6.85-5.49,13.66-8.14,20.54c-1.06,2.76-1.92,5.61-1.04,8.65c0.76,2.62,1.43,5.27,2.2,7.89c0.77,2.6,1.47,5.08,1.08,7.95
		c-0.75,5.48-0.96,11.04-1.36,16.56c-0.15,2.09-0.22,4.19-0.32,6.21c2.7,0.61,7.09,0.6,8.77,0.06c0.17-2.35,0.31-4.69,0.51-7.02
		c0.73-8.41,2.89-16.44,6.57-24.03c4.96-10.23,12.02-18.6,22.06-24.2c7.22-4.03,15-5.87,23.23-5.22c9.55,0.76,17.93,4.5,25.05,10.88
		C424.41,339.26,426.77,341.95,429.6,344.84z M613.39,375.47c-3.52,0-7-0.02-10.48,0.01c-2.88,0.02-5.77,0.09-8.65,0.14
		c-0.3,0.01-0.61,0.02-0.91,0.04c-2.12,0.14-4.23,0.36-6.35,0.39c-1.49,0.02-2.98-0.37-4.47-0.35c-6.91,0.09-13.82,0.33-20.73,0.39
		c-11.39,0.1-22.77,0.13-34.16,0.12c-6.2-0.01-12.39,0.42-18.6,0.41c-8.96-0.02-17.92,0.26-26.88,0.41
		c-6.23,0.1-12.45,0.17-18.68,0.27c-0.58,0.01-1.17,0.12-1.66,0.17c0.37,3.4,0.89,6.63,1.02,9.87c0.13,3.3-0.14,6.61-0.24,10.13
		c0.78,0,1.37-0.01,1.97,0c16.17,0.16,32.35-0.35,48.52,0.07c5.31,0.14,10.63-0.22,15.95-0.33c16.1-0.34,32.2-0.67,48.31-0.99
		c11.39-0.23,22.79-0.45,34.18-0.61c1.66-0.02,2.71-0.58,3.34-2.13c1.53-3.77,1.73-7.66,1.33-11.64c-0.1-1-0.81-1.14-1.53-1.4
		c-0.17-0.06-0.27-0.32-0.45-0.56c0.42-0.24,0.79-0.46,1.3-0.75C614.85,377.99,614.22,376.9,613.39,375.47z M215.75,359.28
		c2.71,0.21,5.12,0.4,7.53,0.58c6.66,0.5,13.31,0.99,19.97,1.5c0.87,0.07,1.53-0.13,2.24-0.75c8.21-7.17,17.91-10.73,28.68-11.32
		c9.58-0.53,18.74,1.42,27.25,5.94c12.36,6.56,20.94,16.35,25.12,29.83c0.13,0.42,0.3,0.82,0.5,1.37c1.84,0,3.61,0,5.4,0
		c0.05-0.47,0.08-0.76,0.1-1.06c0.53-6.5,0.95-13.01,1.64-19.5c0.37-3.5,0.71-6.91-0.86-10.22c-0.13-0.27-0.24-0.57-0.27-0.87
		c-0.1-1.33-0.92-2.17-1.84-3c-4.64-4.18-9.61-7.92-15.05-10.99c-18.81-10.6-38.82-14.96-60.27-11.14
		c-9.93,1.77-19.06,5.58-26.97,11.99C223.16,346.33,218.69,351.98,215.75,359.28z M313.95,380.62c-2.4-4.02-5.19-7.21-8.51-9.9
		c-1.97-1.6-4.14-2.81-6.76-2.99c-12.27-0.86-24.53-1.71-36.8-2.6c-14.46-1.05-28.92-2.12-43.38-3.2
		c-13.62-1.02-27.26-1.92-40.86-3.18c-5.76-0.53-10.27,1.32-14.05,5.4c-1.29,1.39-2.56,2.84-3.53,4.45
		c-1.87,3.08-3.53,6.29-5.41,9.69c0.79,0.05,1.21,0.1,1.64,0.11c4.25,0.09,8.5,0.19,12.75,0.26c9.87,0.16,19.74,0.31,29.61,0.46
		c9.79,0.15,19.59,0.31,29.38,0.45c14.73,0.22,29.46,0.45,44.19,0.65c8.66,0.12,17.31,0.2,25.97,0.31c0.61,0.01,1.21,0.09,1.82,0.09
		C304.54,380.63,309.08,380.62,313.95,380.62z M263.5,219.19c-7.26,17.26-12.23,34.67-14.1,53.01c0.64,0.12,1,0.23,1.37,0.25
		c5.24,0.16,10.47,0.3,15.71,0.44c5.85,0.16,11.69,0.3,17.54,0.45c6.38,0.16,12.75,0.31,19.13,0.46c8.66,0.21,17.31,0.44,25.97,0.6
		c1,0.02,2-0.31,3.55-0.56C309.43,255.48,286.64,237.47,263.5,219.19z M143.47,276.13c-0.12-0.09-0.24-0.18-0.36-0.27
		c-0.7,0.45-1.4,0.89-2.09,1.35c-28.46,18.66-56.92,37.32-85.38,55.98c-7.81,5.12-15.62,10.26-23.45,15.36
		c-0.95,0.62-1.59,1.19-1.49,2.51c0.61,8.63,6.43,14.84,15.08,15.97c1.25,0.16,2.52,0.63,3.8-0.02c0.17-0.53,0.34-1.03,0.5-1.53
		c2.85-8.68,7.35-16.33,14.28-22.4c6.42-5.63,13.84-9.06,22.47-9.33c3.31-0.1,6.63,0.28,10.3,0.45
		C112.41,315.04,127.94,295.58,143.47,276.13z M154.87,272.74c0.81,4.74,22.29,79.05,23.34,80.74
		c8.51-17.03,20.38-31.04,36.51-41.63C194.69,298.77,174.96,285.87,154.87,272.74z M22.59,348.21c3.07,0.33,5.53-0.04,8.11-1.74
		c34.92-23.04,69.92-45.94,104.91-68.88c0.66-0.43,1.29-0.89,1.94-1.34c-0.06-0.11-0.12-0.22-0.19-0.32
		c-36.2,14.57-72.4,29.14-108.63,43.72c0,0.58-0.02,0.95,0,1.32c0.17,2.96,0.37,5.91,0.51,8.87c0.13,2.71-0.13,2.96-2.86,3.15
		c-1.41,0.1-2.82,0.18-4.42,0.29C22.18,338.44,22.38,343.33,22.59,348.21z M246.3,272.33c0.09-0.52,0.17-0.96,0.24-1.4
		c1.02-6.13,1.81-12.32,3.12-18.39c2.54-11.74,6.23-23.14,11.05-34.17c0.85-1.94,2.18-2.8,4.23-2.73c2.43,0.08,4.85,0.2,7.28,0.24
		c5.85,0.09,11.7,0.12,17.55,0.24c3.03,0.06,6.07,0.22,9.09,0.46c1.11,0.09,2.25,0.4,3.28,0.83c2.97,1.23,5.71,2.88,8.03,5.11
		c5.69,5.49,11.3,11.04,16.96,16.55c3.75,3.65,7.51,7.3,11.32,10.9c2.61,2.47,5.04,5.07,6.59,8.36c1.67,3.57,1.95,7.14-0.07,10.7
		c-0.12,0.2-0.13,0.47-0.25,0.95c6.75-2.46,13.19-4.81,19.94-7.27c-2.63-3.78-4.97-7.32-7.48-10.74
		c-8.78-11.91-18.6-22.86-30.19-32.14c-4.63-3.71-9.5-7.09-15.04-9.35c-0.97-0.4-2.02-0.75-3.05-0.79
		c-4.4-0.19-8.81-0.37-13.21-0.35c-11.17,0.05-22.34,0.22-33.51,0.28c-1.3,0.01-2.13,0.35-2.69,1.55c-1.03,2.2-2.26,4.31-3.19,6.55
		c-6.38,15.31-11.31,31.08-14.77,47.31c-0.5,2.35-0.8,4.75-1.22,7.31C242.5,272.33,244.37,272.33,246.3,272.33z M228.9,281.82
		c-2.66,1.9-5.14,3.63-7.56,5.42c-0.85,0.63-1.65,0.57-2.47,0.1c-3.41-1.96-6.82-3.92-10.19-5.95c-1.09-0.66-2.03-0.69-3.2-0.23
		c-4.1,1.6-8.23,3.1-12.35,4.65c-0.39,0.15-0.76,0.36-1.25,0.6c0.3,0.19,0.4,0.31,0.51,0.33c11,1.39,21.99,2.77,32.99,4.17
		c8.81,1.12,17.61,2.33,26.43,3.37c9.04,1.07,18.03,2.59,27.17,2.8c9.49,0.21,18.97,0.6,28.46,0.9c5.84,0.18,11.69,0.35,17.53,0.52
		c2.58,0.07,5.16,0.11,7.74,0.2c6.9,0.25,13.8,0.53,20.71,0.8c-0.47-0.49-0.99-0.74-1.54-0.9c-4.82-1.37-9.64-2.73-14.46-4.08
		c-6.94-1.94-13.89-3.88-20.83-5.81c-0.71-0.2-1.71-0.21-1.64-1.22c0.08-1.14-0.77-1.4-1.41-1.84c-3.94-2.71-7.95-5.32-11.84-8.11
		c-1.28-0.92-2.2-0.81-3.48-0.1c-5.65,3.11-11.36,6.11-17.03,9.2c-1.27,0.69-2.27,0.7-3.55-0.15c-5.18-3.45-10.46-6.76-15.67-10.16
		c-0.99-0.64-1.82-0.86-2.91-0.21c-1.1,0.66-2.34,1.08-3.5,1.63c-6.05,2.82-12.12,5.62-18.15,8.48c-1.93,0.92-1.89,1-3.53-0.34
		C232.3,284.59,230.72,283.3,228.9,281.82z M266.64,218.12c-0.02,0.14-0.04,0.28-0.07,0.42c0.44,0.39,0.87,0.8,1.33,1.16
		c7.2,5.7,14.41,11.38,21.62,17.08c14.35,11.34,28.7,22.68,43.06,34.01c3.12,2.46,3.19,2.45,6.47,0.29
		c0.63-0.41,1.24-0.89,1.78-1.42c2.28-2.25,3.18-4.89,2.29-8.08c-1.09-3.9-3.63-6.77-6.44-9.48c-3.99-3.84-7.98-7.68-11.95-11.54
		c-5.71-5.56-11.31-11.24-17.14-16.67c-3.07-2.85-6.6-5.15-11.03-5.38c-1.35-0.07-2.72,0.09-4.08,0.07
		c-7.82-0.14-15.63-0.3-23.45-0.45C268.23,218.11,267.44,218.12,266.64,218.12z M328.18,213.43c1.04,0.75,1.66,1.19,2.26,1.64
		c0.61,0.45,1.24,0.88,1.82,1.37c15.71,12.96,29.46,27.58,39.18,45.88c-0.01,0,0.21,0.08,0.43,0.08c9.35,0,18.7,0,28.04-0.03
		c0.77,0,1.53-0.23,2.54-0.39c-0.78-0.89-1.31-1.52-1.86-2.14c-7.08-7.83-14.17-15.65-21.26-23.48
		c-6.22-6.87-12.45-13.73-18.67-20.59c-0.51-0.57-0.98-1.06-1.88-1.08c-3.26-0.09-6.52-0.26-9.78-0.44
		c-4.7-0.26-9.39-0.59-14.09-0.81C332.85,213.35,330.77,213.43,328.18,213.43z M508.37,296.91c-0.76-0.07-1.05-0.11-1.34-0.12
		c-7.06-0.07-14.12-0.07-21.17-0.24c-1.86-0.04-3.04,0.55-4.19,2.02c-12.32,15.79-24.72,31.53-37.08,47.29
		c-0.2,0.26-0.3,0.6-0.55,1.1c1,0,1.76,0,2.51,0c7.36,0,14.73-0.07,22.09,0.04c1.8,0.03,2.86-0.58,3.9-1.99
		c9.94-13.4,19.95-26.76,29.93-40.13C504.38,302.34,506.25,299.78,508.37,296.91z M99.93,335.27c0.49,0.26,0.8,0.46,1.14,0.59
		c8.32,3.13,14.72,8.66,19.8,15.84c3.49,4.94,5.95,10.39,7.75,16.15c0.13,0.42,0.39,0.8,0.77,1.55c0.26-1.82,0.47-3.17,0.65-4.52
		c1.58-11.96,3.15-23.92,4.74-35.88c1.48-11.13,2.99-22.26,4.45-33.4c0.34-2.63,0.5-5.28,0.85-7.91c0.15-1.11,0.56-2.19,0.85-3.28
		c-0.1-0.04-0.19-0.09-0.29-0.13C127.09,301.25,113.55,318.21,99.93,335.27z M187.08,262.6c8.85-6.44,55.2-44.18,56.19-45.81
		c-1.4,0.07-2.67,0.16-3.95,0.18c-12.68,0.16-25.36,0.31-38.04,0.45c-1.52,0.02-3.04,0.01-4.56-0.06c-0.99-0.04-1.56,0.38-1.9,1.26
		c-0.61,1.55-1.21,3.11-1.88,4.64c-3.94,9.04-7.91,18.07-11.84,27.12c-0.19,0.44-0.35,1.09-0.17,1.48
		C182.62,255.59,184.52,259.2,187.08,262.6z M363.93,215.11c-0.05,0.16-0.1,0.31-0.15,0.47c0.59,0.68,1.18,1.38,1.78,2.05
		c5.35,5.91,10.7,11.81,16.05,17.72c7.7,8.49,15.41,16.96,23.08,25.48c0.89,0.99,1.81,1.38,3.14,1.38
		c8.73-0.06,17.47-0.03,26.2-0.04c0.56,0,1.12-0.08,1.98-0.15c-0.59-0.63-0.93-1.02-1.3-1.37c-4.3-4.18-8.6-8.36-12.9-12.54
		c-10.37-10.13-20.75-20.26-31.1-30.42c-0.94-0.92-1.95-1.27-3.23-1.33c-5.23-0.24-10.45-0.57-15.67-0.85
		C369.19,215.33,366.56,215.23,363.93,215.11z M244.7,219.96c-0.15-0.11-0.3-0.23-0.45-0.34c-18.57,14.96-37.13,29.91-55.83,44.98
		c1.44,1.5,2.7,2.7,3.84,4.02c1.41,1.63,3.2,2.59,5.24,2.98c2.38,0.46,4.79,0.96,7.19,0.99c8.12,0.12,16.25,0.04,24.37,0.02
		c0.57,0,1.14-0.13,1.6-0.18C232.26,253.98,238.19,236.89,244.7,219.96z M474.18,346.84c0.8,0.06,1.16,0.11,1.51,0.11
		c7.06,0,14.13-0.03,21.19,0.03c1.21,0.01,1.93-0.43,2.63-1.36c11.76-15.57,23.55-31.11,35.33-46.67c0.38-0.5,0.69-1.06,1.26-1.94
		c-8.47,0-16.5,0-24.69,0C499.15,313.41,486.8,329.94,474.18,346.84z M441.46,375.9c0.12,1.66,0.21,2.94,0.29,4.21
		c0.89,14.64-1.99,28.42-9.59,41.05c-5.54,9.21-12.99,16.38-22.95,20.75c-0.29,0.13-0.54,0.35-1.04,0.69
		c6.11,0,11.89-0.19,17.65,0.07c3.54,0.16,6.35-1.06,9.04-3.05c4.22-3.12,7.53-7.06,10.31-11.45c7.06-11.13,10.93-23.32,11.67-36.47
		c0.27-4.78-0.1-9.54-1.48-14.38C450.77,377.23,446.08,378.23,441.46,375.9z M175.95,356.34c-8.07-28.13-16.01-55.84-23.96-83.54
		c-0.17-0.01-0.34-0.03-0.52-0.04c-2.57,4.19-5.15,8.38-7.7,12.58c-0.31,0.51-0.58,1.11-0.64,1.69c-0.15,1.49-0.4,3.03-0.2,4.49
		c0.22,1.54,0.95,3,1.4,4.52c2.26,7.64,4.49,15.29,6.73,22.93c3.14,10.7,6.27,21.41,9.41,32.11c0.72,2.44,1.87,4.64,3.64,6.48
		c0.63,0.66,1.34,1.35,2.37,0.79C169.29,356.82,172.28,356.11,175.95,356.34z M133.38,274.79c-0.05-0.17-0.1-0.34-0.16-0.51
		c-35.31,7.73-70.63,15.46-105.96,23.19c0.41,6.51,0.81,12.88,1.23,19.53C63.67,302.85,98.53,288.82,133.38,274.79z M393.55,217
		c0.79,0.83,1.33,1.44,1.91,2c5.7,5.57,11.41,11.14,17.11,16.71c8.58,8.39,17.17,16.76,25.72,25.17c0.93,0.92,1.9,1.3,3.22,1.29
		c7.44-0.06,14.89-0.03,22.33-0.04c0.56,0,1.12-0.1,2.05-0.19c-1.26-1.11-2.21-1.95-3.17-2.79c-15.36-13.46-30.72-26.91-46.06-40.39
		c-0.68-0.59-1.35-0.86-2.23-0.9c-5-0.26-9.99-0.59-14.99-0.84C397.63,216.92,395.81,217,393.55,217z M178.92,247.23
		c0.17,0.02,0.35,0.05,0.52,0.07c0.43-0.93,0.88-1.85,1.3-2.78c3.95-8.96,7.91-17.91,11.81-26.89c0.69-1.59,1.61-2.34,3.42-2.37
		c7.97-0.1,15.94-0.38,23.92-0.5c8.81-0.13,17.63-0.17,26.44-0.23c3.57-0.02,3.75,0.3,2.37,3.59
		c-5.78,13.82-10.56,27.96-13.48,42.69c-0.76,3.84-1.38,7.71-1.34,11.71c1.17,0,2.21,0,3.27,0c3.8-21.77,10.32-42.6,19.52-62.81
		c-1.01,0-1.83-0.01-2.65,0c-15.12,0.13-30.24,0.27-45.36,0.37c-8.89,0.06-17.78,0.1-26.67,0.08c-1.5,0-2.35,0.44-2.89,1.92
		c-0.88,2.42-2.07,4.73-3,7.14c-0.45,1.18-0.77,2.47-0.87,3.73c-0.52,6.51,0.44,12.87,2.14,19.14
		C177.84,243.81,178.4,245.51,178.92,247.23z M129.34,272.64c-0.02-0.13-0.05-0.27-0.07-0.4c-3.76,0.25-7.52,0.51-11.29,0.74
		c-13.04,0.77-26.07,1.54-39.11,2.29c-11.29,0.65-22.59,1.29-33.88,1.93c-10.48,0.59-19.53,7.39-23,17.29
		c-0.16,0.46-0.22,0.96-0.39,1.74C57.7,288.32,93.52,280.48,129.34,272.64z M428.29,349.83c-9-15.01-26.43-24.02-42.24-19.99
		c-3.09,5.83-9.88,21.61-9.98,23.21c0.15-0.04,0.3-0.05,0.44-0.12c7.12-3.42,14.39-4,21.84-1.14c0.6,0.23,1.34,0.21,2,0.16
		c6.59-0.46,13.17-0.95,19.76-1.44C422.74,350.31,425.36,350.07,428.29,349.83z M344.5,389.65c-1.04-0.11-1.94-0.26-2.84-0.3
		c-4.78-0.17-9.56-0.37-14.34-0.45c-11.32-0.19-22.64-0.31-33.95-0.47c-10.94-0.15-21.88-0.31-32.81-0.45
		c-11.39-0.16-22.79-0.31-34.18-0.46c-5.39-0.07-10.79-0.13-16.18-0.2c-11.93-0.15-23.85-0.32-35.78-0.46
		c-9.34-0.11-18.69-0.19-28.03-0.28c-0.53-0.01-1.06-0.08-1.59-0.09c-4.25-0.05-8.51-0.09-12.76-0.12c-0.28,0-0.56,0.17-0.89,0.27
		c0,1.32,0,2.58,0,4.28c71.19,0.63,142.27,0.56,213.55,0.98C344.61,391.03,344.56,390.39,344.5,389.65z M141.8,302.81
		c-0.17,0.01-0.35,0.03-0.52,0.04c-3.33,24.91-6.65,49.82-10,74.88c6.22,0.12,12.53,0.61,19.03,0.61
		C147.45,352.98,144.63,327.89,141.8,302.81z M419.8,218.2c0.55,0.62,0.72,0.85,0.92,1.02c15.92,13.96,31.85,27.91,47.76,41.88
		c0.8,0.7,1.66,0.91,2.7,0.9c5.47-0.03,10.94-0.01,16.4-0.02c0.48,0,0.96-0.11,1.77-0.21c-0.66-0.58-1.03-0.94-1.44-1.25
		c-14-10.68-28.03-21.32-42-32.04c-4.85-3.72-10-6.85-15.67-9.12C427,218.06,423.64,218.42,419.8,218.2z M323.86,386.03
		c-2.58-12.17-14.34-26.69-31.78-32.4c-17.03-5.58-34.82-0.6-43.75,7.95c0.6,0.1,1.1,0.22,1.6,0.25c7.41,0.54,14.83,1.05,22.24,1.59
		c7.94,0.58,15.88,1.21,23.82,1.76c4.32,0.3,8.4,1.12,11.82,4.05c2.78,2.39,5.32,4.97,7.39,8.01c2,2.93,4.01,5.86,6.11,8.93
		c0.47,0,1.07,0.02,1.67-0.01C323.28,386.16,323.57,386.08,323.86,386.03z M592.06,297.22c7.42,16.54,13.3,33.42,20.66,49.74
		c2.16-0.1,4.16-0.19,6.65-0.3c-0.64-0.73-0.89-1.22-1.28-1.42c-1.19-0.59-1.53-1.54-1.57-2.78c-0.22-6.9-0.49-13.8-0.72-20.7
		c-0.25-7.74-0.47-15.47-0.72-23.21c-0.02-0.65-0.18-1.29-0.29-2.04C607.19,296.75,599.79,296.98,592.06,297.22z M287.9,299.23
		c-0.05,0.14-0.1,0.29-0.15,0.43c18.7,4.54,34.9,13.67,49.19,26.66c1.12-2.74,2.21-5.24,3.17-7.79c2.72-7.25,7.67-12.45,14.53-15.91
		c0.42-0.21,0.78-0.51,1.17-0.77c-0.04-0.13-0.07-0.25-0.11-0.38C333.11,300.72,310.5,299.98,287.9,299.23z M182.34,287.43
		c-0.06,0.15-0.13,0.31-0.19,0.46c11.54,7.53,23.09,15.07,34.71,22.65c6.18-3.69,12.63-6.69,19.43-8.91
		c6.82-2.22,13.84-3.55,20.99-4.28c-0.02-0.15-0.04-0.31-0.05-0.46C232.27,293.75,207.31,290.59,182.34,287.43z M317.61,386.46
		c-1.29-3.23-1.29-3.22-4.2-3.28c-2.35-0.05-4.7-0.17-7.06-0.21c-10.1-0.16-20.2-0.31-30.3-0.46c-9.57-0.15-19.14-0.31-28.71-0.45
		c-11.85-0.17-23.7-0.3-35.55-0.47c-7.75-0.12-15.49-0.32-23.24-0.43c-11.92-0.18-23.85-0.31-35.77-0.47
		c-3.34-0.05-6.68-0.11-10.02-0.19c-3.85-0.1-7.7-0.22-11.62-0.34c0,1.32,0,2.41,0,3.62c2.31,0.13,4.49,0.32,6.67,0.36
		c11.39,0.18,22.79,0.32,34.18,0.47c10.86,0.15,21.72,0.3,32.58,0.45c11.47,0.16,22.94,0.3,34.41,0.46
		c10.86,0.15,21.72,0.31,32.58,0.45c14.43,0.18,28.87,0.34,43.3,0.51C315.69,386.47,316.51,386.46,317.61,386.46z M73.44,357.31
		c0.43-0.08,0.58-0.07,0.71-0.13c6.26-3.09,12.65-3.45,19.19-0.98c0.53,0.2,1.18,0.2,1.76,0.16c7.5-0.55,15-1.12,22.49-1.69
		c0.47-0.04,0.93-0.2,1.46-0.31c-8.08-13.22-23.41-20.91-36.6-17.6c-2.87,6.44-5.77,12.95-8.66,19.47
		C73.67,356.48,73.61,356.77,73.44,357.31z M107.9,385.7c-0.15-1.46-0.24-3.74-0.64-5.97c-1.03-5.87-3.35-11.16-7.38-15.63
		c-7.78-8.65-19.08-9.51-28.09-2.17c-3.05,2.48-5.43,5.51-7.24,8.98c-4.35,8.36-5.28,17.18-3.09,26.29
		c1.41,5.88,4.2,11.07,8.82,15.09c4.98,4.32,10.68,6.3,17.28,4.76c3.93-0.91,7.33-2.9,10.21-5.7
		C104.76,404.56,107.61,396.07,107.9,385.7z M359.79,389.56c-0.03,4.9,0.65,9.69,2.38,14.3c2.24,5.96,5.62,11.12,10.93,14.79
		c6.77,4.68,14.02,5.43,21.62,2.24c5.26-2.21,9.42-5.86,12.58-10.54c7.93-11.79,9.6-24.53,5.22-38.02
		c-1.82-5.6-4.94-10.45-9.59-14.13c-7.66-6.06-15.95-6.94-24.71-2.56c-4.15,2.07-7.51,5.13-10.27,8.84
		C362.39,371.9,359.8,380.32,359.79,389.56z M176.84,284.41c0.17-0.07,0.34-0.14,0.51-0.2c-1.87-17.83-3.74-35.67-5.61-53.5
		c-0.7,0.55-1.02,1.13-1.28,1.73c-4.92,11.34-9.84,22.67-14.72,34.02c-0.47,1.08-0.72,2.26-1.09,3.46
		C162.14,274.81,169.49,279.61,176.84,284.41z M434.93,363.87c-8.31-1.39-16.67-2.92-25.21-4.2c0.12,0.48,0.11,0.66,0.19,0.76
		c3.74,4.74,6.1,10.12,7.45,15.97c0.11,0.49,0.32,1.02,0.64,1.41c5.88,7.17,11.77,14.32,17.68,21.46c0.25,0.31,0.65,0.49,1.03,0.78
		C439.65,389.14,438.65,372.98,434.93,363.87z M418.05,391.59c-0.98,6.51-2.78,12.2-5.82,17.46c-0.21,0.37-0.3,0.85-0.33,1.29
		c-0.57,8.49-1.12,16.97-1.66,25.46c-0.04,0.57,0,1.14,0,2.08c1.01-0.54,1.74-0.89,2.43-1.31c8.66-5.38,14.74-13,19.24-22.02
		c0.56-1.13,0.33-1.94-0.33-2.91c-4.16-6.18-8.26-12.39-12.39-18.59C418.95,392.69,418.66,392.37,418.05,391.59z M105.08,433.13
		c0.03,0.17,0.06,0.35,0.1,0.52c2.64,0,5.29-0.14,7.92,0.04c2.96,0.2,5.56-0.62,7.91-2.3c1.79-1.27,3.6-2.56,5.19-4.06
		c6.51-6.16,11.16-13.55,14.03-22.04c1.27-3.75,1.96-7.6,1.62-11.84c-3.72,0-7.39,0-11.07,0
		C128.09,410.51,120.86,424.58,105.08,433.13z M403.76,419.34c-0.68,0.38-1.02,0.52-1.32,0.73c-2.66,1.93-5.52,3.45-8.67,4.43
		c-0.42,0.13-1,0.31-1.16,0.63c-0.58,1.21-1.67,1.17-2.71,1.28c-7.32,0.72-14.65,1.43-21.97,2.15c-1.19,0.12-2.37,0.27-3.67,0.42
		c7.77,9.84,23.47,15.78,35.8,12.45C401.27,434.25,402.49,426.97,403.76,419.34z M495.03,261.72c-0.76-0.62-1.26-1.06-1.78-1.46
		c-11.19-8.37-22.39-16.75-33.59-25.11c-2.62-1.95-5.35-3.77-7.84-5.87c-5.79-4.89-12.09-8.92-19.06-11.91
		c-2.87-1.23-5.79-2.25-8.97-2.4c-7.13-0.33-14.26-0.74-21.4-1.07c-8.73-0.4-17.46-0.73-26.19-1.13
		c-11.46-0.52-22.92-1.09-34.38-1.63c-5.92-0.28-11.84-0.58-17.76-0.83c-1.92-0.08-3.84-0.01-6.05-0.01
		c2.87,1.94,5.56,3.62,8.1,5.49c10.91,8.04,20.22,17.73,28.56,28.34c4.36,5.55,8.28,11.44,12.36,17.2c0.51,0.72,0.83,1.47,2.04,0.69
		c-2.18-5.24-5.32-9.89-8.79-14.29c-3.47-4.41-7.04-8.77-10.84-12.91c-3.8-4.14-7.87-8.02-11.92-11.92
		c-4.02-3.87-8.55-7.14-13.25-10.24c0.95-1.26,2-0.85,2.92-0.8c5.15,0.25,10.3,0.56,15.46,0.83c4.55,0.24,9.1,0.44,13.64,0.69
		c6.51,0.36,13.03,0.77,19.54,1.13c5.83,0.33,11.67,0.63,17.5,0.94c4.32,0.23,8.64,0.44,12.96,0.67c5.14,0.28,10.28,0.56,15.42,0.87
		c2.5,0.15,5.12-0.06,7.46,0.64c4.87,1.46,9.56,3.59,13.64,6.67c16.06,12.13,32.06,24.35,48.05,36.58
		C492.04,261.81,493.17,262.25,495.03,261.72z M126.68,398.58c0.25-0.84,0.41-1.27,0.49-1.72c1.2-6.54,1.45-13.11,0.42-19.68
		c-0.48-3.06-1.34-6.05-2.01-9.08c-0.22-1.03-0.77-1.44-1.85-1.61c-5.46-0.85-10.91-1.81-16.37-2.73c-1.36-0.23-2.73-0.44-4.22-0.68
		c0.12,0.44,0.12,0.61,0.21,0.72c3.21,4.05,5.27,8.64,6.48,13.65c0.17,0.7,0.56,1.4,1.01,1.96c4.64,5.7,9.32,11.38,13.99,17.06
		C125.36,397.1,125.91,397.7,126.68,398.58z M559.17,439.33c2.31-6.1,4.62-12.21,6.93-18.32c-0.12-0.11-0.24-0.23-0.36-0.34
		c-4.96,3.17-10.6,3.51-16.16,4.02c-5.44,0.5-10.89,0.77-16.34,1.16c-2.61,0.18-5.22,0.39-8.35,0.63
		c4.67,4.87,9.66,8.48,15.39,10.97C546.27,440.04,552.58,440.38,559.17,439.33z M430.94,347.02c0.08,0.23,0.16,0.45,0.24,0.68
		c1.04,0.15,1.92-0.5,2.81-0.91c1.17-0.55,1.98-0.36,2.71,0.72c0.81,1.19,1.81,2.25,2.61,3.45c0.68,1.01,1.53,1.35,2.7,1.28
		c2.35-0.13,4.7-0.23,7.05-0.25c14.59-0.08,29.17-0.13,43.76-0.19c2.05-0.01,4.11-0.08,6.15-0.01c1.19,0.04,1.94-0.37,2.65-1.35
		c6.15-8.48,12.35-16.93,18.54-25.39c3-4.11,6.02-8.21,9.02-12.31c0.45-0.62,0.84-1.2,1.78-1.2c2.5,0,5-0.12,7.5-0.13
		c9.19-0.07,18.38-0.14,27.58-0.18c6.69-0.03,13.37-0.02,20.06-0.05c1.59-0.01,3.19-0.06,4.77-0.17c1.97-0.15,2.15-0.09,2.92,1.71
		c3.83,8.93,7.65,17.86,11.48,26.78c1.58,3.68,3.17,7.36,4.73,10.96c6.39,0.08,8.27-0.13,9.55-1.25c-1.03,0-1.76,0-2.5,0
		c-1.6,0-3.19-0.01-4.79,0.02c-1.2,0.03-2.01-0.43-2.47-1.59c-0.51-1.27-1.17-2.47-1.69-3.73c-3.95-9.62-7.88-19.24-11.82-28.86
		c-0.74-1.81-1.51-3.61-2.29-5.48c-0.95,0-1.78,0-2.61,0c-17.32,0.05-34.65,0.11-51.97,0.16c-2.43,0.01-4.87,0.1-7.29-0.01
		c-1.52-0.07-2.5,0.44-3.42,1.68c-4.46,6.06-9.01,12.05-13.53,18.06c-4.47,5.95-8.98,11.88-13.4,17.86c-1,1.36-2.15,2.07-3.84,1.92
		c-0.53-0.05-1.06-0.01-1.6-0.01c-9.8,0-19.6-0.03-29.41,0.01c-8.36,0.03-16.71,0.1-25.07,0.22c-1.7,0.03-2.91-0.47-3.75-1.99
		c-0.58-1.04-1.33-1.98-2.07-3.06C434.24,345.34,432.59,346.18,430.94,347.02z M103.7,430.84c1.5-0.87,2.5-1.4,3.43-2.01
		c6.66-4.33,11.49-10.25,15.12-17.25c0.68-1.32,0.61-2.27-0.24-3.51c-3.43-5-6.74-10.08-10.11-15.13c-0.32-0.48-0.7-0.92-1.04-1.37
		c-0.19,0.11-0.28,0.14-0.29,0.18c-0.09,0.37-0.18,0.73-0.25,1.1c-0.83,4.42-2.18,8.66-4.38,12.61c-0.35,0.63-0.52,1.42-0.57,2.15
		c-0.46,5.89-0.88,11.79-1.31,17.69C103.94,426.96,103.84,428.6,103.7,430.84z M370.48,337.09c-0.83,0.57-1.15,0.76-1.44,1
		c-10.22,8.49-16.16,19.53-19.18,32.29c-0.14,0.59,0.02,1.34,0.27,1.92c1.58,3.62,3.22,7.21,4.85,10.8c0.3,0.67,0.67,1.32,1.23,2.41
		c0.23-1.05,0.39-1.62,0.47-2.19c1.02-7.27,3.5-13.97,7.85-19.91c0.83-1.14,1.33-2.34,1.59-3.71c0.82-4.4,1.68-8.8,2.53-13.19
		C369.23,343.54,369.8,340.57,370.48,337.09z M568.6,441.66c24.77-3.13,41.23-24.17,43.22-41.03c-3.32,0-6.64,0-10.03,0
		C597.14,419.41,587.04,433.66,568.6,441.66z M580.16,402.63c-0.92,2.02-1.4,3.68-2.34,5.02c-2.33,3.32-3.33,7.07-4.18,10.93
		c-0.46,2.07-1.05,4.11-1.57,6.17c-0.91,3.65-1.81,7.31-2.73,11.03c6.54-1.38,18.69-13.16,21.66-21
		C587.5,410.85,583.94,406.86,580.16,402.63z M48.73,369.78c-12.06-0.79-19.69-6.37-21.05-18.86c-1.64,0-3.13,0-4.97,0
		c0.23,2.47,0.33,4.8,0.68,7.1c0.78,5.08,2.36,9.9,5.52,14.04c4.6,6.03,10.65,8.45,18.25,7.19
		C47.69,376.12,48.19,373.07,48.73,369.78z M146.37,313.77c-0.12,0.03-0.23,0.05-0.35,0.08c2.3,20.4,4.6,40.8,6.91,61.2
		c0.17,0.02,0.33,0.05,0.5,0.07c2.07-5.73,5.47-10.56,9.91-14.7c-3.16-2.56-4.83-5.88-5.91-9.46c-3.52-11.68-6.9-23.41-10.35-35.12
		C146.88,315.14,146.61,314.46,146.37,313.77z M98.01,415.34c-0.27-0.06-0.36-0.1-0.41-0.08c-0.27,0.12-0.55,0.23-0.8,0.39
		c-4,2.6-8.35,4.18-13.08,4.81c-4.96,0.66-9.89,1.47-14.84,2.23c-0.84,0.13-1.66,0.35-2.88,0.61c8.64,7.16,18.04,10.52,28.95,9.79
		C95.99,427.08,97,421.2,98.01,415.34z M68.71,342.97c-1.4,1.2-2.46,2.03-3.42,2.96c-7.51,7.27-11.82,16.26-13.97,26.37
		c-0.13,0.61-0.02,1.38,0.24,1.94c1.66,3.5,3.39,6.96,5.11,10.43c0.12,0.23,0.34,0.41,0.63,0.75c0.12-0.41,0.21-0.6,0.23-0.8
		c0.62-6.54,2.62-12.6,6.29-18.09c0.53-0.79,0.81-1.79,1-2.74c1.21-6.03,2.37-12.07,3.54-18.11
		C68.51,344.95,68.56,344.22,68.71,342.97z M188.52,286.2c1.6-4.55,3.14-8.94,4.54-12.91c-2.35-2.41-4.51-4.42-6.43-6.64
		c-4.22-4.87-7.06-10.56-9.48-16.49c-0.18-0.43-0.46-0.82-0.7-1.23c-0.24,0.47-0.24,0.84-0.2,1.21c0.91,8.52,1.83,17.03,2.74,25.55
		c0.28,2.64,0.57,5.27,0.84,7.91c0.08,0.77,0.13,1.58,1.13,1.7C183.42,285.61,185.88,285.89,188.52,286.2z M536.45,419.42
		c0.1-0.13,0.2-0.27,0.3-0.4c-5.74-4.35-9.48-10.11-11.82-16.83c-4.22,0.13-8.19,0.26-12.32,0.39c0.99,5.15,2.57,9.7,4.81,14.04
		c0.41,0.79,1.01,1.02,1.82,1.09c2.12,0.19,4.23,0.45,6.34,0.66C529.21,418.72,532.83,419.07,536.45,419.42z M369.98,421.02
		c0.06-0.16,0.12-0.31,0.17-0.47c-5.75-4.39-9.43-10.2-11.78-16.93c-0.29-0.84-0.83-1.61-1.34-2.36c-2.43-3.58-4.87-7.14-7.33-10.69
		c-0.36-0.53-0.8-1-1.2-1.5c-0.15,0.05-0.31,0.1-0.46,0.16c0.14,1.07-0.02,2.33,0.5,3.17c0.81,1.32,0.93,2.68,1.09,4.1
		c0.21,1.88,0.46,3.76,0.76,5.63c0.95,5.9,2.94,11.43,5.92,16.61c0.44,0.77,0.77,1.64,1.92,1.69
		C362.15,420.59,366.06,420.82,369.98,421.02z M548.47,401.75c-1.49,5.22-2.92,10.23-4.4,15.41c6.04,2.69,11.71,2.29,17.53-0.85
		c-2.3-4.97-4.54-9.82-6.73-14.56C552.65,401.75,550.69,401.75,548.47,401.75z M344.48,285.56c6.03-6.39,11.89-12.6,17.75-18.81
		c-0.08-0.13-0.16-0.25-0.24-0.38c-9.19,3.34-18.39,6.68-27.76,10.09c0.36,0.43,0.51,0.68,0.73,0.87
		C338.06,280.01,341.16,282.69,344.48,285.56z M297.29,276.32c-2.65-0.72-31.73-1.3-33.64-0.69c5.4,3.48,10.65,6.86,15.87,10.21
		C285.43,282.67,291.16,279.6,297.29,276.32z M70.22,416.21c-4.8-3.91-8.1-8.63-10.33-14.16c-0.22-0.55-0.57-1.07-0.92-1.56
		c-2.45-3.47-4.91-6.93-7.38-10.38c-0.28-0.38-0.68-0.68-1.28-1.25c0.22,4.03,0.86,7.59,1.79,11.11c1.4,5.31,3.47,10.34,6.54,14.91
		c0.38,0.56,1.09,1.25,1.66,1.27C63.6,416.28,66.91,416.21,70.22,416.21z M433.71,361.22c0.13-0.16,0.26-0.32,0.38-0.47
		c-1.05-2.26-2.13-4.5-3.13-6.78c-0.63-1.44-1.49-1.95-3.15-1.8c-7.33,0.65-14.68,1.12-22.02,1.67c-0.73,0.05-1.44,0.21-2.74,0.4
		c1.79,1.1,2.71,2.39,4.44,2.67c7.27,1.17,14.52,2.43,21.78,3.64C430.75,360.79,432.23,361,433.71,361.22z M573.89,401.16
		c-5.99,0.21-11.62,0.09-17.3,0.57c1.29,3.93,5.42,12.44,6.61,13.64C568.27,411.95,571.58,407.21,573.89,401.16z M412.66,264.62
		c0.17,0.46,0.19,0.7,0.32,0.84c5.23,5.82,10.46,11.63,15.71,17.43c0.28,0.31,0.74,0.62,1.13,0.64c2,0.06,4.01,0.03,6.09,0.03
		c-0.14-0.44-0.15-0.61-0.23-0.7c-5.23-5.81-10.46-11.63-15.72-17.41c-0.33-0.37-0.86-0.76-1.31-0.78
		C416.7,264.57,414.75,264.62,412.66,264.62z M479.98,283.56c0.06-0.15,0.13-0.31,0.19-0.46c-5.44-6.02-10.88-12.03-16.33-18.04
		c-0.24-0.27-0.6-0.59-0.92-0.59c-2.06-0.03-4.14-0.27-6.48,0.19c5.64,6.25,11.06,12.28,16.53,18.28c0.31,0.34,0.9,0.58,1.37,0.6
		C476.23,283.6,478.11,283.56,479.98,283.56z M502.33,283.56c0.06-0.15,0.13-0.31,0.19-0.46c-5.44-6.02-10.88-12.04-16.33-18.05
		c-0.24-0.27-0.6-0.59-0.92-0.6c-2.06-0.04-4.14-0.27-6.49,0.19c5.64,6.25,11.07,12.28,16.53,18.28c0.31,0.34,0.9,0.58,1.37,0.6
		C498.57,283.6,500.45,283.56,502.33,283.56z M458.18,283.55c-0.07-0.38-0.05-0.56-0.13-0.65c-5.33-5.92-10.66-11.84-16.02-17.74
		c-0.32-0.35-0.87-0.69-1.32-0.71c-1.93-0.08-3.87-0.03-5.84-0.03c0.08,0.4,0.06,0.57,0.14,0.66c5.32,5.93,10.64,11.86,15.99,17.77
		c0.28,0.31,0.73,0.65,1.11,0.67C454.12,283.59,456.13,283.55,458.18,283.55z M257.3,275.37c-0.04-0.16-0.08-0.32-0.12-0.48
		c-4.4,0-8.8,0.16-13.19-0.05c-2.97-0.14-5.47,0.53-7.8,2.35c-1.76,1.37-3.71,2.5-5.74,3.84c1.92,1.56,3.61,2.94,5.35,4.35
		C243.04,282.01,250.17,278.69,257.3,275.37z M418.42,381.97c-0.3,3.4-0.06,5.93,1.73,8.44c4.18,5.86,8.04,11.96,12.03,17.96
		c0.4,0.6,0.84,1.18,1.49,2.1c0.66-1.89,1.1-3.42,1.72-4.87c0.64-1.51,0.36-2.63-0.71-3.9c-4.41-5.22-8.7-10.52-13.04-15.8
		C420.69,384.74,419.74,383.57,418.42,381.97z M367.62,264.68c0.12,0.49,0.12,0.66,0.2,0.76c5.23,5.82,10.45,11.64,15.7,17.44
		c0.28,0.31,0.74,0.63,1.12,0.65c2,0.06,4.01,0.03,6,0.03c0-0.36,0.03-0.45,0-0.49c-5.27-5.88-10.53-11.77-15.84-17.62
		c-0.36-0.4-1.03-0.7-1.57-0.73C371.43,264.63,369.62,264.68,367.62,264.68z M390.13,264.68c-0.04,0.18-0.08,0.36-0.11,0.53
		c0.33,0.41,0.64,0.84,0.99,1.23c4.47,4.96,9.03,9.85,13.38,14.9c1.48,1.72,3.03,2.57,5.26,2.24c1.13-0.17,2.33,0.27,3.58-0.37
		c-5.21-5.78-10.29-11.41-15.37-17.04c-0.2-0.23-0.38-0.49-0.62-0.67c-0.41-0.31-0.86-0.78-1.31-0.8
		C394,264.63,392.06,264.68,390.13,264.68z M382.84,330.69c-2.98,0.7-5.33,2.03-7.75,3.22c-1.36,0.67-1.98,1.65-2.25,3.13
		c-1.16,6.33-2.43,12.65-3.64,18.97c-0.1,0.54-0.09,1.11-0.15,1.99c1.68-1.13,2.8-2.19,3.51-3.81c3.12-7.15,6.34-14.26,9.51-21.39
		C382.33,332.21,382.51,331.59,382.84,330.69z M525.39,283.57c-0.25-0.5-0.31-0.72-0.44-0.87c-4.97-5.51-9.94-11.02-14.92-16.52
		c-0.3-0.33-0.67-0.76-1.05-0.8c-2.2-0.27-4.4-0.72-6.78-0.46c0.18,0.4,0.22,0.63,0.36,0.78c5.16,5.75,10.32,11.49,15.53,17.2
		c0.35,0.38,1.03,0.63,1.57,0.66C521.46,283.62,523.28,283.57,525.39,283.57z M547.01,401.85c-5.37-0.04-10.5-0.89-14.3,3.55
		c-0.09,0.11-0.14,0.26-0.27,0.51c2.4,4.38,5.56,8.07,10.37,10.61C544.24,411.55,545.58,406.86,547.01,401.85z M20.81,300.06
		c-0.29,5.49,0.85,28.95,1.53,30.79c1.19-0.11,2.45-0.22,3.66-0.33c0.36-2.98-1.3-28.83-1.93-30.47
		C23.03,300.06,21.99,300.06,20.81,300.06z M328.68,277.18c-8.6-0.7-17.05-0.95-25.51-1.01c-0.04,0.16-0.08,0.31-0.12,0.47
		c4.54,3.09,9.08,6.17,13.62,9.26C320.77,282.93,324.72,280.06,328.68,277.18z M97.69,358.21c1.4,1.68,2.78,2.35,4.53,2.62
		c5.85,0.89,11.68,1.96,17.52,2.94c1.4,0.24,2.81,0.41,4.66,0.67c-0.99-2.16-1.76-3.95-2.62-5.7c-1.19-2.4-1.22-2.36-3.82-2.15
		c-3.71,0.31-7.42,0.57-11.13,0.86C103.89,357.69,100.95,357.94,97.69,358.21z M547.72,283.56c-0.21-0.48-0.24-0.64-0.33-0.74
		c-4.35-4.84-8.71-9.68-13.08-14.5c-0.29-0.32-0.68-0.68-1.08-0.77c-2.24-0.51-4.52-0.39-6.83-0.48
		c4.64,5.45,9.34,10.67,14.07,15.86c0.31,0.34,0.9,0.58,1.37,0.6C543.71,283.6,545.59,283.56,547.72,283.56z M67.32,361.92
		c1.78-1.05,2.67-2.17,3.3-3.61c2.76-6.31,5.6-12.59,8.39-18.89c0.26-0.58,0.45-1.2,0.68-1.8c-0.1-0.12-0.2-0.24-0.3-0.36
		c-2.04,0.92-4.05,1.91-6.12,2.75c-1.5,0.61-2.17,1.67-2.41,3.22c-0.37,2.39-0.9,4.76-1.36,7.14
		C68.8,354.09,68.1,357.8,67.32,361.92z M549.29,268.9c0.32,0.56,0.4,0.77,0.53,0.93c3.85,4.29,7.71,8.57,11.57,12.84
		c0.29,0.32,0.67,0.79,1.03,0.81c2.13,0.11,4.27,0.25,6.73-0.06c-4.15-4.59-7.99-8.87-11.88-13.11c-0.37-0.41-1-0.75-1.54-0.82
		C553.71,269.23,551.67,269.11,549.29,268.9z M221.04,275.37c-3.89,1.46-7.73,2.9-12.06,4.52c3.77,2.09,7.04,3.94,10.35,5.7
		c0.36,0.19,1.06,0.09,1.44-0.14c2.29-1.42,4.52-2.92,7-4.54C225.41,278.97,223.27,277.21,221.04,275.37z M110.99,382.98
		c-0.5,3,0.07,5.22,1.63,7.42c3.46,4.88,6.67,9.94,9.98,14.92c0.4,0.61,0.85,1.19,1.49,2.1c0.55-1.54,0.9-2.77,1.42-3.92
		c0.68-1.5,0.39-2.62-0.68-3.89c-4.16-4.91-8.2-9.93-12.3-14.9C112.12,384.21,111.66,383.73,110.99,382.98z M402.68,441
		c1.25-0.41,2.15-0.78,3.08-1c1.48-0.35,2.01-1.19,2.09-2.73c0.37-6.67,0.89-13.32,1.33-19.99c0.07-1.02,0.01-2.05,0.01-3.49
		c-1.3,1.32-2.47,2.12-2.74,3.8c-1.1,6.89-2.3,13.77-3.45,20.66C402.87,439.05,402.81,439.86,402.68,441z M528.66,402.04
		c-0.25,0.37-0.34,0.43-0.33,0.49c0.02,0.22,0.05,0.45,0.13,0.66c2,5.11,4.94,9.58,9.22,13.06c5.58,4.53,11.92,6.72,19.08,5.13
		c10.88-2.41,16.88-10,20.62-19.93c-0.85-0.37-1.48-0.48-1.84,0.4c-0.23,0.56-0.46,1.12-0.71,1.68
		c-2.91,6.62-7.29,11.91-14.07,14.79c-6.6,2.8-13.18,2.51-19.51-0.96c-5.32-2.92-8.96-7.39-11.46-12.86
		C529.44,403.73,529.09,402.96,528.66,402.04z M194.8,273.73c-1.33,3.81-2.59,7.4-4.02,11.47c5.15-1.92,9.75-3.65,14.76-5.52
		C201.76,277.59,198.4,275.73,194.8,273.73z M566.89,437.29c1.8-7.24,3.49-14.04,5.27-21.23c-1.7,1.07-2.78,2-3.35,3.53
		c-2.15,5.83-4.38,11.64-6.56,17.47c-0.17,0.45-0.23,0.94-0.45,1.81C563.81,438.24,565.45,437.73,566.89,437.29z M97.13,433.18
		c1.02-0.28,1.74-0.44,2.44-0.67c2.01-0.67,2-0.68,2.15-2.85c0.42-5.98,0.86-11.97,1.28-17.95c0.03-0.39-0.06-0.8-0.11-1.45
		c-1.52,1.23-2.39,2.37-2.65,4.1c-0.77,5.03-1.7,10.03-2.56,15.04C97.48,430.56,97.34,431.74,97.13,433.18z M543.87,423.04
		c-2.16-1.15-21.66-3.31-24.16-2.76c0.68,0.9,1.37,1.7,1.92,2.58c0.81,1.3,1.88,1.73,3.42,1.6
		C531.17,423.93,537.3,423.52,543.87,423.04z M356.01,395.68c0.15-0.05,0.31-0.11,0.46-0.16c-0.22-1.92-0.1-3.87-0.98-5.73
		c-1.88-3.96-3.66-7.98-5.49-11.97c-0.23-0.5-0.54-0.97-0.81-1.46c-0.16,0.02-0.32,0.04-0.49,0.06c-0.19,2.38-0.4,4.76-0.55,7.15
		c-0.02,0.34,0.18,0.74,0.38,1.04C351.01,388.31,353.51,391.99,356.01,395.68z M378.64,425.16c-2.58-1.45-15.18-2.6-19.46-1.92
		c0.69,0.94,1.32,1.74,1.9,2.59c0.54,0.79,1.25,0.98,2.16,0.88C368.2,426.19,373.17,425.7,378.64,425.16z M57.45,394.8
		c0.17-0.07,0.35-0.14,0.52-0.22c-0.36-1.61-0.47-3.32-1.13-4.79c-1.63-3.68-3.49-7.25-5.28-10.85c-0.21-0.42-0.52-0.79-0.79-1.18
		c-0.43,1.81-0.45,3.52-0.41,5.22c0.02,0.74-0.08,1.63,0.29,2.18C52.85,388.41,55.17,391.59,57.45,394.8z M594.31,408.31
		c0.8-2.72,1.48-5.01,2.17-7.33c-2.69-0.42-7.83-0.21-9.49,0.4C589.35,403.61,591.63,405.77,594.31,408.31z M217.13,275.37
		c-0.03-0.16-0.05-0.32-0.08-0.49c-5.54,0-11.07,0-17.11,0c2.56,1.42,4.7,2.63,6.87,3.78c0.34,0.18,0.89,0.21,1.26,0.08
		C211.1,277.64,214.12,276.5,217.13,275.37z M236.65,275.15c-3.62-0.48-11.64-0.35-13.17,0.19c1.91,1.56,3.78,3.08,5.71,4.66
		C231.62,278.42,233.95,276.9,236.65,275.15z M593.42,410.31c-3.13-2.97-6.1-5.77-9.06-8.58c-0.78-0.74-1.61-0.98-2.77-0.36
		c3.52,3.85,6.95,7.6,10.56,11.54C592.64,411.93,592.98,411.21,593.42,410.31z M591.24,283.55c-1.26-2.02-6.88-4.72-11.92-5.81
		c1.69,1.89,3.22,3.62,4.79,5.32c0.23,0.25,0.64,0.46,0.97,0.47C587.08,283.57,589.09,283.55,591.24,283.55z M61.71,418.53
		c1.8,2.94,1.88,2.98,4.71,2.5c0.6-0.1,1.2-0.17,1.79-0.26c2.9-0.45,5.79-0.91,8.95-1.41C75.1,418.29,67.2,417.92,61.71,418.53z
		 M531.66,404.45c1.02-0.8,1.78-1.4,2.81-2.2c-1.48,0-2.47,0-3.64,0C531.11,403.01,531.32,403.55,531.66,404.45z"/>
</g>
</svg>
