<?xml version="1.0" encoding="utf-8"?>
<!-- Generator: Adobe Illustrator 25.3.1, SVG Export Plug-In . SVG Version: 6.00 Build 0)  -->
<svg version="1.1" id="图层_1" xmlns="http://www.w3.org/2000/svg" xmlns:xlink="http://www.w3.org/1999/xlink" x="0px" y="0px"
	 viewBox="0 0 640 640" style="enable-background:new 0 0 640 640;" xml:space="preserve">
<style type="text/css">
	.st0{fill:#82B1FF;}
	.st1{fill:#DDB3FF;}
	.st2{fill:#A9CCFF;}
	.st3{fill:#9F9F9F;}
	.st4{fill:#FFEA96;}
	.st5{fill:#DBFBE4;}
	.st6{fill:#FFDCDA;}
	.st7{fill:#445B63;}
	.st8{fill:#EEFEF4;}
	.st9{fill:#C670DD;}
	.st10{fill:#FAA7A2;}
	.st11{fill:#C871DF;}
	.st12{fill:#A8F2E7;}
	.st13{fill:#FFFFFF;}
</style>
<g>
	<path class="st0" d="M385.13,329.17c3.4,0.15,6.4,0.26,9.4,0.41c6.52,0.33,13.03,0.69,19.55,1.03c10.42,0.53,20.83,1.05,31.25,1.57
		c10.99,0.54,21.98,1.08,32.97,1.62c2.11,0.1,4.22,0.23,6.32,0.34c0.86,0.04,1.72,0.02,2.02-1.02c0.23-0.79-0.22-1.66-1.29-2.09
		c-2.32-0.91-4.67-1.74-7.03-2.55c-19.32-6.63-39.11-11.57-59-16.06c-11.92-2.69-23.99-4.67-36.24-5.16
		c-3.58-0.14-7.17-0.08-10.75-0.11c-0.13,0-0.26,0-0.38,0.01c-1.87,0.12-2.5,1.2-1.56,2.85c1.4,2.44,2.88,4.84,4.32,7.25
		c3.64,6.1,7.3,12.18,10.9,18.3c4.37,7.43,8.7,14.89,13.04,22.35c2.69,4.63,6.53,7.82,11.7,9.31c0.66,0.19,1.41,0.35,2.06,0.24
		c0.44-0.08,1.05-0.63,1.12-1.04c0.07-0.42-0.34-1.05-0.73-1.37c-0.36-0.3-0.95-0.31-1.44-0.44c-2.78-0.72-5.26-2-7.34-3.99
		c-0.59-0.57-1.18-1.2-1.59-1.9c-3.68-6.22-7.32-12.47-10.97-18.71c-0.09-0.16-0.12-0.35-0.26-0.8c1.04,0.15,1.93,0.28,2.84,0.4
		c6.98,0.86,13.95,1.85,20.94,2.53c7.89,0.77,15.8,1.41,23.72,1.84c10.67,0.57,21.35,1.07,32.03,1.25
		c14.59,0.25,29.18,0.33,43.77,0.19c9.66-0.1,19.32-0.52,28.96-1.15c8.74-0.58,17.45-1.54,26.15-2.52c5.02-0.56,9.97-1.58,14.89-3.5
		c0.12,1,0.31,1.87,0.32,2.75c0.07,10.24,0.12,20.48,0.17,30.71c0,0.23-0.07,0.47-0.16,0.97c-0.47-0.52-0.77-0.9-1.11-1.24
		c-1.32-1.32-2.84-2.12-4.78-2.05c-6.26,0.24-12.53,0.48-18.8,0.67c-7.23,0.22-14.45,0.42-21.68,0.59
		c-11.13,0.25-22.26,0.45-33.39,0.7c-8.75,0.2-16.41,3.43-23.46,8.42c-1.76,1.24-3.71,2.29-5.71,3.11c-7.84,3.23-16,4.76-24.51,4.71
		c-20.61-0.13-41.22-0.14-61.83-0.21c-5.5-0.02-11.01-0.07-16.51-0.12c-0.56,0-1.11-0.07-1.76-0.12c0.17-3.36,0.45-6.6,0.49-9.84
		c0.24-18.13-3.44-35.33-12.33-51.25c-4.84-8.65-11.06-16.13-19.27-21.83c-4.35-3.02-9.02-5.48-14.2-6.54
		c-13.71-2.82-26.33-0.41-37.41,8.46c-7.73,6.18-13.05,14.17-16.99,23.13c-3.92,8.91-6.17,18.28-7.35,27.91
		c-0.11,0.89-0.22,1.78-0.34,2.66c-0.02,0.18-0.09,0.35-0.2,0.73c-0.62-0.47-1.18-0.86-1.71-1.28
		c-14.29-11.28-29.88-20.16-47.26-25.73c-12.22-3.92-24.72-6-37.59-5.45c-13.81,0.6-26.77,4.07-38.4,11.76
		c-2.61,1.72-4.99,3.78-7.47,5.69c-0.5,0.38-0.96,0.81-1.66,1.41c-2.41-7.39-5.68-14.11-11.46-19.61c1.8-1.14,3.43-2.2,5.1-3.22
		c1.31-0.8,2.7-1.48,3.96-2.35c5.13-3.55,10.9-4.81,17.02-5.11c9.42-0.46,18.81,0.27,28.18,0.89c9.95,0.66,19.88,1.71,29.82,2.54
		c5.61,0.47,11.22,0.87,16.84,1.25c8.04,0.54,16.09,1.03,24.13,1.56c4.98,0.33,9.96,0.64,14.93,1.08c1.8,0.16,2.96-0.37,3.96-1.93
		c2.14-3.34,4.48-6.55,6.74-9.81c0.22-0.32,0.45-0.62,0.65-0.95c0.75-1.25,0.53-1.74-0.87-1.91c-0.38-0.05-0.77-0.04-1.15-0.05
		c-6.59-0.08-13.18-0.15-19.77-0.23c-0.38,0-0.77,0-1.15,0c-0.62,0-1.25,0.09-1.24,0.86c0.01,0.75,0.69,0.83,1.27,0.87
		c0.64,0.05,1.28,0.04,1.92,0.05c5.7,0.06,11.39,0.11,17.09,0.17c0.5,0,1,0,1.74,0c-0.29,0.57-0.44,0.96-0.67,1.3
		c-1.99,2.9-4.04,5.76-5.98,8.7c-0.61,0.93-1.27,1.23-2.36,1.15c-4.53-0.35-9.06-0.61-13.59-0.92c-2.74-0.19-5.49-0.38-8.23-0.63
		c-0.6-0.06-1.28-0.24-1.74-0.6c-8.97-6.81-17.92-13.65-26.87-20.48c-0.18-0.14-0.32-0.34-0.75-0.79c0.94,0,1.54,0,2.15,0
		c6.4-0.01,12.8,0.09,19.2-0.07c11.58-0.29,23.12-1.14,34.62-2.58c12.2-1.53,24.28-3.66,36.12-6.98c3.75-1.05,7.42-2.4,11.19-3.37
		c5.47-1.4,11.07-2.01,16.7-2.31c4.47-0.24,8.94-0.35,13.42-0.41c1.04-0.01,2.18,0.26,3.11,0.72c6.82,3.39,13.67,6.73,20.34,10.39
		c2.55,1.4,5.03,1.94,7.84,1.85c2.75-0.09,5.5,0.02,8.25,0.03c0.62,0,1.23-0.06,1.96-0.1c-0.16-1.02-0.91-1.2-1.48-1.5
		c-2.67-1.39-5.35-2.75-8.03-4.11c-4.11-2.09-8.22-4.16-12.33-6.25c-0.54-0.27-1.06-0.59-1.5-1.22c0.54-0.05,1.08-0.14,1.62-0.14
		c4.29-0.04,8.58-0.12,12.86-0.07c0.98,0.01,2.05,0.25,2.93,0.69c7.33,3.66,14.67,7.29,21.89,11.17c2.03,1.09,3.97,1.54,6.19,1.5
		c3.07-0.05,6.14,0.03,9.22,0.05c0.62,0,1.24-0.05,1.97-0.08c-0.12-1.03-0.88-1.21-1.45-1.5c-3.18-1.65-6.37-3.28-9.57-4.9
		c-3.88-1.97-7.77-3.92-11.65-5.89c-0.55-0.28-1.08-0.61-2.03-1.15c0.86-0.1,1.26-0.18,1.66-0.19c4.67-0.05,9.34-0.12,14.02-0.09
		c0.98,0.01,2.05,0.25,2.92,0.68c7.61,3.8,15.24,7.58,22.75,11.59c1.96,1.05,3.83,1.54,5.99,1.5c3.13-0.07,6.27,0.03,9.41,0.04
		c0.61,0,1.22-0.07,1.92-0.12c-0.17-1.03-0.93-1.21-1.5-1.51c-3.35-1.74-6.72-3.45-10.08-5.16c-4.17-2.12-8.34-4.22-12.5-6.34
		c-0.5-0.25-0.98-0.53-1.41-1.11c4.66,0,9.32,0.02,13.98-0.01c4.29-0.02,8.58-0.12,12.86-0.13c0.74,0,1.48,0.26,2.22,0.42
		c0.18,0.04,0.36,0.19,0.54,0.2c3.28,0.15,5.86,2.11,8.64,3.47c4.94,2.41,9.83,4.95,14.73,7.45c0.5,0.25,0.97,0.57,1.79,1.05
		c-0.77,0.14-1.16,0.27-1.56,0.27c-2.62-0.02-5.25-0.09-7.87-0.09c-1.32,0-2.5-0.35-3.67-0.95c-6.84-3.5-13.69-6.97-20.54-10.42
		c-0.82-0.41-1.73-0.66-2.6-0.98c-0.07,0.14-0.14,0.28-0.21,0.41c0.37,0.24,0.72,0.5,1.11,0.7c6.84,3.48,13.69,6.96,20.54,10.43
		c0.17,0.09,0.36,0.15,0.51,0.26c2.53,1.95,5.44,2.25,8.52,2.11c2.62-0.12,5.25,0.02,7.87,0.03c0.62,0,1.23-0.05,1.98-0.09
		c-0.15-1.02-0.89-1.21-1.46-1.5c-3.7-1.91-7.41-3.78-11.12-5.67c-3.37-1.71-6.74-3.41-10.1-5.12c-0.33-0.17-0.64-0.38-1.33-0.81
		c0.79-0.07,1.19-0.15,1.58-0.13c4.99,0.22,9.97,0.43,14.96,0.7c0.8,0.04,1.64,0.3,2.37,0.67c6.81,3.41,13.65,6.77,20.35,10.38
		c2.02,1.09,3.96,1.57,6.18,1.53c3.01-0.06,6.02,0.03,9.02,0.05c0.68,0,1.37,0,2.17,0c-0.06-1.11-0.82-1.29-1.39-1.58
		c-2.84-1.48-5.69-2.93-8.54-4.38c-3.08-1.57-6.17-3.12-9.25-4.68c-0.45-0.23-0.89-0.47-1.74-0.93c0.81-0.1,1.19-0.2,1.58-0.18
		c1.41,0.05,2.82,0.24,4.22,0.2c4.11-0.14,7.98,0.77,11.76,2.31c15.11,6.12,28.67,14.65,40.41,26c0.78,0.76,1.49,1.58,2.25,2.36
		c0.38,0.39,0.91,0.74,1.3,0.2c0.21-0.29,0.11-0.94-0.07-1.33c-0.21-0.44-0.65-0.78-1-1.15c-6.93-7.3-14.99-13.15-23.54-18.37
		c-6.07-3.71-12.4-6.9-19.04-9.47c-0.34-0.13-0.67-0.3-1.02-0.82c2.09-0.27,4.17-0.61,6.26-0.79c4.46-0.39,8.93-0.98,13.4-0.96
		c6.12,0.04,12.32,0.14,18.02,2.91c1.17,0.57,2.25,1.42,3.22,2.31c5.67,5.17,11.31,10.37,16.93,15.59c1.63,1.52,3.17,3.14,4.79,4.75
		c-1.51,3.74-2.96,7.35-4.42,10.95c-1.17,2.91-2.36,5.81-3.53,8.71c-0.19,0.47-0.41,0.95-0.5,1.45c-0.21,1.17,0.44,1.92,1.61,1.75
		c0.87-0.13,1.75-0.41,2.54-0.8c3.15-1.57,6.26-3.21,9.38-4.83c0.39-0.2,0.79-0.37,1.23-0.57c2.11,3.62,3.78,7.3,4.12,11.49
		c-1.77,1.18-3.68,1.74-5.61,2.09c-5.41,0.97-10.81,2.11-16.27,2.62c-10.44,0.99-20.91,1.81-31.38,2.29
		c-17.71,0.82-35.44,0.92-53.17,0.49c-11.9-0.28-23.8-0.59-35.68-1.24c-10.66-0.58-21.31-1.53-31.95-2.54
		c-6.11-0.58-12.17-1.61-18.26-2.38c-1.45-0.18-2.43-0.72-3.12-2.1C387.72,333.39,386.47,331.46,385.13,329.17z"/>
	<path class="st1" d="M131.16,380.48c0.45-5.7,0.89-11.28,1.34-17.01c1.3,0.09,2.69,0.16,4.08,0.29c6.56,0.61,13.11,1.23,19.67,1.85
		c7.38,0.7,14.77,1.42,22.15,2.11c6.11,0.58,12.23,1.13,18.34,1.7c7.58,0.71,15.15,1.43,22.73,2.14c6.18,0.58,12.35,1.14,18.53,1.71
		c7.45,0.7,14.9,1.41,22.34,2.11c0.89,0.08,1.78,0.17,2.68,0.2c1.72,0.06,1.87-0.11,1.93-1.79c0.12-3.45,0.15-6.91,0.4-10.35
		c0.95-13.07,3.72-25.68,9.69-37.45c4.11-8.1,9.53-15.16,17.08-20.38c8.69-6.01,18.3-8.14,28.78-7.02
		c9.62,1.02,17.44,5.55,24.35,11.94c7.99,7.4,13.52,16.48,17.56,26.5c4.2,10.41,6.47,21.24,7.09,32.46
		c0.31,5.58,0.1,11.12-0.42,16.67c-0.26,2.82-0.19,2.83,2.56,2.84c3.14,0.01,6.27,0,9.41,0.01c23.16,0.09,46.33,0.16,69.49,0.29
		c7.76,0.04,15.28-1.17,22.6-3.7c0.47-0.16,0.95-0.29,1.85-0.56c-0.57,0.59-0.82,0.91-1.13,1.16c-3.21,2.65-6.43,5.27-9.62,7.95
		c-0.79,0.66-1.6,0.91-2.62,0.91c-34.43,0-68.86,0.03-103.28,0.05c-0.44,0-0.88-0.05-1.52-0.09c0.23-0.75,0.42-1.41,0.62-2.07
		c5.73-19.2,5.27-38.13-2.61-56.68c-3.32-7.82-8.08-14.67-14.69-20.12c-6.75-5.56-14.44-8.69-23.27-8.51
		c-7.54,0.16-14.23,2.85-20.27,7.26c-6.48,4.73-11.34,10.86-15.13,17.87c-4.68,8.66-7.37,17.94-8.51,27.7
		c-1.12,9.62-0.66,19.15,1.53,28.6c0.1,0.43,0.13,0.88,0.23,1.56c-1.59-0.07-3.1-0.11-4.6-0.22c-10.53-0.73-21.06-1.47-31.58-2.21
		c-8.23-0.58-16.46-1.2-24.69-1.77c-11.74-0.83-23.48-1.63-35.22-2.45c-7.98-0.56-15.95-1.16-23.92-1.73
		c-7.34-0.52-14.68-1.03-22.01-1.56C132.4,380.65,131.72,380.55,131.16,380.48z"/>
	<path class="st2" d="M263.56,362.76c-0.14,3.71-0.27,7.28-0.41,11.14c-43.71-4.09-87.27-8.17-130.97-12.26
		c-0.25-1.96-0.46-3.85-0.75-5.73c-0.26-1.7-0.44-3.45-0.96-5.08c-0.48-1.5,0.05-2.34,1.09-3.28c5.55-5.04,11.77-9.01,18.67-11.91
		c10.86-4.56,22.22-6.23,33.93-5.84c15.3,0.51,29.77,4.47,43.68,10.64c12.05,5.34,23.13,12.29,33.42,20.51
		C262.01,361.55,262.77,362.14,263.56,362.76z M252.77,369.59c-0.39-0.43-0.62-0.83-0.97-1.02c-0.94-0.54-1.93-1.01-2.91-1.47
		c-19.87-9.31-40.68-15.17-62.59-16.95c-10.05-0.82-20.07-0.66-30.01,1.23c-5.81,1.1-11.41,2.82-16.61,5.72
		c-0.56,0.31-1.15,0.6-1.61,1.03c-0.26,0.24-0.48,0.82-0.36,1.11c0.23,0.59,0.79,0.53,1.3,0.25c0.17-0.09,0.34-0.18,0.5-0.28
		c6.38-3.78,13.39-5.66,20.65-6.72c7.37-1.07,14.76-1.31,22.2-0.88c7.29,0.42,14.52,1.3,21.68,2.68
		c16.09,3.1,31.53,8.19,46.24,15.42c0.45,0.22,0.94,0.44,1.43,0.48C252,370.21,252.31,369.86,252.77,369.59z"/>
	<path class="st3" d="M284.84,338.05c1.79,0.16,3.38,0.48,4.95,0.4c4.78-0.25,8.32-2.69,10.82-6.66c2.52-4.01,3.18-8.44,2.62-13.09
		c-0.07-0.56-0.15-1.12-0.23-1.74c3.28-1.91,6.65-3.32,10.26-3.79c3.44,9.83,10.94,14.25,20.44,15.9c4.39,0.76,5.28,0.41,10.73-1.54
		c2.53,3.2,4.44,6.79,6.15,10.51c-0.1,0.19-0.15,0.4-0.29,0.51c-3.77,3.11-5.29,7.26-5.54,11.99c-0.35,6.52,1.51,12.38,5.43,17.58
		c0.84,1.12,1.83,2.15,2.86,3.1c0.98,0.9,2.11,1.65,3.33,2.59c-0.11,3.64-0.72,7.33-1.58,11.08c-6.77,0.9-12.02,4.04-14.99,10.29
		c-2.92,6.15-2.23,12.14,1.27,18.07c-2.08,2.38-4.45,4.57-7.24,6.5c-2.27-1.96-4.85-3.3-7.76-3.99c-4.4-1.04-8.75-0.92-13.05,0.52
		c-3.51,1.18-6.39,3.18-8.23,6.7c-2.92-1.2-5.42-2.88-7.72-4.77c1.92-8.35-0.7-15.29-5.96-21.43c-2.54-2.96-5.62-5.23-9.63-5.87
		c-0.64-0.1-1.04-0.36-1.17-1.04c-0.68-3.38-1.39-6.74-2.1-10.17c5.39-3.24,8.78-7.71,9.38-13.88c0.62-6.29-1.77-11.24-7.41-14.62
		C281.25,346.58,282.83,342.19,284.84,338.05z M341.51,366.93c0-5.68-0.86-11.22-2.78-16.57c-2.12-5.88-5.24-11.11-10.26-15
		c-7.23-5.6-15.98-5.54-23.19,0.07c-3.39,2.64-6.05,5.92-7.92,9.76c-7.02,14.35-7.03,28.83-0.39,43.31
		c1.86,4.06,4.6,7.53,8.15,10.29c7.3,5.65,16.1,5.62,23.35-0.07c3.38-2.65,5.93-5.99,7.91-9.77
		C339.99,382.05,341.47,374.66,341.51,366.93z"/>
	<path class="st4" d="M300.61,286.84c-0.86,0.29-1.43,0.52-2.03,0.69c-11.17,3.08-22.54,5.16-34.03,6.67
		c-9.71,1.28-19.46,2.12-29.23,2.56c-10.03,0.45-20.07,0.6-30.12,0.2c-9.27-0.37-18.52-0.96-27.73-2.07
		c-11.5-1.39-22.89-3.36-33.98-6.83c-0.67-0.21-1.34-0.43-2-0.66c-0.18-0.06-0.34-0.17-0.71-0.37c0.69-0.87,1.32-1.71,2.01-2.52
		c7.99-9.44,17.22-17.49,27.44-24.43c12.73-8.64,26.43-15.29,41.15-19.8c1.45-0.44,2.99-0.75,4.5-0.83
		c7.42-0.38,14.85-0.34,22.14,1.34c6.01,1.39,11.65,3.68,16.9,7.04c5.46,3.49,10.89,6.98,15.35,11.73
		c3.23,3.45,6.38,6.99,9.38,10.65c5.59,6.82,11.93,12.64,20.14,16.15C299.98,286.45,300.16,286.58,300.61,286.84z M217.23,290.59
		c12.86-0.13,26.27-0.74,39.59-2.65c6.71-0.96,13.37-2.19,19.87-4.15c0.55-0.16,1.13-0.31,1.61-0.6c0.89-0.54,0.99-1.8,0.09-2.19
		c-1.16-0.49-1.53-1.46-2.05-2.38c-5-8.76-11.15-16.55-19.22-22.68c-14.68-11.16-31.14-14.18-49-10.37
		c-10.89,2.32-20.78,7.02-30.08,13.06c-5.59,3.63-10.71,7.87-15.86,12.08c-1.76,1.44-2.51,2.99-2.84,5.07
		c-0.36,2.27-0.92,4.51-1.37,6.76c-0.39,1.94-0.05,2.4,1.87,2.67c0.44,0.06,0.88,0.14,1.33,0.21c6.88,1.09,13.73,2.37,20.64,3.23
		C193.37,290.08,205.01,290.49,217.23,290.59z"/>
	<path class="st2" d="M470.97,391.3c0.89-0.77,1.39-1.23,1.92-1.67c3.01-2.48,6.04-4.95,9.03-7.45c0.62-0.52,1.11-1.2,1.69-1.78
		c0.26-0.27,0.54-0.55,0.87-0.73c4.46-2.54,9-4.95,14.11-5.81c3.33-0.56,6.73-0.82,10.11-0.9c12.02-0.27,24.05-0.34,36.07-0.62
		c7.09-0.17,14.18-0.61,21.27-0.89c4.15-0.16,8.31-0.24,12.47-0.38c3.08-0.1,4.51,1.97,5.76,4.3c0.15,0.28,0.26,0.59,0.32,0.9
		c0.39,2.06,1.5,3.43,3.56,4.08c1.19,0.37,1.47,1.47,1.71,2.8c-2.62,0.54-5.15,1.15-7.72,1.58c-11.73,2.01-23.54,3.36-35.4,4.29
		c-10.39,0.81-20.78,1.65-31.19,2.19c-13.48,0.7-26.97,1.2-40.47,0.45C473.87,391.6,472.66,391.45,470.97,391.3z"/>
	<path class="st4" d="M376.97,274.32c-0.49,0.03-0.99,0.08-1.48,0.09c-6.46,0.06-12.92,0.11-19.38,0.18
		c-2.17,0.02-4.35,0.13-6.52,0.13c-0.52,0-1.15-0.15-1.56-0.46c-4.06-3.1-8.07-6.28-12.13-9.38c-11.93-9.14-23.88-18.26-35.82-27.39
		c-0.5-0.38-0.97-0.79-1.7-1.4c0.58-0.08,0.86-0.17,1.13-0.16c8.37,0.31,16.74,0.63,25.12,0.92c0.94,0.03,1.71,0.3,2.47,0.85
		c16.31,11.82,32.64,23.62,48.97,35.43c0.35,0.26,0.69,0.54,1.03,0.81C377.05,274.06,377.01,274.19,376.97,274.32z"/>
	<path class="st5" d="M373.87,309.72c3.43,0.11,6.55,0.11,9.67,0.32c17.35,1.15,34.31,4.52,51.09,8.94
		c8.89,2.34,17.81,4.61,26.67,7.06c4.43,1.22,8.77,2.78,13.14,4.19c0.35,0.11,0.68,0.3,1.43,0.64c-5.45-0.25-10.45-0.47-15.45-0.72
		c-6.7-0.34-13.41-0.7-20.11-1.05c-7.22-0.37-14.43-0.74-21.65-1.09c-11.18-0.55-22.35-1.1-33.53-1.62
		c-1.12-0.05-1.88-0.36-2.48-1.39c-2.73-4.77-5.54-9.5-8.31-14.25C374.23,310.53,374.14,310.3,373.87,309.72z"/>
	<path class="st6" d="M329.12,237.07c1.28,0,2.15-0.03,3,0c6.07,0.22,12.14,0.43,18.21,0.68c1.72,0.07,3.45,0.19,5.15,0.47
		c0.84,0.14,1.69,0.59,2.4,1.09c14.75,10.38,29.48,20.78,44.21,31.18c1.45,1.02,2.9,2.06,4.62,3.28c-0.69,0.13-1.03,0.25-1.37,0.25
		c-8.12,0.11-16.24,0.21-24.36,0.29c-0.42,0-0.94-0.04-1.26-0.27c-5.78-4.22-11.5-8.51-17.29-12.72
		c-10.55-7.67-21.14-15.3-31.71-22.94C330.28,238.05,329.88,237.68,329.12,237.07z"/>
	<path class="st7" d="M127.86,385.89c4.81,0.41,9.45,0.8,14.07,1.19c0,1.25,0.06,2.37-0.01,3.48c-0.1,1.52-0.12,3.09-0.48,4.55
		c-1.37,5.54-4.3,10.22-8.36,14.2c-0.46,0.45-1.19,0.85-1.8,0.86c-6.27,0.14-12.54,0.2-18.81,0.28c-0.11,0-0.23-0.07-0.41-0.14
		c0.04-0.16,0.04-0.38,0.14-0.48c5.71-5.58,9.06-12.5,11.16-20.05c3.76-13.5,3.82-27.03-0.12-40.52c-1.43-4.88-3.53-9.46-6.64-13.53
		c-2.12-2.78-4.62-5.13-7.77-6.72c-5.13-2.59-10.22-2.44-15.25,0.28c-2.97,1.61-5.41,3.85-7.5,6.48
		c-4.43,5.56-7.06,11.97-8.84,18.78c-0.35,1.36-0.65,2.73-1.03,4.38c-0.26-0.52-0.48-0.79-0.54-1.1c-1.22-6.78-1.5-5.12,0.92-11.71
		c2.05-5.57,4.91-10.72,9.04-15.03c1.67-1.74,3.51-3.39,5.51-4.73c8.29-5.56,17.57-4.89,25.09,1.67c4.13,3.6,7.05,8.09,9.24,13.05
		c2.74,6.2,4.22,12.72,4.77,19.47c0.67,8.25-0.06,16.35-2.25,24.32C127.93,385.12,127.93,385.38,127.86,385.89z"/>
	<path class="st8" d="M271.65,235.14c2.29,0,4.06-0.05,5.84,0.01c5.43,0.18,10.87,0.42,16.3,0.58c1.02,0.03,1.83,0.34,2.63,0.94
		c16,12.25,32.01,24.49,48.02,36.73c0.4,0.3,0.76,0.65,1.43,1.23c-8.29,0.27-16.22,0.53-24.08,0.79c-0.72-0.67-1.44-1.45-2.27-2.11
		c-15.3-12.21-30.62-24.4-45.93-36.6C273.05,236.28,272.52,235.85,271.65,235.14z"/>
	<path class="st0" d="M117.69,325.61c-0.59-1.98-0.83-3.77-0.65-5.67c0.51-5.24,2.02-10.12,4.87-14.58
		c3.86-6.04,8.51-11.34,14.49-15.37c0.63-0.43,1.3-0.8,2.11-1.3c6.9,8.67,13.76,17.3,20.91,26.28c-1.12,0-1.84-0.01-2.57,0
		c-5.56,0.1-11.13-0.02-16.66,0.36c-4.96,0.35-9.58,1.99-13.74,4.87C123.69,322.12,120.73,323.75,117.69,325.61z"/>
	<path class="st3" d="M121.11,374.78c-4.85,3.62-6.87,8.5-7.81,13.94c-0.53,3.07-0.48,6.11,0.97,9c0.17,0.33,0.14,0.91-0.04,1.24
		c-1.43,2.65-3.16,5.1-5.45,7.18c-6.24-5.27-12.96-6.62-20.59-2.8c-0.69-1.09-1.57-2.21-2.14-3.46c-1.22-2.67-2.28-5.41-3.41-8.12
		c-0.37-0.88-0.25-1.67,0.1-2.57c1.55-4,1.71-8.1,0.59-12.24c-0.49-1.81-1.3-3.45-2.59-4.86c-0.38-0.42-0.7-1.12-0.66-1.66
		c0.28-3.38,0.68-6.74,1.01-10.11c0.09-0.89,0.69-1.28,1.35-1.72c2.76-1.8,4.82-4.18,5.97-7.29c1.05-2.86,1.12-5.77,0.17-8.66
		c-0.32-0.98-0.22-1.67,0.38-2.47c1.91-2.51,3.97-4.83,6.81-6.36c0.42,1.05,0.68,2.05,1.19,2.91c1.77,3.01,4.59,4.34,7.95,4.65
		c2.41,0.23,4.71-0.24,6.85-1.41c0.38-0.21,0.78-0.39,1.36-0.68c1.14,1.99,2.24,3.9,3.37,5.88c-3.92,2.6-4.15,6.34-3.45,10.19
		c0.83,4.63,3.1,8.51,7.08,11.22c0.64,0.44,1.01,0.87,1,1.68C121.09,370.49,121.11,372.73,121.11,374.78z M113.55,369.15
		c-0.15-1.63-0.31-4.38-0.7-7.09c-0.56-3.88-1.67-7.62-3.56-11.09c-1.05-1.93-2.33-3.68-4.06-5.06c-3.3-2.62-7.04-2.82-10.45-0.38
		c-1.28,0.92-2.42,2.09-3.43,3.31c-1.94,2.34-3.17,5.09-4.17,7.95c-3.01,8.61-3.37,17.4-1.67,26.3c0.84,4.38,2.27,8.54,5.05,12.11
		c4.47,5.73,10.47,5.91,15.31,0.48c1.9-2.13,3.26-4.58,4.33-7.2C112.58,382.64,113.45,376.53,113.55,369.15z"/>
	<path class="st6" d="M248.44,234.22c0.74,0,1.35-0.02,1.97,0c5.37,0.17,10.74,0.38,16.11,0.51c1.48,0.03,2.67,0.48,3.83,1.41
		c15.94,12.75,31.92,25.45,47.88,38.17c0.49,0.39,0.95,0.81,1.77,1.52c-2.25,0.24-4.12,0.44-5.98,0.65
		c-2.4,0.28-4.84,0.26-7.16,1.11c-1.45,0.53-2.93,0.21-4.31-0.31c-3.8-1.45-7.09-3.45-9.65-6.88c-5.85-7.84-12.08-15.39-19.63-21.72
		c-3.05-2.55-6.22-4.92-9.76-6.75C258.57,239.37,253.62,236.86,248.44,234.22z"/>
	<path class="st8" d="M227.04,236.22c2.25-0.39,4.52-0.67,6.73-1.19c4.12-0.96,7.97-0.09,11.8,1.36c7.12,2.7,13.57,6.58,19.68,11.05
		c8.67,6.35,16.39,13.68,22.89,22.29c2.63,3.49,5.7,6.59,9.51,8.82c1.26,0.74,2.62,1.34,3.97,1.89c1.57,0.64,3.15,0.67,4.86,0.27
		c2.85-0.67,5.76-1.16,8.68-1.47c5.65-0.61,11.32-1.11,16.99-1.55c2.42-0.19,4.86-0.13,7.29-0.16c10.17-0.13,20.35-0.25,30.52-0.38
		c16.13-0.2,32.25-0.41,48.38-0.6c6.85-0.08,13.7-0.03,20.54-0.21c2.48-0.07,4.29,1.23,6.28,2.46c-0.6,0.04-1.2,0.1-1.81,0.11
		c-32.32,0.4-64.64,0.77-96.96,1.2c-6.91,0.09-13.81,0.36-20.72,0.65c-7.25,0.31-14.35,1.67-21.34,3.58
		c-1.2,0.33-2.23,0.27-3.32-0.25c-5.12-2.45-9.87-5.46-13.74-9.65c-3.55-3.86-6.98-7.83-10.38-11.83
		c-5.48-6.45-11.89-11.72-19.04-16.25c-6.13-3.89-12.56-6.88-19.64-8.39c-3.17-0.68-6.45-0.87-9.68-1.28c-0.5-0.06-1-0.12-1.5-0.17
		C227.06,236.42,227.05,236.32,227.04,236.22z"/>
	<path class="st1" d="M130.38,288.8c-0.63,0.24-1.25,0.49-1.88,0.71c-7.86,2.74-15.15,6.5-21.59,11.82
		c-6.01,4.97-10.83,10.86-13.64,18.23c-0.52,1.37-0.65,2.98-1.47,4.11c-0.78,1.07-2.27,1.61-3.37,2.47
		c-5.96,4.66-9.89,10.8-12.8,17.67c-0.39,0.92-0.77,1.84-1.49,2.72c-0.03-0.86-0.07-1.71-0.1-2.57c-0.23-7.88,0.79-15.58,3.69-22.95
		c5.32-13.53,15.06-22.6,28.44-27.91c7.57-3.01,15.5-4.28,23.61-4.61c0.17-0.01,0.35,0.04,0.52,0.06
		C130.32,288.63,130.35,288.72,130.38,288.8z"/>
	<path class="st4" d="M165.91,313.49c13.09-4.55,26.18-9.09,39.37-13.68c8.59,7.18,17.17,14.36,25.99,21.74
		c-0.62,0.09-0.96,0.2-1.28,0.17c-11.32-1.2-22.64-2.39-33.91-4.06c-9.42-1.4-18.92-2.31-28.38-3.43c-0.61-0.07-1.21-0.18-1.82-0.27
		C165.9,313.81,165.91,313.65,165.91,313.49z"/>
	<path class="st1" d="M201.46,299c-13.21,5.27-26.42,10.54-39.85,15.9c-6.66-8.37-13.32-16.74-19.98-25.11
		c0.07-0.12,0.14-0.24,0.21-0.36c19.41,5.92,39.4,8.13,59.57,9.14C201.43,298.71,201.44,298.85,201.46,299z"/>
	<path class="st8" d="M361.16,239.59c3.86,0.55,7.23,1.93,10.54,3.68c5.08,2.69,10.35,5.01,15.54,7.48
		c15.06,7.18,30.12,14.36,45.17,21.54c0.62,0.3,1.23,0.62,2.25,1.13c-0.84,0.11-1.24,0.2-1.64,0.21c-7.55,0.1-15.09,0.18-22.64,0.29
		c-0.66,0.01-1.22-0.01-1.7-0.6c-0.39-0.48-0.97-0.82-1.49-1.19c-14.68-10.37-29.37-20.73-44.05-31.09
		C362.47,240.57,361.82,240.08,361.16,239.59z"/>
	<path class="st7" d="M334.27,425.48c9.91-6.34,16.28-15.02,20.87-25.25c5.75,0,11.48,0,17.45,0c-0.2,0.72-0.32,1.39-0.56,2.01
		c-3.31,8.58-8.62,15.62-16.24,20.83c-2.25,1.54-4.63,2.48-7.49,2.38c-4.02-0.14-8.05,0.09-12.08,0.15
		C335.74,425.61,335.26,425.54,334.27,425.48z"/>
	<path class="st3" d="M537.45,398.58c-1.28,6.28-0.91,8.32,1.34,12.14c-1.39,2.26-4.33,5.3-6.87,7.05
		c-3.79-4.04-8.55-4.8-13.69-3.46c-5.12,1.34-8.85,4.24-9.59,9.96c-1.91,0.03-3.63-0.47-5.24-1.21c-1.91-0.87-3.71-1.99-5.57-2.99
		c-0.77-0.41-0.95-1.02-1.04-1.87c-0.75-6.64-4.17-11.7-9.53-15.51c-0.96-0.68-2.2-0.97-3.32-1.44c-0.42-0.17-0.84-0.34-1.26-0.5
		c0.01-0.17,0.03-0.34,0.04-0.51c0.83-0.13,1.66-0.36,2.49-0.36c2.24-0.01,4.48,0.11,6.71,0.11c0.83,0,1.2,0.44,1.64,1.06
		c1.26,1.76,2.45,3.62,3.97,5.15c8.74,8.86,22.13,8.55,30.47-0.71c1.48-1.65,2.64-3.6,3.85-5.47c0.45-0.7,0.86-1.18,1.75-1.2
		C534.87,398.8,536.14,398.67,537.45,398.58z"/>
	<path class="st5" d="M133.21,289.89c-0.57,0.5-0.98,0.87-1.4,1.23c-5.47,4.65-9.9,10.12-13.18,16.52
		c-2.08,4.06-2.92,8.43-3.28,12.91c-0.11,1.44,0.15,2.9,0.26,4.62c-6.67-4.48-13.69-5.5-21.37-2.39c0.21-0.8,0.3-1.33,0.48-1.84
		c2.31-6.54,6.29-11.95,11.36-16.59c7.6-6.94,16.57-11.41,26.31-14.45C132.57,289.85,132.77,289.89,133.21,289.89z"/>
	<path class="st6" d="M276.09,394.71c-48.62-3.51-97.26-6.54-146.05-10.31c0.21-1,0.37-1.78,0.55-2.66c0.91,0,1.73-0.05,2.55,0.01
		c9.19,0.64,18.38,1.28,27.56,1.94c8.29,0.59,16.59,1.23,24.88,1.81c11.61,0.82,23.23,1.6,34.84,2.41
		c10.85,0.76,21.69,1.53,32.54,2.3c7.08,0.5,14.16,1.01,21.25,1.52C275.75,391.84,275.98,392.19,276.09,394.71z"/>
	<path class="st6" d="M438.19,275.39c-4.14,0.06-7.9,0.13-11.67,0.17c-21.82,0.23-43.63,0.46-65.45,0.69c-8,0.08-16,0.11-23.99,0.29
		c-3.58,0.08-7.15,0.46-10.71,0.75c-4.08,0.33-8.16,0.66-12.22,1.12c-2.53,0.28-5.07,0.66-7.55,1.25c-1.9,0.45-3.64,0.38-5.42-0.38
		c-4.71-2.02-8.44-5.28-11.52-9.3c-8.54-11.13-18.7-20.47-30.61-27.89c-4.84-3.02-9.91-5.58-15.35-7.37
		c-0.24-0.08-0.47-0.17-1.16-0.44c0.9-0.16,1.38-0.37,1.82-0.3c0.88,0.13,1.77,0.32,2.6,0.64c8.44,3.26,16.52,7.22,23.74,12.72
		c4.23,3.22,8.12,6.85,11.55,10.92c3.86,4.59,7.57,9.33,11.38,13.96c0.72,0.88,1.56,1.71,2.49,2.36c2.48,1.71,5.11,3.17,8.14,3.68
		c0.62,0.1,1.33,0.23,1.89,0.04c2.64-0.92,5.39-1,8.12-1.28c4.38-0.46,8.77-1.02,13.16-1.24c5.81-0.29,11.63-0.31,17.45-0.42
		c8.06-0.14,16.12-0.28,24.18-0.38c16.57-0.2,33.14-0.38,49.71-0.57c5.37-0.06,10.75-0.14,16.12-0.23
		C435.99,274.15,437.03,274.23,438.19,275.39z"/>
	<path class="st6" d="M343.08,325.96c-1.59,1.08-3.26,1.51-4.98,1.57c-7.76,0.3-14.22-2.62-19.53-8.17
		c-1.65-1.73-2.83-3.78-3.29-6.45c0.71-0.09,1.37-0.23,2.03-0.25c6.64-0.14,12.57,1.93,17.95,5.72
		C338.21,320.46,341.34,323.46,343.08,325.96z"/>
	<path class="st1" d="M466.72,395.05c1.26-1.83,2.56-2.15,4.36-1.97c3.62,0.37,7.28,0.55,10.92,0.52
		c10.17-0.09,20.35-0.08,30.51-0.56c11.94-0.56,23.87-1.44,35.79-2.47c9.36-0.81,18.69-1.99,28.02-3.15
		c3.99-0.5,7.94-1.36,11.9-2.06c0.49-0.09,0.99-0.17,1.53-0.26c0.52,0.96,0.2,1.49-0.72,1.76c-1.16,0.34-2.31,0.79-3.5,0.99
		c-6.37,1.06-12.72,2.28-19.13,3.02c-9.21,1.07-18.45,1.95-27.7,2.6c-14.81,1.04-29.63,1.71-44.49,1.43
		c-8.38-0.15-16.76,0.09-25.14,0.15C468.38,395.05,467.7,395.05,466.72,395.05z"/>
	<path class="st0" d="M351.41,340c4.11,10.21,5.57,20.56,5.17,31.53c-0.63-0.34-1.03-0.48-1.34-0.73c-4.69-3.77-7.3-8.76-8.44-14.59
		c-0.65-3.31-0.6-6.61,0.39-9.85C347.93,343.95,349.06,341.77,351.41,340z"/>
	<path class="st7" d="M549.92,397.56c2.41-0.14,4.98-0.28,7.6-0.43c-2.27,12.91-16.03,26.91-31.44,28.71
		c2.72-1.69,5.53-3.14,7.97-5.04c2.46-1.9,4.77-4.09,6.76-6.47c2.03-2.44,3.76-5.17,5.27-7.96
		C547.57,403.64,548.6,400.66,549.92,397.56z"/>
	<path class="st4" d="M342.3,411.61c-6.01-9.38-0.83-23.17,11.72-24.77C354.41,391.34,347.16,406.73,342.3,411.61z"/>
	<path class="st0" d="M526.73,399.4c-3.63,5.46-8.15,9-14.53,9.12c-6.18,0.11-10.67-3.16-14.07-7.96c0.09-0.27,0.09-0.34,0.13-0.39
		c0.03-0.04,0.1-0.08,0.15-0.09c0.25-0.04,0.5-0.1,0.75-0.1C508.21,399.78,517.26,399.6,526.73,399.4z"/>
	<path class="st1" d="M332.45,420.7c-8.43,5-16.83,6.28-25.93,3.03c0.72-1.87,1.96-3.03,3.39-4c3.24-2.2,6.91-2.96,10.74-2.94
		c3.03,0.01,5.98,0.59,8.7,2C330.3,419.28,331.18,419.91,332.45,420.7z"/>
	<path class="st9" d="M444.71,294.55c-1.57,0-3.15,0-4.72,0c-5.98-0.02-5.97-0.04-11.29-2.77c-5.45-2.8-10.93-5.56-16.39-8.34
		c-0.55-0.28-1.08-0.59-2.02-1.1c0.98-0.08,1.52-0.15,2.05-0.16c2.24-0.05,4.47-0.02,6.7-0.14c1.57-0.08,2.92,0.21,4.35,0.97
		c6.38,3.37,12.85,6.58,19.28,9.85c0.73,0.37,1.44,0.77,2.16,1.15C444.8,294.18,444.75,294.36,444.71,294.55z"/>
	<path class="st0" d="M295.53,416.61c-5.56-4.22-12.32-15.55-14.29-23.98c0.76,0.19,1.42,0.3,2.04,0.52
		c2.14,0.78,3.96,2.07,5.56,3.67c3.82,3.83,6.21,8.41,7.05,13.76C296.19,412.56,296.19,414.51,295.53,416.61z"/>
	<path class="st5" d="M301.37,318.2c0.81,4.81,0.09,9.17-2.56,13.13c-3.03,4.53-7.83,6.34-12.77,4.9
		C287.19,331.84,295.66,321.03,301.37,318.2z"/>
	<path class="st9" d="M410.79,294.53c-2.02,0-4.05-0.08-6.07,0.02c-3.3,0.17-6.24-0.7-9.14-2.27c-5.4-2.92-10.92-5.61-16.39-8.39
		c-0.55-0.28-1.09-0.6-2.05-1.12c0.83-0.1,1.23-0.19,1.63-0.19c2.62-0.04,5.25-0.12,7.87-0.07c0.93,0.02,1.94,0.18,2.76,0.59
		c6.81,3.4,13.59,6.86,20.37,10.31c0.39,0.2,0.75,0.45,1.13,0.67C410.86,294.22,410.82,294.38,410.79,294.53z"/>
	<path class="st10" d="M279.71,353.01c4.15,2.49,6.09,6.02,6.24,10.39c0.21,6.01-2.46,10.65-7.76,14.22
		C277.4,369.25,277.9,361.28,279.71,353.01z"/>
	<path class="st9" d="M345.02,282.93c1.44,0,2.9,0.13,4.32-0.02c4.29-0.47,8.11,0.55,11.87,2.7c4.83,2.75,9.89,5.08,14.85,7.61
		c0.5,0.25,0.97,0.57,1.79,1.05c-0.74,0.14-1.12,0.28-1.51,0.28c-2.81-0.02-5.63-0.04-8.44-0.14c-0.81-0.03-1.68-0.2-2.39-0.56
		c-6.69-3.35-13.36-6.74-20.03-10.13c-0.2-0.1-0.37-0.26-0.55-0.4C344.97,283.18,344.99,283.05,345.02,282.93z"/>
	<path class="st9" d="M446.78,281.29c3.82,0.2,9.29,0.51,11.91,2.93c0.31,0.29,0.85,0.26,1.25,0.46c5.76,2.9,11.52,5.82,17.27,8.74
		c0.38,0.19,0.71,0.46,1.39,0.91c-0.75,0.11-1.15,0.23-1.55,0.22c-2.81-0.03-5.62-0.04-8.43-0.15c-0.8-0.03-1.67-0.23-2.38-0.58
		c-6.17-3.08-12.32-5.94-18.47-9.06c-0.21-0.11-0.51-0.28-0.71-0.42C447.08,284.17,435.93,281.11,446.78,281.29z"/>
	<path class="st11" d="M530.56,418.89c-5.94,4.11-12.35,6.2-19.55,5.76c-0.49-1.2-0.29-2.26,0.25-3.09
		c0.79-1.21,1.64-2.49,2.77-3.34c3.7-2.78,7.89-3.44,12.34-2.21C527.99,416.47,529.45,417.23,530.56,418.89z"/>
	<path class="st12" d="M107.78,406.89c-5,4.68-13.06,5.04-18.57-2.54C93.11,400.37,103.86,401.87,107.78,406.89z"/>
	<path class="st5" d="M569.16,326.9c2.19-5.42,4.39-10.84,6.59-16.28c3.77,2.37,5.33,6.31,4.12,10.23c-0.1,0.34-0.33,0.74-0.62,0.9
		c-3.24,1.87-6.5,3.7-9.76,5.54C569.39,327.16,569.28,327.03,569.16,326.9z"/>
	<path class="st4" d="M96.86,333.43c5.04-2.78,11.92-0.46,15.35,5.13c-3.12,2.1-6.46,2.53-9.96,1.29
		C99.28,338.8,97.32,336.8,96.86,333.43z"/>
	<path class="st0" d="M116.7,346.36c2.27,3.85,4.7,15.38,4.08,19.44c-0.46-0.3-0.92-0.51-1.27-0.83c-3.89-3.55-5.94-7.93-5.77-13.23
		C113.81,349.22,114.7,347.7,116.7,346.36z"/>
	<path class="st1" d="M115.05,396.98c-2.69-5.79,0.47-17.34,5.43-20.17C121.02,380.72,117.73,393.11,115.05,396.98z"/>
	<path class="st10" d="M495.13,417.78c-4.16-2.25-9.94-9.77-11.42-14.75c0.4,0.04,0.76,0,1.05,0.13c0.64,0.28,1.3,0.57,1.86,0.98
		c4.15,2.99,6.87,6.99,8.28,11.9C495.04,416.51,495.04,417.02,495.13,417.78z"/>
	<path class="st10" d="M539.86,409.44c-0.53-1.12-0.96-1.82-1.19-2.57c-0.67-2.12-0.59-4.27-0.07-6.41
		c0.35-1.42,1.09-2.04,2.53-2.16c1.32-0.11,2.64-0.15,4.27-0.24C544.14,402.15,542.4,405.68,539.86,409.44z"/>
	<path class="st13" d="M496.13,400.11c0.36,0.48,0.72,0.95,1.08,1.43c2.67,3.6,6.03,6.3,10.45,7.37c6.02,1.46,11.45,0.11,16.06-4.03
		c1.55-1.39,2.78-3.16,4.12-4.78c0.44-0.53,0.71-1.26,1.63-0.9c-1.38,5.55-9.65,11.33-16.64,11.65
		C506.35,411.15,497.79,405.76,496.13,400.11z"/>
	<path class="st5" d="M81.7,357.66c1.11-5.34,2.91-10.26,5.61-14.93C90.15,347.14,86.73,355.5,81.7,357.66z"/>
	<path class="st6" d="M81.94,388.15c-1.41-4.81-1.84-9.72-1.86-15.06c0.5,0.51,0.89,0.73,1.02,1.05c0.59,1.47,1.32,2.92,1.61,4.45
		C83.33,381.81,83.24,385.03,81.94,388.15z"/>
	<path d="M252.77,369.59c-0.46,0.27-0.77,0.62-1.05,0.59c-0.49-0.04-0.98-0.26-1.43-0.48c-14.72-7.23-30.15-12.32-46.24-15.42
		c-7.16-1.38-14.39-2.26-21.68-2.68c-7.44-0.42-14.83-0.19-22.2,0.88c-7.26,1.06-14.27,2.94-20.65,6.72
		c-0.16,0.1-0.33,0.19-0.5,0.28c-0.51,0.28-1.07,0.34-1.3-0.25c-0.11-0.29,0.11-0.87,0.36-1.11c0.46-0.43,1.05-0.72,1.61-1.03
		c5.19-2.89,10.8-4.61,16.61-5.72c9.94-1.89,19.96-2.04,30.01-1.23c21.91,1.78,42.72,7.64,62.59,16.95
		c0.98,0.46,1.97,0.93,2.91,1.47C252.15,368.76,252.38,369.16,252.77,369.59z"/>
	<path d="M341.51,366.93c-0.04,7.73-1.53,15.12-5.13,22.01c-1.98,3.78-4.53,7.12-7.91,9.77c-7.25,5.69-16.05,5.73-23.35,0.07
		c-3.56-2.76-6.29-6.23-8.15-10.29c-6.64-14.47-6.63-28.95,0.39-43.31c1.87-3.83,4.53-7.11,7.92-9.76
		c7.22-5.62,15.96-5.67,23.19-0.07c5.02,3.89,8.14,9.12,10.26,15C340.66,355.71,341.51,361.25,341.51,366.93z M293.9,367.33
		c0.01,6.13,1.02,11.95,3.31,17.53c2,4.86,4.74,9.21,8.94,12.51c3.22,2.53,6.85,3.99,10.98,3.9c3.99-0.09,7.45-1.64,10.53-4.11
		c2.88-2.32,5.1-5.2,6.87-8.42c3.06-5.59,4.65-11.61,5.12-17.94c0.63-8.6-0.69-16.84-4.61-24.58c-1.81-3.58-4.16-6.75-7.33-9.26
		c-6.78-5.38-14.94-5.35-21.66,0.09c-2.88,2.33-5.09,5.2-6.88,8.42C295.38,352.31,294.02,359.73,293.9,367.33z"/>
	<path d="M217.23,290.59c-12.22-0.11-23.86-0.51-35.42-1.94c-6.91-0.85-13.76-2.14-20.64-3.23c-0.44-0.07-0.88-0.15-1.33-0.21
		c-1.92-0.27-2.26-0.73-1.87-2.67c0.45-2.26,1.01-4.49,1.37-6.76c0.33-2.08,1.08-3.63,2.84-5.07c5.15-4.22,10.27-8.45,15.86-12.08
		c9.3-6.04,19.19-10.74,30.08-13.06c17.85-3.8,34.31-0.79,49,10.37c8.07,6.13,14.22,13.92,19.22,22.68c0.52,0.92,0.9,1.89,2.05,2.38
		c0.91,0.39,0.8,1.65-0.09,2.19c-0.48,0.29-1.06,0.44-1.61,0.6c-6.51,1.95-13.17,3.18-19.87,4.15
		C243.5,289.86,230.09,290.47,217.23,290.59z M238.86,249.63c-9.58-3.95-25.61-3.5-35.6,0.32c4.92,12.18,9.84,24.36,14.93,36.94
		C225.23,274.19,232.04,261.92,238.86,249.63z M240.37,251c-1.61,1.95-19.96,35.3-20.17,36.57c5.47,0.51,29.1-1.11,35.53-2.46
		C250.61,273.74,245.51,262.41,240.37,251z M201.76,250.87c-6.9,11.79-13.59,23.21-20.43,34.92c11.91,1.32,23.45,1.97,35.3,1.89
		C211.65,275.35,206.8,263.34,201.76,250.87z M199.47,251.36c-0.38-0.08-0.51-0.16-0.61-0.12c-0.49,0.16-0.96,0.33-1.44,0.52
		c-12.82,4.99-23.91,12.67-34.07,21.81c-0.33,0.29-0.73,0.64-0.82,1.03c-0.58,2.59-1.09,5.2-1.65,7.9
		c6.28,1.36,12.37,2.38,18.58,3.04C186.16,274.09,192.79,262.76,199.47,251.36z M274.56,281.46c-1.75-3.74-5.44-9.29-9.18-13.72
		c-5.94-7.03-12.97-12.65-21.43-16.39c-0.47-0.21-0.97-0.33-1.78-0.61c5.25,11.65,10.33,22.92,15.43,34.24
		C263.39,284.06,268.97,283.09,274.56,281.46z"/>
	<path d="M113.55,369.15c-0.1,7.38-0.97,13.49-3.35,19.32c-1.07,2.62-2.43,5.08-4.33,7.2c-4.85,5.43-10.84,5.25-15.31-0.48
		c-2.78-3.57-4.21-7.73-5.05-12.11c-1.7-8.91-1.34-17.69,1.67-26.3c1-2.85,2.23-5.61,4.17-7.95c1.01-1.22,2.15-2.39,3.43-3.31
		c3.42-2.44,7.16-2.24,10.45,0.38c1.73,1.38,3.01,3.13,4.06,5.06c1.89,3.47,3,7.21,3.56,11.09
		C113.24,364.78,113.4,367.53,113.55,369.15z M111.91,370.39c-0.19-2.29-0.29-4.6-0.58-6.88c-0.48-3.76-1.41-7.41-3.1-10.83
		c-1.03-2.08-2.3-4-4.15-5.46c-2.63-2.07-5.63-2.24-8.33-0.26c-1.27,0.93-2.39,2.14-3.36,3.38c-1.91,2.45-3.11,5.29-3.98,8.25
		c-2.13,7.22-2.67,14.58-1.59,22.03c0.59,4.08,1.63,8.05,3.82,11.58c0.9,1.45,2.01,2.84,3.29,3.95c2.58,2.25,5.69,2.32,8.46,0.29
		c1.17-0.86,2.26-1.93,3.09-3.1c1.1-1.55,2.07-3.24,2.83-4.99C110.84,382.65,111.73,376.6,111.91,370.39z"/>
	<path class="st12" d="M293.9,367.33c0.12-7.6,1.48-15.02,5.26-21.86c1.78-3.22,4-6.09,6.88-8.42c6.73-5.44,14.89-5.48,21.66-0.09
		c3.16,2.51,5.52,5.68,7.33,9.26c3.92,7.74,5.24,15.98,4.61,24.58c-0.47,6.33-2.05,12.35-5.12,17.94c-1.77,3.23-3.99,6.11-6.87,8.42
		c-3.07,2.47-6.53,4.03-10.53,4.11c-4.14,0.09-7.76-1.37-10.98-3.9c-4.19-3.3-6.94-7.64-8.94-12.51
		C294.92,379.28,293.9,373.46,293.9,367.33z M337.5,367.58c-0.05-0.7-0.16-1.91-0.24-3.12c-0.3-4.76-1.33-9.36-3.17-13.76
		c-1.97-4.74-4.69-8.94-8.92-12.01c-5.73-4.16-12.35-4.04-17.92,0.31c-0.85,0.67-1.65,1.42-2.39,2.21
		c-2.59,2.73-4.36,5.97-5.71,9.46c-2.35,6.07-3.08,12.38-2.67,18.83c0.38,5.99,1.75,11.74,4.53,17.11c1.78,3.45,4.06,6.51,7.16,8.89
		c5.97,4.6,13.03,4.47,18.84-0.33c2.51-2.07,4.4-4.63,5.91-7.47C336.18,381.58,337.31,374.95,337.5,367.58z"/>
	<path class="st8" d="M238.86,249.63c-6.82,12.29-13.63,24.57-20.67,37.25c-5.08-12.58-10-24.76-14.93-36.94
		C213.25,246.12,229.28,245.67,238.86,249.63z"/>
	<path class="st6" d="M240.37,251c5.14,11.41,10.24,22.74,15.36,34.11c-6.43,1.36-30.06,2.97-35.53,2.46
		C220.41,286.29,238.76,252.95,240.37,251z"/>
	<path class="st6" d="M201.76,250.87c5.04,12.47,9.89,24.48,14.87,36.81c-11.85,0.08-23.39-0.57-35.3-1.89
		C188.18,274.09,194.86,262.67,201.76,250.87z"/>
	<path class="st8" d="M199.47,251.36c-6.67,11.4-13.3,22.73-20,34.18c-6.21-0.66-12.3-1.68-18.58-3.04c0.55-2.7,1.06-5.31,1.65-7.9
		c0.09-0.39,0.49-0.74,0.82-1.03c10.16-9.15,21.25-16.82,34.07-21.81c0.48-0.19,0.95-0.36,1.44-0.52
		C198.95,251.2,199.09,251.27,199.47,251.36z"/>
	<path class="st8" d="M274.56,281.46c-5.59,1.63-11.17,2.6-16.97,3.52c-5.1-11.32-10.18-22.59-15.43-34.24
		c0.81,0.27,1.31,0.4,1.78,0.61c8.46,3.73,15.49,9.36,21.43,16.39C269.11,272.16,272.81,277.71,274.56,281.46z"/>
	<path class="st2" d="M111.91,370.39c-0.18,6.21-1.07,12.26-3.59,17.97c-0.77,1.74-1.73,3.43-2.83,4.99
		c-0.84,1.18-1.93,2.25-3.09,3.1c-2.77,2.04-5.88,1.96-8.46-0.29c-1.28-1.11-2.39-2.5-3.29-3.95c-2.19-3.54-3.23-7.51-3.82-11.58
		c-1.08-7.45-0.54-14.81,1.59-22.03c0.87-2.96,2.08-5.8,3.98-8.25c0.97-1.25,2.09-2.45,3.36-3.38c2.69-1.98,5.69-1.81,8.33,0.26
		c1.85,1.46,3.12,3.37,4.15,5.46c1.69,3.42,2.63,7.07,3.1,10.83C111.61,365.79,111.72,368.09,111.91,370.39z M110.46,371.14
		c-0.35-3.17-0.56-6.37-1.09-9.51c-0.63-3.73-1.77-7.34-4.01-10.49c-3.39-4.76-7.95-4.86-11.52-0.24c-1.71,2.2-2.79,4.73-3.61,7.37
		c-1.96,6.26-2.38,12.68-1.79,19.16c0.37,4.02,1.09,8.01,2.93,11.65c0.85,1.69,1.9,3.37,3.2,4.73c2.63,2.74,5.89,2.67,8.68,0.1
		c1.73-1.6,2.9-3.57,3.81-5.7C109.39,382.76,110.18,377.03,110.46,371.14z"/>
	<path d="M337.5,367.58c-0.19,7.37-1.32,14-4.58,20.13c-1.51,2.85-3.4,5.4-5.91,7.47c-5.81,4.8-12.87,4.93-18.84,0.33
		c-3.1-2.39-5.37-5.44-7.16-8.89c-2.77-5.37-4.15-11.11-4.53-17.11c-0.41-6.45,0.32-12.76,2.67-18.83c1.35-3.49,3.12-6.73,5.71-9.46
		c0.75-0.79,1.54-1.54,2.39-2.21c5.56-4.36,12.19-4.47,17.92-0.31c4.23,3.07,6.95,7.27,8.92,12.01c1.83,4.4,2.87,9,3.17,13.76
		C337.34,365.68,337.45,366.89,337.5,367.58z M336.46,368.23c0-6.6-1.19-12.77-3.9-18.61c-1.69-3.64-3.91-6.9-7.05-9.46
		c-2.27-1.85-4.82-3.13-7.78-3.43c-3.92-0.4-7.31,0.88-10.29,3.35c-3.03,2.5-5.23,5.65-6.67,9.25c-4.96,12.4-4.68,24.7,1.08,36.8
		c1.39,2.91,3.3,5.48,5.72,7.63c2.65,2.35,5.64,3.94,9.28,4.1c4.57,0.2,8.15-1.82,11.21-4.97c2.12-2.18,3.69-4.74,4.92-7.5
		C335.44,379.87,336.49,374.07,336.46,368.23z"/>
	<path d="M110.46,371.14c-0.28,5.89-1.07,11.62-3.4,17.07c-0.91,2.13-2.08,4.11-3.81,5.7c-2.79,2.58-6.05,2.65-8.68-0.1
		c-1.3-1.36-2.35-3.04-3.2-4.73c-1.84-3.64-2.56-7.63-2.93-11.65c-0.59-6.48-0.17-12.9,1.79-19.16c0.83-2.64,1.91-5.16,3.61-7.37
		c3.57-4.62,8.13-4.52,11.52,0.24c2.24,3.14,3.37,6.75,4.01,10.49C109.91,364.77,110.11,367.97,110.46,371.14z M89.12,373.22
		c0.09,1.24,0.18,3.22,0.41,5.18c0.45,3.82,1.24,7.59,3.06,11.01c0.77,1.44,1.76,2.85,2.92,3.98c2.04,1.98,4.54,1.95,6.74,0.12
		c0.68-0.57,1.36-1.21,1.81-1.96c0.97-1.64,1.95-3.31,2.65-5.07c1.64-4.13,2.28-8.49,2.52-12.92c0.33-6.2-0.28-12.27-2.62-18.05
		c-0.68-1.69-1.68-3.33-2.85-4.73c-2.57-3.06-5.63-3.04-8.39-0.16c-1.67,1.74-2.72,3.85-3.58,6.07
		C89.84,361.77,89.27,367.08,89.12,373.22z"/>
	<path class="st4" d="M336.46,368.23c0.03,5.84-1.03,11.65-3.49,17.17c-1.23,2.77-2.8,5.32-4.92,7.5
		c-3.06,3.15-6.64,5.16-11.21,4.97c-3.64-0.16-6.63-1.75-9.28-4.1c-2.42-2.15-4.33-4.72-5.72-7.63c-5.76-12.1-6.03-24.4-1.08-36.8
		c1.44-3.6,3.64-6.75,6.67-9.25c2.98-2.46,6.37-3.74,10.29-3.35c2.97,0.3,5.51,1.58,7.78,3.43c3.14,2.56,5.36,5.82,7.05,9.46
		C335.28,355.46,336.47,361.62,336.46,368.23z"/>
	<path class="st6" d="M89.12,373.22c0.15-6.14,0.73-11.45,2.68-16.53c0.85-2.22,1.91-4.33,3.58-6.07c2.76-2.87,5.83-2.89,8.39,0.16
		c1.17,1.4,2.16,3.04,2.85,4.73c2.34,5.78,2.95,11.86,2.62,18.05c-0.24,4.43-0.87,8.79-2.52,12.92c-0.7,1.77-1.68,3.43-2.65,5.07
		c-0.45,0.75-1.13,1.4-1.81,1.96c-2.2,1.83-4.7,1.86-6.74-0.12c-1.17-1.13-2.16-2.54-2.92-3.98c-1.82-3.43-2.61-7.19-3.06-11.01
		C89.29,376.44,89.21,374.46,89.12,373.22z"/>
	<polygon class="st9" points="478.59,283.81 499.69,294.54 511.74,294.92 511.14,293.72 492.13,283.81 478.97,282.83 	"/>
	<path d="M477.95,400.13c-33.41,0-66.68,0-99.96,0c-0.16,0.36-0.32,0.64-0.41,0.94c-2.8,9.96-8.58,17.93-16.54,24.36
		c-2.08,1.67-4.43,3.02-6.73,4.39c-0.61,0.36-1.47,0.37-2.22,0.39c-10.75,0.27-21.5,0.63-32.25,0.7c-4.78,0.03-9.56-0.58-14.13-2.16
		c-6.63-2.29-12.12-6.28-16.77-11.46c-4.14-4.61-7.33-9.84-9.81-15.5c-0.28-0.64-0.57-1.27-0.87-1.94
		c-43.71-3.02-87.35-6.04-131.13-9.07c-0.07,0.69-0.13,1.18-0.18,1.67c-0.79,7.72-4.39,14.07-9.56,19.66c-0.48,0.51-1.01,1-1.36,1.6
		c-0.62,1.06-1.5,1.48-2.69,1.5c-11.26,0.12-22.53,0.43-33.79,0.29c-4.72-0.06-8.86-2.27-12.27-5.65c-4.34-4.29-7-9.56-8.97-15.24
		c-2.2-6.35-3.14-12.91-3.35-19.59c-0.04-1.23-0.27-2.36-0.68-3.53c-3.86-11.11-6-22.52-5.12-34.31
		c1.38-18.54,9.21-33.48,25.12-43.67c7.49-4.8,15.78-7.53,24.52-8.95c5.51-0.9,11.06-1.25,16.64-1.04c1.12,0.04,1.88-0.25,2.62-1.14
		c12.18-14.69,26.97-26.12,43.73-35.11c14.59-7.83,30-13.38,46.31-16.27c5.41-0.96,10.89-1.62,16.37-1.98
		c3.93-0.25,7.92,0.23,11.88,0.38c5.88,0.22,11.77,0.44,17.65,0.65c16.63,0.6,33.25,1.21,49.88,1.79
		c8.19,0.29,16.37,0.54,24.56,0.77c6.31,0.17,12.48,1.22,18.43,3.28c2.71,0.94,5.32,2.19,7.92,3.43
		c26.16,12.45,52.3,24.92,78.44,37.41c1.25,0.6,2.49,0.87,3.86,0.92c14.45,0.61,28.9,1.16,43.34,1.95
		c5.1,0.28,10.06-0.38,15.08-0.93c5.21-0.56,10.45-1.13,15.68-1.2c4.13-0.05,8.34,0.32,12.4,1.12c4.72,0.93,9.11,2.84,12.73,6.27
		c5.58,5.28,11.34,10.36,16.91,15.64c2.92,2.77,5.63,5.77,8.39,8.71c3.05,3.24,4.42,7.02,3.33,11.45c-0.44,1.78-0.06,3.24,0.83,4.86
		c2.74,4.96,3.88,10.41,4.03,16.04c0.15,5.5,0.08,11,0.11,16.51c0.03,5.63,0.09,11.26,0.1,16.89c0,0.7,0.14,1.17,0.81,1.55
		c2.73,1.53,3.62,4.17,3.99,7.05c0.13,1.01,0.06,2.05,0.05,3.07c-0.03,2.25-1.09,4.03-3.28,4.65c-3.68,1.04-7.41,2.02-11.17,2.66
		c-5.48,0.94-11.02,1.57-16.53,2.31c-1.78,0.24-1.78,0.21-2.28,1.91c-3.89,13.18-12.05,22.71-24.64,28.24
		c-10.46,4.6-21.2,4.87-32.02,1.18c-5.56-1.89-10.77-4.39-15.12-8.47c-5-4.7-8.41-10.42-11.01-16.69
		C478.55,401.7,478.29,400.98,477.95,400.13z M385.13,329.17c1.34,2.3,2.59,4.23,3.6,6.27c0.69,1.38,1.67,1.91,3.12,2.1
		c6.09,0.77,12.15,1.8,18.26,2.38c10.63,1,21.28,1.96,31.95,2.54c11.88,0.65,23.78,0.96,35.68,1.24
		c17.73,0.42,35.46,0.32,53.17-0.49c10.48-0.48,20.94-1.31,31.38-2.29c5.46-0.52,10.86-1.65,16.27-2.62
		c1.93-0.35,3.85-0.91,5.61-2.09c-0.34-4.19-2.01-7.87-4.12-11.49c-0.44,0.2-0.84,0.37-1.23,0.57c-3.13,1.61-6.24,3.25-9.38,4.83
		c-0.79,0.39-1.67,0.68-2.54,0.8c-1.17,0.17-1.82-0.58-1.61-1.75c0.09-0.5,0.31-0.97,0.5-1.45c1.17-2.91,2.35-5.81,3.53-8.71
		c1.46-3.61,2.91-7.22,4.42-10.95c-1.62-1.61-3.15-3.24-4.79-4.75c-5.62-5.22-11.26-10.42-16.93-15.59
		c-0.97-0.89-2.05-1.74-3.22-2.31c-5.7-2.77-11.9-2.88-18.02-2.91c-4.46-0.03-8.93,0.57-13.4,0.96c-2.09,0.18-4.18,0.52-6.26,0.79
		c0.34,0.52,0.67,0.69,1.02,0.82c6.64,2.56,12.97,5.76,19.04,9.47c8.55,5.22,16.61,11.07,23.54,18.37c0.35,0.37,0.8,0.71,1,1.15
		c0.18,0.39,0.28,1.04,0.07,1.33c-0.39,0.54-0.92,0.19-1.3-0.2c-0.76-0.78-1.47-1.61-2.25-2.36c-11.74-11.35-25.3-19.88-40.41-26
		c-3.79-1.53-7.65-2.44-11.76-2.31c-1.4,0.05-2.81-0.15-4.22-0.2c-0.38-0.01-0.77,0.09-1.58,0.18c0.86,0.45,1.3,0.7,1.74,0.93
		c3.08,1.56,6.17,3.12,9.25,4.68c2.85,1.45,5.71,2.9,8.54,4.38c0.56,0.29,1.32,0.47,1.39,1.58c-0.8,0-1.48,0-2.17,0
		c-3.01-0.02-6.02-0.11-9.02-0.05c-2.22,0.04-4.16-0.44-6.18-1.53c-6.7-3.61-13.54-6.97-20.35-10.38c-0.72-0.36-1.57-0.62-2.37-0.67
		c-4.98-0.28-9.97-0.49-14.96-0.7c-0.39-0.02-0.79,0.06-1.58,0.13c0.69,0.42,1,0.64,1.33,0.81c3.37,1.71,6.74,3.41,10.1,5.12
		c3.71,1.88,7.42,3.76,11.12,5.67c0.57,0.29,1.31,0.49,1.46,1.5c-0.74,0.04-1.36,0.09-1.98,0.09c-2.62-0.01-5.25-0.14-7.87-0.03
		c-3.08,0.14-5.99-0.16-8.52-2.11c-0.15-0.11-0.34-0.18-0.51-0.26c-6.85-3.48-13.7-6.95-20.54-10.43c-0.39-0.2-0.74-0.47-1.11-0.7
		c0.07-0.14,0.14-0.28,0.21-0.41c0.87,0.32,1.78,0.56,2.6,0.98c6.86,3.45,13.71,6.92,20.54,10.42c1.17,0.6,2.35,0.95,3.67,0.95
		c2.62,0,5.25,0.07,7.87,0.09c0.39,0,0.79-0.13,1.56-0.27c-0.83-0.49-1.29-0.8-1.79-1.05c-4.9-2.5-9.79-5.04-14.73-7.45
		c-2.79-1.36-5.36-3.32-8.64-3.47c-0.18-0.01-0.35-0.16-0.54-0.2c-0.74-0.16-1.48-0.42-2.22-0.42c-4.29,0.01-8.58,0.11-12.86,0.13
		c-4.66,0.03-9.32,0.01-13.98,0.01c0.43,0.58,0.91,0.86,1.41,1.11c4.17,2.11,8.34,4.22,12.5,6.34c3.37,1.71,6.73,3.42,10.08,5.16
		c0.57,0.3,1.33,0.47,1.5,1.51c-0.7,0.05-1.31,0.12-1.92,0.12c-3.14-0.01-6.27-0.11-9.41-0.04c-2.16,0.05-4.03-0.45-5.99-1.5
		c-7.51-4-15.14-7.78-22.75-11.59c-0.88-0.44-1.94-0.68-2.92-0.68c-4.67-0.03-9.34,0.04-14.02,0.09c-0.4,0-0.8,0.09-1.66,0.19
		c0.95,0.54,1.48,0.87,2.03,1.15c3.88,1.97,7.77,3.92,11.65,5.89c3.2,1.62,6.39,3.25,9.57,4.9c0.57,0.29,1.33,0.47,1.45,1.5
		c-0.73,0.03-1.35,0.08-1.97,0.08c-3.07-0.01-6.14-0.1-9.22-0.05c-2.21,0.04-4.16-0.41-6.19-1.5c-7.21-3.88-14.56-7.51-21.89-11.17
		c-0.88-0.44-1.94-0.68-2.93-0.69c-4.29-0.04-8.58,0.03-12.86,0.07c-0.54,0.01-1.08,0.09-1.62,0.14c0.45,0.63,0.96,0.95,1.5,1.22
		c4.11,2.09,8.22,4.16,12.33,6.25c2.68,1.36,5.36,2.72,8.03,4.11c0.57,0.3,1.32,0.48,1.48,1.5c-0.73,0.04-1.34,0.1-1.96,0.1
		c-2.75-0.01-5.51-0.12-8.25-0.03c-2.8,0.09-5.29-0.45-7.84-1.85c-6.67-3.66-13.53-7-20.34-10.39c-0.93-0.46-2.07-0.73-3.11-0.72
		c-4.47,0.05-8.95,0.17-13.42,0.41c-5.63,0.3-11.23,0.91-16.7,2.31c-3.77,0.96-7.44,2.31-11.19,3.37
		c-11.84,3.33-23.92,5.45-36.12,6.98c-11.5,1.44-23.04,2.29-34.62,2.58c-6.4,0.16-12.8,0.06-19.2,0.07c-0.61,0-1.22,0-2.15,0
		c0.43,0.46,0.57,0.65,0.75,0.79c8.95,6.84,17.9,13.68,26.87,20.48c0.47,0.36,1.14,0.54,1.74,0.6c2.74,0.25,5.48,0.45,8.23,0.63
		c4.53,0.31,9.07,0.57,13.59,0.92c1.09,0.08,1.75-0.22,2.36-1.15c1.94-2.93,3.99-5.8,5.98-8.7c0.23-0.34,0.38-0.73,0.67-1.3
		c-0.73,0-1.23,0-1.74,0c-5.7-0.05-11.39-0.11-17.09-0.17c-0.64-0.01-1.28-0.01-1.92-0.05c-0.58-0.04-1.26-0.12-1.27-0.87
		c-0.01-0.76,0.62-0.86,1.24-0.86c0.38,0,0.77-0.01,1.15,0c6.59,0.08,13.18,0.15,19.77,0.23c0.38,0,0.77,0,1.15,0.05
		c1.4,0.17,1.62,0.66,0.87,1.91c-0.2,0.33-0.43,0.63-0.65,0.95c-2.26,3.26-4.6,6.47-6.74,9.81c-1,1.56-2.16,2.09-3.96,1.93
		c-4.97-0.43-9.95-0.75-14.93-1.08c-8.04-0.53-16.09-1.02-24.13-1.56c-5.62-0.38-11.23-0.78-16.84-1.25
		c-9.94-0.83-19.87-1.88-29.82-2.54c-9.38-0.62-18.76-1.35-28.18-0.89c-6.12,0.3-11.89,1.56-17.02,5.11
		c-1.26,0.87-2.65,1.54-3.96,2.35c-1.66,1.02-3.3,2.08-5.1,3.22c5.78,5.5,9.05,12.22,11.46,19.61c0.7-0.59,1.16-1.02,1.66-1.41
		c2.48-1.91,4.87-3.97,7.47-5.69c11.63-7.69,24.59-11.16,38.4-11.76c12.87-0.56,25.37,1.53,37.59,5.45
		c17.39,5.57,32.98,14.46,47.26,25.73c0.53,0.42,1.09,0.82,1.71,1.28c0.11-0.38,0.18-0.55,0.2-0.73c0.12-0.89,0.23-1.78,0.34-2.66
		c1.18-9.64,3.43-19,7.35-27.91c3.94-8.97,9.27-16.95,16.99-23.13c11.09-8.87,23.71-11.28,37.41-8.46c5.19,1.07,9.86,3.53,14.2,6.54
		c8.21,5.7,14.43,13.18,19.27,21.83c8.9,15.92,12.57,33.13,12.33,51.25c-0.04,3.24-0.32,6.48-0.49,9.84
		c0.65,0.05,1.2,0.12,1.76,0.12c5.5,0.05,11.01,0.1,16.51,0.12c20.61,0.07,41.22,0.07,61.83,0.21c8.51,0.05,16.67-1.48,24.51-4.71
		c1.99-0.82,3.95-1.86,5.71-3.11c7.06-4.99,14.71-8.22,23.46-8.42c11.13-0.25,22.26-0.45,33.39-0.7c7.23-0.16,14.46-0.36,21.68-0.59
		c6.27-0.19,12.53-0.43,18.8-0.67c1.94-0.08,3.46,0.73,4.78,2.05c0.34,0.34,0.64,0.72,1.11,1.24c0.08-0.5,0.16-0.74,0.16-0.97
		c-0.05-10.24-0.1-20.48-0.17-30.71c-0.01-0.87-0.2-1.75-0.32-2.75c-4.92,1.92-9.88,2.93-14.89,3.5c-8.7,0.98-17.42,1.95-26.15,2.52
		c-9.64,0.64-19.3,1.06-28.96,1.15c-14.59,0.14-29.18,0.06-43.77-0.19c-10.68-0.18-21.36-0.68-32.03-1.25
		c-7.92-0.42-15.83-1.07-23.72-1.84c-7-0.68-13.96-1.67-20.94-2.53c-0.9-0.11-1.8-0.25-2.84-0.4c0.15,0.45,0.17,0.64,0.26,0.8
		c3.65,6.24,7.29,12.49,10.97,18.71c0.42,0.7,1,1.33,1.59,1.9c2.08,1.99,4.56,3.27,7.34,3.99c0.49,0.13,1.09,0.15,1.44,0.44
		c0.38,0.32,0.79,0.95,0.73,1.37c-0.07,0.42-0.68,0.96-1.12,1.04c-0.65,0.12-1.4-0.04-2.06-0.24c-5.18-1.49-9.01-4.68-11.7-9.31
		c-4.33-7.46-8.66-14.92-13.04-22.35c-3.6-6.12-7.26-12.2-10.9-18.3c-1.44-2.42-2.93-4.81-4.32-7.25c-0.94-1.65-0.31-2.73,1.56-2.85
		c0.13-0.01,0.26-0.01,0.38-0.01c3.58,0.03,7.17-0.04,10.75,0.11c12.25,0.49,24.32,2.47,36.24,5.16c19.89,4.49,39.68,9.43,59,16.06
		c2.36,0.81,4.71,1.64,7.03,2.55c1.07,0.42,1.52,1.29,1.29,2.09c-0.3,1.04-1.16,1.06-2.02,1.02c-2.11-0.11-4.22-0.24-6.32-0.34
		c-10.99-0.54-21.98-1.07-32.97-1.62c-10.42-0.52-20.83-1.04-31.25-1.57c-6.52-0.33-13.03-0.7-19.55-1.03
		C391.54,329.42,388.54,329.31,385.13,329.17z M131.16,380.48c0.55,0.06,1.24,0.17,1.93,0.22c7.34,0.52,14.68,1.03,22.01,1.56
		c7.98,0.57,15.95,1.16,23.92,1.73c11.74,0.83,23.48,1.63,35.22,2.45c8.23,0.58,16.46,1.19,24.69,1.77
		c10.53,0.75,21.06,1.48,31.58,2.21c1.5,0.1,3.01,0.15,4.6,0.22c-0.1-0.68-0.13-1.13-0.23-1.56c-2.19-9.44-2.65-18.97-1.53-28.6
		c1.14-9.76,3.82-19.04,8.51-27.7c3.79-7.01,8.65-13.14,15.13-17.87c6.03-4.41,12.73-7.1,20.27-7.26
		c8.83-0.18,16.52,2.95,23.27,8.51c6.61,5.44,11.37,12.3,14.69,20.12c7.88,18.55,8.34,37.48,2.61,56.68
		c-0.2,0.66-0.39,1.31-0.62,2.07c0.63,0.04,1.07,0.09,1.52,0.09c34.43-0.02,68.86-0.04,103.28-0.05c1.02,0,1.83-0.24,2.62-0.91
		c3.18-2.68,6.41-5.3,9.62-7.95c0.3-0.25,0.55-0.57,1.13-1.16c-0.9,0.27-1.38,0.4-1.85,0.56c-7.32,2.53-14.85,3.74-22.6,3.7
		c-23.16-0.13-46.33-0.2-69.49-0.29c-3.14-0.01-6.27-0.01-9.41-0.01c-2.75-0.01-2.83-0.02-2.56-2.84
		c0.52-5.55,0.73-11.09,0.42-16.67c-0.62-11.21-2.89-22.05-7.09-32.46c-4.04-10.02-9.57-19.11-17.56-26.5
		c-6.9-6.39-14.73-10.92-24.35-11.94c-10.48-1.12-20.09,1.01-28.78,7.02c-7.55,5.22-12.97,12.28-17.08,20.38
		c-5.97,11.76-8.74,24.38-9.69,37.45c-0.25,3.44-0.28,6.9-0.4,10.35c-0.06,1.68-0.21,1.85-1.93,1.79c-0.89-0.03-1.79-0.12-2.68-0.2
		c-7.45-0.7-14.89-1.41-22.34-2.11c-6.18-0.58-12.35-1.14-18.53-1.71c-7.58-0.71-15.15-1.43-22.73-2.14
		c-6.11-0.57-12.23-1.12-18.34-1.7c-7.38-0.7-14.77-1.41-22.15-2.11c-6.56-0.62-13.11-1.24-19.67-1.85
		c-1.39-0.13-2.78-0.2-4.08-0.29C132.05,369.2,131.61,374.78,131.16,380.48z M263.56,362.76c-0.8-0.62-1.55-1.21-2.3-1.8
		c-10.29-8.22-21.37-15.17-33.42-20.51c-13.92-6.17-28.38-10.13-43.68-10.64c-11.71-0.39-23.08,1.27-33.93,5.84
		c-6.9,2.9-13.12,6.87-18.67,11.91c-1.04,0.94-1.57,1.78-1.09,3.28c0.52,1.63,0.7,3.37,0.96,5.08c0.29,1.88,0.49,3.77,0.75,5.73
		c43.7,4.09,87.26,8.17,130.97,12.26C263.29,370.04,263.43,366.47,263.56,362.76z M284.84,338.05c-2,4.14-3.59,8.53-4.64,13.13
		c5.64,3.38,8.03,8.33,7.41,14.62c-0.6,6.16-3.99,10.64-9.38,13.88c0.71,3.43,1.42,6.8,2.1,10.17c0.14,0.68,0.53,0.94,1.17,1.04
		c4,0.65,7.08,2.91,9.63,5.87c5.26,6.13,7.88,13.08,5.96,21.43c2.3,1.89,4.8,3.57,7.72,4.77c1.84-3.52,4.72-5.52,8.23-6.7
		c4.29-1.44,8.65-1.56,13.05-0.52c2.91,0.69,5.5,2.02,7.76,3.99c2.79-1.93,5.17-4.12,7.24-6.5c-3.5-5.93-4.19-11.92-1.27-18.07
		c2.97-6.25,8.22-9.39,14.99-10.29c0.86-3.75,1.47-7.44,1.58-11.08c-1.22-0.94-2.35-1.68-3.33-2.59c-1.03-0.95-2.01-1.98-2.86-3.1
		c-3.92-5.2-5.78-11.06-5.43-17.58c0.25-4.72,1.77-8.88,5.54-11.99c0.13-0.11,0.18-0.32,0.29-0.51c-1.71-3.72-3.63-7.31-6.15-10.51
		c-5.45,1.95-6.33,2.3-10.73,1.54c-9.51-1.65-17-6.07-20.44-15.9c-3.61,0.47-6.98,1.88-10.26,3.79c0.08,0.62,0.16,1.18,0.23,1.74
		c0.56,4.65-0.1,9.08-2.62,13.09c-2.5,3.97-6.04,6.41-10.82,6.66C288.22,338.53,286.63,338.21,284.84,338.05z M300.61,286.84
		c-0.45-0.26-0.64-0.4-0.84-0.48c-8.22-3.51-14.56-9.33-20.14-16.15c-3-3.66-6.15-7.2-9.38-10.65c-4.45-4.75-9.89-8.24-15.35-11.73
		c-5.25-3.36-10.89-5.65-16.9-7.04c-7.29-1.68-14.71-1.72-22.14-1.34c-1.51,0.08-3.05,0.38-4.5,0.83
		c-14.72,4.51-28.41,11.17-41.15,19.8c-10.22,6.93-19.44,14.99-27.44,24.43c-0.68,0.81-1.32,1.65-2.01,2.52
		c0.38,0.2,0.54,0.31,0.71,0.37c0.66,0.23,1.33,0.45,2,0.66c11.09,3.47,22.48,5.45,33.98,6.83c9.21,1.11,18.46,1.7,27.73,2.07
		c10.05,0.4,20.09,0.25,30.12-0.2c9.78-0.44,19.52-1.28,29.23-2.56c11.49-1.51,22.86-3.58,34.03-6.67
		C299.18,287.37,299.76,287.14,300.61,286.84z M470.97,391.3c1.69,0.15,2.89,0.3,4.1,0.37c13.5,0.75,26.99,0.24,40.47-0.45
		c10.41-0.54,20.8-1.38,31.19-2.19c11.86-0.93,23.67-2.28,35.4-4.29c2.56-0.44,5.1-1.04,7.72-1.58c-0.24-1.33-0.52-2.43-1.71-2.8
		c-2.06-0.64-3.17-2.02-3.56-4.08c-0.06-0.31-0.17-0.62-0.32-0.9c-1.25-2.33-2.68-4.4-5.76-4.3c-4.15,0.14-8.31,0.22-12.47,0.38
		c-7.09,0.28-14.18,0.72-21.27,0.89c-12.02,0.28-24.05,0.35-36.07,0.62c-3.38,0.08-6.78,0.34-10.11,0.9
		c-5.11,0.86-9.65,3.27-14.11,5.81c-0.32,0.18-0.6,0.46-0.87,0.73c-0.57,0.59-1.06,1.26-1.69,1.78c-2.99,2.5-6.02,4.97-9.03,7.45
		C472.37,390.07,471.86,390.53,470.97,391.3z M376.97,274.32c0.04-0.13,0.08-0.26,0.12-0.39c-0.34-0.27-0.68-0.55-1.03-0.81
		c-16.32-11.81-32.65-23.61-48.97-35.43c-0.76-0.55-1.53-0.82-2.47-0.85c-8.37-0.29-16.75-0.61-25.12-0.92
		c-0.27-0.01-0.55,0.07-1.13,0.16c0.74,0.61,1.21,1.02,1.7,1.4c11.94,9.13,23.89,18.25,35.82,27.39c4.06,3.11,8.07,6.28,12.13,9.38
		c0.4,0.31,1.03,0.46,1.56,0.46c2.17,0,4.35-0.1,6.52-0.13c6.46-0.07,12.92-0.12,19.38-0.18
		C375.98,274.4,376.47,274.35,376.97,274.32z M373.87,309.72c0.27,0.58,0.36,0.81,0.48,1.02c2.77,4.75,5.58,9.47,8.31,14.25
		c0.59,1.04,1.36,1.34,2.48,1.39c11.18,0.52,22.35,1.07,33.53,1.62c7.22,0.36,14.43,0.72,21.65,1.09c6.7,0.34,13.41,0.71,20.11,1.05
		c5,0.25,10,0.47,15.45,0.72c-0.75-0.34-1.08-0.53-1.43-0.64c-4.38-1.41-8.71-2.97-13.14-4.19c-8.86-2.45-17.78-4.72-26.67-7.06
		c-16.78-4.42-33.74-7.79-51.09-8.94C380.42,309.83,377.3,309.82,373.87,309.72z M329.12,237.07c0.76,0.62,1.17,0.99,1.61,1.3
		c10.57,7.65,21.15,15.27,31.71,22.94c5.79,4.21,11.51,8.5,17.29,12.72c0.32,0.23,0.83,0.28,1.26,0.27
		c8.12-0.08,16.24-0.18,24.36-0.29c0.34,0,0.69-0.12,1.37-0.25c-1.72-1.23-3.17-2.26-4.62-3.28c-14.73-10.4-29.46-20.8-44.21-31.18
		c-0.71-0.5-1.56-0.95-2.4-1.09c-1.7-0.28-3.43-0.4-5.15-0.47c-6.07-0.25-12.14-0.46-18.21-0.68
		C331.26,237.04,330.4,237.07,329.12,237.07z M127.86,385.89c0.06-0.51,0.07-0.77,0.13-1.01c2.19-7.98,2.92-16.08,2.25-24.32
		c-0.55-6.75-2.02-13.27-4.77-19.47c-2.2-4.96-5.11-9.45-9.24-13.05c-7.52-6.56-16.8-7.24-25.09-1.67c-2,1.34-3.84,2.99-5.51,4.73
		c-4.13,4.31-6.99,9.46-9.04,15.03c-2.43,6.59-2.14,4.93-0.92,11.71c0.06,0.31,0.28,0.58,0.54,1.1c0.39-1.65,0.68-3.02,1.03-4.38
		c1.78-6.81,4.41-13.22,8.84-18.78c2.09-2.63,4.53-4.88,7.5-6.48c5.03-2.72,10.12-2.87,15.25-0.28c3.15,1.59,5.65,3.94,7.77,6.72
		c3.11,4.07,5.22,8.65,6.64,13.53c3.94,13.49,3.88,27.02,0.12,40.52c-2.11,7.56-5.46,14.47-11.16,20.05
		c-0.11,0.1-0.1,0.32-0.14,0.48c0.18,0.06,0.29,0.14,0.41,0.14c6.27-0.08,12.54-0.14,18.81-0.28c0.61-0.01,1.34-0.42,1.8-0.86
		c4.06-3.97,6.99-8.65,8.36-14.2c0.36-1.47,0.38-3.03,0.48-4.55c0.07-1.11,0.01-2.23,0.01-3.48
		C137.32,386.69,132.68,386.3,127.86,385.89z M271.65,235.14c0.87,0.71,1.4,1.14,1.94,1.57c15.31,12.2,30.63,24.39,45.93,36.6
		c0.83,0.66,1.55,1.44,2.27,2.11c7.86-0.26,15.79-0.52,24.08-0.79c-0.67-0.58-1.04-0.93-1.43-1.23
		c-16.01-12.24-32.02-24.48-48.02-36.73c-0.79-0.61-1.6-0.91-2.63-0.94c-5.44-0.16-10.87-0.4-16.3-0.58
		C275.72,235.09,273.94,235.14,271.65,235.14z M117.69,325.61c3.03-1.86,6-3.49,8.77-5.41c4.17-2.88,8.79-4.53,13.74-4.87
		c5.54-0.39,11.11-0.27,16.66-0.36c0.72-0.01,1.44,0,2.57,0c-7.14-8.98-14.01-17.61-20.91-26.28c-0.81,0.5-1.48,0.87-2.11,1.3
		c-5.98,4.04-10.63,9.33-14.49,15.37c-2.85,4.46-4.36,9.34-4.87,14.58C116.86,321.83,117.1,323.63,117.69,325.61z M121.11,374.78
		c0-2.05-0.03-4.29,0.01-6.52c0.01-0.81-0.36-1.24-1-1.68c-3.98-2.71-6.24-6.59-7.08-11.22c-0.69-3.84-0.47-7.59,3.45-10.19
		c-1.13-1.98-2.23-3.89-3.37-5.88c-0.59,0.29-0.98,0.47-1.36,0.68c-2.14,1.17-4.44,1.64-6.85,1.41c-3.36-0.32-6.18-1.65-7.95-4.65
		c-0.51-0.86-0.77-1.87-1.19-2.91c-2.84,1.53-4.9,3.86-6.81,6.36c-0.6,0.79-0.7,1.49-0.38,2.47c0.94,2.88,0.88,5.79-0.17,8.66
		c-1.15,3.12-3.21,5.5-5.97,7.29c-0.66,0.43-1.26,0.82-1.35,1.72c-0.33,3.37-0.73,6.74-1.01,10.11c-0.04,0.54,0.28,1.25,0.66,1.66
		c1.3,1.41,2.1,3.05,2.59,4.86c1.12,4.14,0.96,8.24-0.59,12.24c-0.35,0.9-0.46,1.69-0.1,2.57c1.13,2.71,2.19,5.45,3.41,8.12
		c0.57,1.25,1.45,2.37,2.14,3.46c7.63-3.81,14.36-2.46,20.59,2.8c2.29-2.09,4.02-4.53,5.45-7.18c0.18-0.33,0.21-0.91,0.04-1.24
		c-1.45-2.89-1.5-5.92-0.97-9C114.24,383.28,116.26,378.4,121.11,374.78z M248.44,234.22c5.18,2.64,10.13,5.14,15.06,7.7
		c3.54,1.83,6.71,4.2,9.76,6.75c7.55,6.33,13.78,13.88,19.63,21.72c2.56,3.43,5.85,5.43,9.65,6.88c1.38,0.53,2.86,0.84,4.31,0.31
		c2.32-0.85,4.76-0.83,7.16-1.11c1.87-0.22,3.73-0.41,5.98-0.65c-0.82-0.71-1.28-1.13-1.77-1.52
		c-15.96-12.72-31.94-25.42-47.88-38.17c-1.17-0.93-2.35-1.38-3.83-1.41c-5.37-0.13-10.74-0.34-16.11-0.51
		C249.8,234.21,249.18,234.22,248.44,234.22z M227.04,236.22c0.01,0.1,0.02,0.19,0.03,0.29c0.5,0.06,1,0.11,1.5,0.17
		c3.23,0.41,6.51,0.6,9.68,1.28c7.07,1.51,13.51,4.5,19.64,8.39c7.15,4.54,13.56,9.81,19.04,16.25c3.39,4,6.82,7.97,10.38,11.83
		c3.86,4.2,8.61,7.21,13.74,9.65c1.09,0.52,2.13,0.58,3.32,0.25c6.99-1.91,14.09-3.27,21.34-3.58c6.9-0.3,13.81-0.56,20.72-0.65
		c32.32-0.44,64.64-0.81,96.96-1.2c0.6-0.01,1.2-0.07,1.81-0.11c-1.99-1.23-3.8-2.52-6.28-2.46c-6.84,0.18-13.69,0.13-20.54,0.21
		c-16.13,0.19-32.25,0.4-48.38,0.6c-10.17,0.13-20.35,0.25-30.52,0.38c-2.43,0.03-4.87-0.03-7.29,0.16
		c-5.67,0.44-11.34,0.93-16.99,1.55c-2.91,0.32-5.83,0.81-8.68,1.47c-1.71,0.4-3.29,0.37-4.86-0.27c-1.36-0.55-2.71-1.15-3.97-1.89
		c-3.81-2.23-6.88-5.34-9.51-8.82c-6.5-8.61-14.21-15.94-22.89-22.29c-6.11-4.47-12.56-8.35-19.68-11.05
		c-3.83-1.45-7.68-2.32-11.8-1.36C231.56,235.55,229.29,235.83,227.04,236.22z M130.38,288.8c-0.03-0.08-0.06-0.17-0.09-0.25
		c-0.17-0.02-0.35-0.07-0.52-0.06c-8.1,0.33-16.03,1.6-23.61,4.61c-13.38,5.31-23.12,14.38-28.44,27.91
		c-2.9,7.37-3.92,15.07-3.69,22.95c0.02,0.86,0.07,1.71,0.1,2.57c0.72-0.88,1.11-1.8,1.49-2.72c2.91-6.87,6.85-13.01,12.8-17.67
		c1.1-0.86,2.59-1.4,3.37-2.47c0.82-1.13,0.95-2.74,1.47-4.11c2.81-7.37,7.62-13.26,13.64-18.23c6.43-5.32,13.73-9.08,21.59-11.82
		C129.13,289.29,129.75,289.04,130.38,288.8z M166.11,314.98c0,0.16,0.01,0.31,0.01,0.47c0.61,0.06,1.22,0.14,1.83,0.18
		c9.5,0.7,19.03,1.18,28.5,2.15c11.33,1.16,22.69,1.84,34.05,2.53c0.32,0.02,0.65-0.11,1.27-0.22
		c-9.15-6.98-18.04-13.76-26.95-20.55C191.84,304.71,178.98,309.85,166.11,314.98z M201.46,299c-0.01-0.15-0.03-0.3-0.04-0.44
		c-20.17-1.01-40.16-3.22-59.57-9.14c-0.07,0.12-0.14,0.24-0.21,0.36c6.66,8.37,13.32,16.74,19.98,25.11
		C175.04,309.54,188.25,304.27,201.46,299z M361.16,239.59c0.66,0.48,1.32,0.97,1.99,1.45c14.68,10.36,29.37,20.73,44.05,31.09
		c0.52,0.37,1.1,0.71,1.49,1.19c0.48,0.59,1.04,0.61,1.7,0.6c7.55-0.1,15.09-0.19,22.64-0.29c0.4-0.01,0.8-0.1,1.64-0.21
		c-1.02-0.51-1.63-0.83-2.25-1.13c-15.06-7.18-30.12-14.36-45.17-21.54c-5.19-2.48-10.46-4.8-15.54-7.48
		C368.39,241.53,365.02,240.14,361.16,239.59z M334.27,425.48c1,0.07,1.47,0.13,1.95,0.12c4.03-0.06,8.06-0.29,12.08-0.15
		c2.86,0.1,5.25-0.84,7.49-2.38c7.63-5.21,12.93-12.25,16.24-20.83c0.24-0.62,0.36-1.29,0.56-2.01c-5.97,0-11.7,0-17.45,0
		C350.55,410.46,344.18,419.14,334.27,425.48z M537.45,398.58c-1.31,0.09-2.57,0.22-3.84,0.25c-0.89,0.02-1.3,0.5-1.75,1.2
		c-1.21,1.87-2.37,3.83-3.85,5.47c-8.34,9.26-21.73,9.57-30.47,0.71c-1.51-1.53-2.71-3.39-3.97-5.15c-0.44-0.62-0.81-1.05-1.64-1.06
		c-2.24,0-4.48-0.12-6.71-0.11c-0.83,0-1.66,0.24-2.49,0.36c-0.01,0.17-0.03,0.34-0.04,0.51c0.42,0.17,0.84,0.33,1.26,0.5
		c1.11,0.47,2.36,0.75,3.32,1.44c5.36,3.81,8.78,8.86,9.53,15.51c0.1,0.85,0.28,1.46,1.04,1.87c1.86,0.99,3.66,2.12,5.57,2.99
		c1.61,0.73,3.33,1.24,5.24,1.21c0.75-5.72,4.47-8.62,9.59-9.96c5.14-1.34,9.9-0.58,13.69,3.46c2.54-1.76,5.47-4.79,6.87-7.05
		C536.54,406.9,536.16,404.86,537.45,398.58z M133.32,290.02c-0.44,0-0.64-0.05-0.81,0.01c-9.77,2.98-18.76,7.39-26.41,14.28
		c-5.11,4.6-9.12,9.99-11.47,16.52c-0.18,0.51-0.28,1.04-0.49,1.84c7.71-3.07,14.72-2,21.36,2.52c-0.1-1.72-0.35-3.19-0.23-4.62
		c0.38-4.48,1.25-8.84,3.36-12.89c3.32-6.38,7.79-11.82,13.29-16.44C132.34,290.88,132.75,290.52,133.32,290.02z M276.09,394.71
		c-0.1-2.51-0.34-2.87-1.88-2.98c-7.08-0.51-14.16-1.02-21.25-1.52c-10.85-0.77-21.69-1.54-32.54-2.3
		c-11.61-0.81-23.23-1.59-34.84-2.41c-8.29-0.58-16.59-1.22-24.88-1.81c-9.19-0.66-18.38-1.3-27.56-1.94
		c-0.82-0.06-1.64-0.01-2.55-0.01c-0.18,0.87-0.34,1.66-0.55,2.66C178.83,388.16,227.47,391.2,276.09,394.71z M438.19,275.39
		c-1.15-1.17-2.2-1.24-3.3-1.22c-5.37,0.09-10.75,0.16-16.12,0.23c-16.57,0.19-33.14,0.37-49.71,0.57
		c-8.06,0.1-16.12,0.23-24.18,0.38c-5.82,0.1-11.64,0.13-17.45,0.42c-4.4,0.22-8.78,0.79-13.16,1.24c-2.73,0.28-5.48,0.36-8.12,1.28
		c-0.56,0.2-1.27,0.07-1.89-0.04c-3.03-0.51-5.66-1.97-8.14-3.68c-0.93-0.64-1.77-1.48-2.49-2.36c-3.82-4.64-7.52-9.37-11.38-13.96
		c-3.43-4.07-7.32-7.7-11.55-10.92c-7.22-5.5-15.31-9.46-23.74-12.72c-0.83-0.32-1.72-0.51-2.6-0.64c-0.44-0.06-0.92,0.14-1.82,0.3
		c0.69,0.26,0.92,0.36,1.16,0.44c5.43,1.79,10.5,4.36,15.35,7.37c11.91,7.42,22.08,16.76,30.61,27.89c3.08,4.02,6.8,7.28,11.52,9.3
		c1.77,0.76,3.51,0.84,5.42,0.38c2.48-0.59,5.02-0.96,7.55-1.25c4.07-0.45,8.15-0.78,12.22-1.12c3.57-0.29,7.14-0.67,10.71-0.75
		c8-0.18,15.99-0.2,23.99-0.29c21.82-0.23,43.63-0.46,65.45-0.69C430.28,275.53,434.05,275.46,438.19,275.39z M343.08,325.96
		c-1.74-2.49-4.87-5.49-7.82-7.57c-5.38-3.79-11.32-5.87-17.95-5.72c-0.66,0.01-1.32,0.16-2.03,0.25c0.47,2.67,1.64,4.72,3.29,6.45
		c5.31,5.55,11.77,8.47,19.53,8.17C339.83,327.46,341.5,327.03,343.08,325.96z M466.72,395.05c0.98,0,1.66,0,2.34,0
		c8.38-0.06,16.76-0.3,25.14-0.15c14.86,0.27,29.69-0.4,44.49-1.43c9.25-0.65,18.49-1.53,27.7-2.6c6.41-0.74,12.76-1.96,19.13-3.02
		c1.19-0.2,2.34-0.65,3.5-0.99c0.92-0.27,1.24-0.79,0.72-1.76c-0.54,0.09-1.03,0.17-1.53,0.26c-3.97,0.7-7.91,1.56-11.9,2.06
		c-9.33,1.16-18.66,2.34-28.02,3.15c-11.91,1.03-23.84,1.91-35.79,2.47c-10.16,0.48-20.34,0.48-30.51,0.56
		c-3.64,0.03-7.3-0.15-10.92-0.52C469.28,392.89,467.98,393.22,466.72,395.05z M351.41,340c-2.34,1.77-3.48,3.95-4.22,6.36
		c-0.99,3.24-1.04,6.54-0.39,9.85c1.14,5.83,3.74,10.82,8.44,14.59c0.31,0.25,0.71,0.39,1.34,0.73
		C356.98,360.56,355.51,350.21,351.41,340z M549.92,397.56c-1.33,3.1-2.36,6.08-3.83,8.81c-1.51,2.79-3.25,5.53-5.27,7.96
		c-1.98,2.39-4.3,4.57-6.76,6.47c-2.45,1.9-5.25,3.34-7.97,5.04c15.42-1.8,29.17-15.8,31.44-28.71
		C554.9,397.28,552.33,397.42,549.92,397.56z M342.3,411.61c4.86-4.89,12.12-20.27,11.72-24.77
		C341.46,388.44,336.28,402.23,342.3,411.61z M526.73,399.4c-9.46,0.2-18.52,0.38-27.57,0.57c-0.25,0.01-0.5,0.06-0.75,0.1
		c-0.05,0.01-0.12,0.05-0.15,0.09c-0.04,0.05-0.04,0.12-0.13,0.39c3.41,4.8,7.9,8.08,14.07,7.96
		C518.58,408.4,523.09,404.86,526.73,399.4z M332.45,420.7c-1.27-0.79-2.15-1.42-3.1-1.92c-2.72-1.41-5.67-1.99-8.7-2
		c-3.83-0.01-7.5,0.74-10.74,2.94c-1.43,0.97-2.67,2.13-3.39,4C315.62,426.98,324.02,425.7,332.45,420.7z M444.71,294.55
		c0.04-0.19,0.09-0.37,0.13-0.56c-0.72-0.38-1.43-0.78-2.16-1.15c-6.43-3.27-12.9-6.48-19.28-9.85c-1.43-0.76-2.79-1.05-4.35-0.97
		c-2.23,0.12-4.47,0.09-6.7,0.14c-0.54,0.01-1.08,0.08-2.05,0.16c0.94,0.51,1.47,0.83,2.02,1.1c5.46,2.78,10.94,5.54,16.39,8.34
		c5.32,2.73,5.31,2.75,11.29,2.77C441.57,294.55,443.14,294.55,444.71,294.55z M295.53,416.61c0.66-2.1,0.67-4.06,0.36-6.02
		c-0.85-5.35-3.23-9.93-7.05-13.76c-1.6-1.6-3.42-2.9-5.56-3.67c-0.62-0.22-1.28-0.33-2.04-0.52
		C283.21,401.06,289.96,412.39,295.53,416.61z M301.37,318.2c-5.72,2.83-14.19,13.63-15.32,18.03c4.93,1.43,9.74-0.37,12.77-4.9
		C301.46,327.38,302.19,323.01,301.37,318.2z M410.79,294.53c0.03-0.15,0.07-0.31,0.1-0.46c-0.37-0.22-0.74-0.47-1.13-0.67
		c-6.78-3.45-13.56-6.92-20.37-10.31c-0.82-0.41-1.83-0.57-2.76-0.59c-2.62-0.05-5.24,0.03-7.87,0.07c-0.4,0.01-0.8,0.09-1.63,0.19
		c0.96,0.53,1.5,0.84,2.05,1.12c5.47,2.79,11,5.47,16.39,8.39c2.9,1.57,5.85,2.44,9.14,2.27
		C406.74,294.45,408.76,294.53,410.79,294.53z M279.71,353.01c-1.82,8.26-2.31,16.24-1.52,24.61c5.3-3.57,7.97-8.21,7.76-14.22
		C285.8,359.03,283.86,355.5,279.71,353.01z M345.02,282.93c-0.03,0.12-0.05,0.25-0.08,0.37c0.18,0.13,0.35,0.29,0.55,0.4
		c6.67,3.39,13.34,6.79,20.03,10.13c0.72,0.36,1.58,0.53,2.39,0.56c2.81,0.11,5.63,0.12,8.44,0.14c0.39,0,0.77-0.14,1.51-0.28
		c-0.82-0.48-1.29-0.79-1.79-1.05c-4.96-2.52-10.03-4.85-14.85-7.61c-3.76-2.15-7.59-3.17-11.87-2.7
		C347.92,283.06,346.46,282.93,345.02,282.93z M479.79,283.6c-0.03,0.15-0.05,0.3-0.08,0.45c0.2,0.14,0.38,0.3,0.6,0.41
		c6.15,3.12,12.3,6.26,18.47,9.34c0.72,0.36,1.58,0.55,2.38,0.58c2.81,0.11,5.62,0.12,8.43,0.15c0.4,0,0.8-0.11,1.55-0.22
		c-0.67-0.45-1.01-0.72-1.39-0.91c-5.75-2.92-11.51-5.83-17.27-8.74c-0.39-0.2-0.82-0.43-1.25-0.46
		C487.42,283.98,483.6,283.8,479.79,283.6z M530.56,418.89c-1.11-1.66-2.58-2.43-4.18-2.87c-4.45-1.24-8.64-0.58-12.34,2.21
		c-1.13,0.85-1.98,2.13-2.77,3.34c-0.54,0.83-0.74,1.89-0.25,3.09C518.22,425.09,524.63,423.01,530.56,418.89z M107.78,406.89
		c-3.92-5.02-14.67-6.52-18.57-2.54C94.72,411.93,102.78,411.57,107.78,406.89z M569.16,326.9c0.11,0.13,0.23,0.26,0.34,0.39
		c3.26-1.84,6.52-3.67,9.76-5.54c0.29-0.17,0.51-0.57,0.62-0.9c1.21-3.92-0.35-7.86-4.12-10.23
		C573.55,316.06,571.36,321.48,569.16,326.9z M96.86,333.43c0.45,3.37,2.42,5.36,5.39,6.42c3.51,1.25,6.84,0.81,9.96-1.29
		C108.78,332.97,101.9,330.65,96.86,333.43z M116.7,346.36c-1.99,1.33-2.88,2.85-2.96,5.38c-0.17,5.3,1.88,9.68,5.77,13.23
		c0.36,0.32,0.81,0.54,1.27,0.83C121.39,361.74,118.97,350.22,116.7,346.36z M115.05,396.98c2.68-3.88,5.96-16.26,5.43-20.17
		C115.53,379.65,112.36,391.19,115.05,396.98z M495.13,417.78c-0.1-0.76-0.1-1.27-0.23-1.75c-1.4-4.9-4.13-8.9-8.28-11.9
		c-0.56-0.41-1.22-0.7-1.86-0.98c-0.29-0.13-0.65-0.09-1.05-0.13C485.19,408.01,490.98,415.52,495.13,417.78z M539.86,409.44
		c2.54-3.75,4.27-7.29,5.54-11.37c-1.63,0.09-2.95,0.13-4.27,0.24c-1.44,0.12-2.18,0.74-2.53,2.16c-0.53,2.14-0.6,4.29,0.07,6.41
		C538.91,407.62,539.33,408.32,539.86,409.44z M496.13,400.11c1.66,5.65,10.22,11.04,16.68,10.74c6.99-0.32,15.26-6.1,16.64-11.65
		c-0.92-0.35-1.19,0.37-1.63,0.9c-1.34,1.62-2.56,3.39-4.12,4.78c-4.61,4.14-10.04,5.49-16.06,4.03c-4.42-1.07-7.77-3.77-10.45-7.37
		C496.86,401.06,496.49,400.58,496.13,400.11z M81.7,357.66c5.03-2.16,8.45-10.52,5.61-14.93C84.61,347.41,82.81,352.32,81.7,357.66
		z M81.94,388.15c1.3-3.12,1.39-6.34,0.77-9.56c-0.29-1.53-1.02-2.99-1.61-4.45c-0.13-0.32-0.52-0.55-1.02-1.05
		C80.1,378.43,80.54,383.33,81.94,388.15z"/>
</g>
</svg>
