<?xml version="1.0" encoding="utf-8"?>
<!-- Generator: Adobe Illustrator 25.3.1, SVG Export Plug-In . SVG Version: 6.00 Build 0)  -->
<svg version="1.1" id="图层_1" xmlns="http://www.w3.org/2000/svg" xmlns:xlink="http://www.w3.org/1999/xlink" x="0px" y="0px"
	 viewBox="0 0 640 640" style="enable-background:new 0 0 640 640;" xml:space="preserve">
<style type="text/css">
	.st0{fill:#B575D5;}
	.st1{fill:#574D93;}
	.st2{fill:#F1D1E8;}
	.st3{fill:#C3FFFF;}
	.st4{fill:#FEBAF5;}
	.st5{fill:#FEED4C;}
	.st6{fill:#9844C8;}
	.st7{fill:#E736A6;}
	.st8{fill:#E593FF;}
	.st9{fill:#8FFDFF;}
	.st10{fill:#FFFFFF;}
	.st11{fill:#FFA3B3;}
</style>
<g>
	<path d="M478.67,397.79c-28.08,0.41-55.92,0.82-83.97,1.23c-0.3,0.84-0.61,1.69-0.9,2.54c-3.19,9.41-7.81,18.02-14.41,25.49
		c-3.48,3.94-7.39,7.34-12.49,9.03c-1.26,0.42-2.62,0.68-3.94,0.72c-9.69,0.27-19.37,0.46-29.06,0.69
		c-1.92,0.04-3.85,0.18-5.77,0.15c-0.9-0.01-1.8-0.28-2.69-0.46c-0.81-0.16-1.61-0.52-2.41-0.51c-23.83,0.39-41.08-10.48-52.8-30.8
		c-0.92-1.6-1.79-3.26-2.41-4.99c-0.51-1.41-1.34-1.77-2.71-1.8c-5.41-0.11-10.82-0.31-16.24-0.46
		c-12.46-0.36-24.93-0.69-37.39-1.07c-21.01-0.64-42.01-1.3-63.02-1.95c-3.77-0.12-7.55-0.24-11.32-0.35c-0.63-0.02-1.27,0-2.1,0
		c-0.12,0.76-0.23,1.44-0.33,2.12c-1.17,8.25-3.95,15.86-8.95,22.59c-2.03,2.73-4.47,4.98-7.69,6.25c-0.65,0.26-1.35,0.49-2.04,0.54
		c-8.38,0.58-16.77,1.17-25.16,1.67c-2.9,0.17-5.81,0.18-8.72,0.13c-5.52-0.08-10.45-1.97-14.93-5.1
		c-5.92-4.14-10.2-9.68-13.39-16.09c-4.51-9.08-6.8-18.71-6.81-28.84c-0.01-3.91,0.29-7.81,0.45-11.83
		c0.01,0.01-0.05-0.14-0.16-0.21c-4.59-2.67-5.99-6.93-6.13-11.92c-0.51-18.23-1.07-36.45-1.63-54.68
		c-0.07-2.28-0.22-4.55-0.44-6.82c-0.48-4.89,1.89-8.19,5.91-10.47c1.78-1.01,3.72-1.78,5.66-2.46c3.02-1.06,6.15-1.81,9.14-2.96
		c3.24-1.25,6.43-2.69,9.52-4.27c1.5-0.76,2.73-2.03,4.1-3.05c20.32-15.17,40.64-30.33,60.97-45.5c5.25-3.92,10.52-7.81,15.76-11.75
		c2.09-1.57,4.35-2.71,6.96-3.03c2.61-0.31,5.22-0.74,7.84-0.77c14.96-0.19,29.92-0.3,44.88-0.41c33.56-0.24,67.11-0.45,100.67-0.68
		c15.1-0.1,30.21-0.23,45.31-0.35c2.56-0.02,5.12,0.11,7.66-0.09c1.44-0.12,2.67,0.27,3.93,0.72
		c66.85,23.98,133.71,47.96,200.56,71.95c9.18,3.29,18.35,6.6,27.53,9.86c0.92,0.33,1.91,0.49,2.88,0.64
		c2.4,0.38,3.34,1.38,3.76,3.87c2.48,14.54,2.88,29.19,2.26,43.87c-0.47,11.33-1.66,22.59-4.57,33.59
		c-1.02,3.84-2.41,7.6-3.92,11.27c-2.44,5.94-7.21,9.42-13.13,11.35c-1.64,0.53-2.33,1.33-2.79,2.96
		c-4.04,14.54-13.16,24.93-26.63,31.4c-13.44,6.45-27.4,7.17-41.6,2.64c-6-1.91-11.76-4.34-16.7-8.39
		c-7.44-6.09-12.33-13.89-15.59-22.83C479.22,399.45,478.98,398.7,478.67,397.79z M45.15,303.29c0.33,0.55,0.44,1,0.65,1.04
		c0.54,0.12,1.13,0.09,1.7,0.08c13.39-0.1,26.79-0.21,40.18-0.29c20.02-0.12,40.04-0.21,60.06-0.34c20.87-0.13,41.75-0.3,62.62-0.43
		c16.74-0.11,33.49-0.19,50.23-0.28c1.57-0.01,3.14-0.07,4.7-0.01c1.37,0.05,1.77,0.78,1.14,1.96c-0.23,0.44-0.54,0.84-0.82,1.25
		c-5.54,8.46-11.07,16.93-16.61,25.39c-7.68,11.74-15.38,23.48-23.02,35.25c-0.81,1.25-1.6,1.87-3.24,1.77
		c-4.69-0.29-9.4-0.33-14.1-0.46c-6.76-0.2-13.53-0.39-20.29-0.61c-11.39-0.37-22.78-0.76-34.18-1.12
		c-7.69-0.25-15.38-0.48-23.07-0.7c-0.47-0.01-0.94,0.09-1.43,0.15c0.18,3.46,0.36,6.78,0.54,10.07
		c3.01,0.57,123.48,4.82,125.34,4.39c0-0.72,0.02-1.49,0-2.25c-0.15-6.44,0.45-12.81,1.86-19.09c3.92-17.45,12.25-32.34,26.37-43.53
		c16.38-12.98,34.87-17.34,55.23-11.86c14.28,3.84,25.63,12.22,34.4,24c12.2,16.4,16.65,35,15.15,55.19
		c-0.08,1.04-0.22,2.08-0.34,3.26c1.22,0,2.23,0,3.37,0c1-29.26,2-58.35,3-87.5c-2.42-1.34-4.7-2.81-7.14-3.93
		c-57.2-26.23-114.42-52.42-171.61-78.67c-2.92-1.34-5.78-2.29-9.02-1.9c-1.34,0.16-2.7,0.06-4.06,0.07
		c-14.02,0.15-28.04,0.29-42.06,0.44c-0.64,0.01-1.29,0.01-1.92,0.09c-2.37,0.3-4.62,0.84-6.19,2.91c-0.38,0.49-0.97,0.83-1.48,1.22
		c-22.21,16.58-44.41,33.15-66.62,49.72c-5.53,4.13-10.93,8.46-17.18,11.52c-0.12,0.06-0.21,0.18-0.48,0.42c0,0.63,0,1.41,0,2.18
		c0,5.63,0.04,11.26,0,16.88c-0.02,2.42-0.35,2.68-2.72,2.77c-4.06,0.15-8.11,0.3-12.17,0.48
		C49.77,302.94,47.59,303.13,45.15,303.29z M217.12,213.95c-0.03,0.17-0.07,0.34-0.1,0.51c0.73,0.35,1.45,0.72,2.18,1.06
		c58.5,26.79,117,53.58,175.49,80.4c1.6,0.74,3.18,1.06,4.94,1.03c21.37-0.29,42.74-0.55,64.11-0.81
		c23.29-0.28,46.59-0.56,69.88-0.84c18.88-0.23,37.76-0.45,56.64-0.68c0.52-0.01,1.04-0.1,1.64-0.15c-0.74-1.37-1.93-1.66-3.07-2.07
		c-37.38-13.4-74.76-26.8-112.13-40.21c-36.24-13-72.47-26.01-108.72-38.98c-1.1-0.39-2.34-0.52-3.52-0.52
		c-2.77,0-5.54,0.2-8.31,0.23c-14.53,0.13-29.07,0.22-43.6,0.33c-30.99,0.23-61.98,0.47-92.97,0.7
		C218.75,213.95,217.94,213.95,217.12,213.95z M589.26,299.5c-0.17,0.53-0.37,1.05-0.51,1.59c-0.71,2.76-1.41,5.52-2.11,8.28
		c-3.21,12.7-6.41,25.4-9.63,38.1c-0.62,2.46-0.93,2.72-3.06,2.73c-21.09,0.11-42.17,0.18-63.26,0.35c-2.1,0.02-3.36-0.63-4.51-2.42
		c-9.53-14.87-19.17-29.68-28.72-44.53c-0.78-1.21-1.61-1.77-3.08-1.7c-4.48,0.22-8.96,0.35-13.45,0.44
		c-7.05,0.13-14.1,0.2-21.16,0.28c-13.89,0.15-27.78,0.3-41.67,0.45c-0.54,0.01-1.08,0.1-1.74,0.17c-0.17,4.73-0.33,9.34-0.49,13.99
		c0.7,0.21,1.24,0.39,1.78,0.54c19.99,5.4,39.98,10.81,59.97,16.2c8.38,2.26,16.76,4.53,25.15,6.75c0.85,0.22,1.72,0.21,1.78,1.4
		c0.07,1.24-0.88,1.28-1.68,1.52c-0.14,0.04-0.28,0.06-0.42,0.09c-26.17,5.89-52.35,11.77-78.52,17.66
		c-3.18,0.72-6.35,1.46-9.65,2.23c-0.28,8.19-0.56,16.26-0.84,24.53c-4.78,0.4-9.49-0.63-14.26-0.29c-0.53,1.87-1.03,3.62-1.62,5.72
		c3.52,0,6.78,0,10.05,0c1.41,0,2.82,0.21,4.18-0.53c0.43-0.24,1.11-0.08,1.67-0.02c0.98,0.09,1.95,0.35,2.93,0.35
		c3.42,0.01,6.84-0.11,10.26-0.07c1.75,0.02,3.33-0.36,4.93-1.09c24.34-11.12,48.71-22.19,73.06-33.28
		c0.83-0.38,1.66-0.74,2.37-1.05c3.65,3.2,7.18,6.18,10.57,9.33c1.41,1.31,2.83,1.77,4.75,1.74c24.29-0.34,48.58-0.6,72.88-0.83
		c1.13-0.01,1.84-0.36,2.56-1.12c2.78-2.96,5.6-5.88,8.43-8.79c1.28-1.31,2.63-2.56,4.02-3.9c1.12,0.76,2.17,1.48,3.22,2.19
		c1.07,0.73,2.14,1.46,3.54,2.42c0.56-5.47,1.3-10.49,1.54-15.52c0.47-10.02,0.69-20.05,0.94-30.08c0.09-3.56,0.01-7.12-0.08-10.68
		c-0.04-1.46-0.31-2.92-0.48-4.41C595.53,298.68,592.44,299.09,589.26,299.5z M464.98,392.42c1,0,1.54,0.01,2.08,0
		c10.61-0.16,21.22-0.32,31.84-0.48c24.07-0.36,48.15-0.71,72.22-1.1c2.27-0.04,4.56-0.16,6.79-0.53c1.8-0.3,3.67-0.76,5.26-1.61
		c3.73-2,6.54-4.93,8.24-8.92c2.42-5.68,3.76-11.63,4.73-17.69c0.08-0.48-0.09-1.22-0.42-1.49c-1.7-1.37-3.5-2.62-5.32-3.96
		c-4.62,4.8-9.05,9.41-13.22,13.74c-1.72-0.17-3.1-0.41-4.47-0.43c-2.21-0.03-4.41,0.11-6.62,0.13c-21.87,0.23-43.73,0.44-65.6,0.7
		c-1.33,0.02-2.28-0.42-3.23-1.27c-3.12-2.81-6.33-5.53-9.45-8.34c-0.87-0.79-1.59-0.87-2.66-0.37c-4.12,1.94-8.28,3.78-12.43,5.67
		c-18.52,8.43-37.05,16.86-55.57,25.29c-0.59,0.27-1.15,0.62-1.73,0.93c0.47,0.32,0.82,0.37,1.16,0.37
		c6.7-0.07,13.39-0.1,20.09-0.25c1.31-0.03,2.69-0.33,3.9-0.83c7.17-2.96,14.3-6.02,21.44-9.04c4.59-1.94,9.17-3.89,13.76-5.82
		c0.58-0.24,1.22-0.62,1.75,0.04c0.59,0.73,0.11,1.32-0.38,1.87c-0.28,0.32-0.58,0.63-0.87,0.94c-3.23,3.51-6.47,7.02-9.69,10.54
		C466.12,391.01,465.71,391.55,464.98,392.42z M258.12,305.8c-0.01-0.15-0.02-0.3-0.03-0.46c-16.71,1.64-33.42,3.29-50.14,4.93
		c-16.79,1.65-33.57,3.4-50.38,4.9c-20.08,1.8-48.67,4.74-49.89,5.33c0.07,0.12,0.12,0.27,0.22,0.35
		c8.28,7.18,13.7,16.26,17.48,26.42c0.23,0.63,0.6,1.21,0.94,1.88C170.4,334.66,214.26,320.23,258.12,305.8z M255.08,309.14
		c-0.05-0.14-0.1-0.28-0.14-0.42c-42.75,14.13-85.5,28.26-128.18,42.37c0.98,4.39,1.91,8.53,2.81,12.56
		c0.51,0.09,0.72,0.15,0.93,0.16c9.33,0.29,18.66,0.46,27.98,0.94c3.14,0.16,5.64-0.66,8.29-2.27
		c28.81-17.47,57.68-34.82,86.54-52.21C253.9,309.91,254.49,309.52,255.08,309.14z M117.1,375.76c3.72,0.14,7.31,0.27,11.23,0.41
		c-0.14-2.6-0.22-4.99-0.39-7.38c-0.61-8.52-2.49-16.74-5.78-24.62c-3.6-8.59-8.56-16.26-15.9-22.15
		c-10.97-8.78-23.17-11.14-36.48-6.39c-9.49,3.38-16.78,9.76-22.84,17.64c-0.43,0.56-0.65,1.43-0.65,2.15
		c0,2.42,0.18,4.84,0.22,7.26c0.08,4.69,0.07,9.39,0.17,14.08c0.03,1.57,0.67,2.91,2.11,4.07c0.22-0.69,0.36-1.08,0.47-1.48
		c1.31-4.83,3.09-9.47,5.61-13.81c3.15-5.43,7.09-10.18,12.49-13.51c8.58-5.3,17.42-5.7,26.38-1c5.96,3.13,10.41,7.89,13.96,13.51
		c4.71,7.46,7.42,15.66,8.65,24.36C116.64,371.14,116.84,373.4,117.1,375.76z M116.56,388.83c2.66,0.56,146.66,4.75,148.32,4.32
		c-0.73-3.31-1.46-6.63-2.25-10.17c-48.4-1.76-96.82-3.51-145.36-5.28C117.02,381.52,116.79,385.18,116.56,388.83z M241.19,305.22
		c-0.01-0.1-0.01-0.21-0.02-0.31c-65.21,0.47-130.42,0.95-195.86,1.42c0.42,8.22,0.39,16.14,1.06,24.09
		c0.86-0.67,1.5-1.41,2.15-2.13c4.8-5.37,10.31-9.82,16.84-12.91c8.6-4.06,17.53-5.24,26.82-2.77c3.88,1.03,7.5,2.67,10.91,4.79
		c0.89,0.55,1.73,1.16,2.94,1.03c7.3-0.76,14.6-1.45,21.9-2.16c11.06-1.08,22.11-2.16,33.17-3.24c10.92-1.06,21.83-2.1,32.75-3.16
		c11.27-1.09,22.54-2.19,33.81-3.29C232.18,306.14,236.68,305.68,241.19,305.22z M262.46,380.85c0-0.71,0.05-1.34-0.01-1.96
		c-0.64-6.45,0.03-12.82,1.42-19.1c3.67-16.57,12.08-30.18,25.98-40.11c22.68-16.22,52.42-14.11,72.22,5.4
		c14.85,14.64,20.45,32.79,18.67,53.38c-0.21,2.38-0.63,4.74-0.98,7.32c2.19,0.12,4.23,0.23,6.21,0.34
		c0.16-0.36,0.29-0.54,0.33-0.74c0.09-0.42,0.14-0.84,0.19-1.27c0.9-8.56,0.57-17.07-1.25-25.49
		c-3.46-15.92-10.83-29.63-23.23-40.37c-11.3-9.79-24.47-14.97-39.48-14.92c-12.62,0.05-24.21,3.81-34.33,11.31
		c-21.73,16.11-30.93,38.3-30.73,64.86c0,0.41,0.12,0.82,0.21,1.35C259.29,380.85,260.81,380.85,262.46,380.85z M167.32,364.39
		c0.03,0.18,0.06,0.36,0.08,0.54c0.76,0.05,1.51,0.13,2.27,0.15c3.13,0.09,6.27,0.14,9.4,0.24c7.4,0.23,14.81,0.47,22.21,0.75
		c1.16,0.04,1.98-0.31,2.8-1.14c17.7-17.97,35.42-35.9,53.14-53.85c0.35-0.36,0.63-0.79,0.95-1.19c-0.09-0.09-0.17-0.18-0.26-0.27
		C227.72,327.87,197.52,346.13,167.32,364.39z M394.35,361.62c27.92-6.29,55.45-12.5,82.98-18.7c-7.06-1.14-80.12-4.11-82.2-3.6
		C394.87,346.57,394.62,353.87,394.35,361.62z M595.7,296.81c-0.02-0.12-0.03-0.23-0.05-0.35c-0.99,0-1.99-0.01-2.98,0
		c-14.6,0.2-29.2,0.41-43.8,0.6c-10.47,0.14-20.94,0.26-31.41,0.39c-25.28,0.3-50.57,0.6-75.85,0.9
		c-13.67,0.16-27.35,0.32-41.02,0.48c-1.14,0.01-2.28,0.04-3.42,0.09c-0.19,0.01-0.37,0.17-0.68,0.32c0.05,0.58,0.09,1.17,0.15,1.86
		c0.81,0,1.45,0.01,2.08,0c19.87-0.3,39.73-0.6,59.6-0.9c5.41-0.08,10.83-0.05,16.24-0.24c2.1-0.08,3.32,0.6,4.47,2.4
		c9.51,14.88,19.14,29.68,28.72,44.52c0.64,0.99,1.19,1.72,2.63,1.71c20.58-0.13,41.17-0.18,61.75-0.25c0.84,0,1.68-0.09,2.59-0.14
		c0.24-0.8,0.46-1.47,0.63-2.14c2.48-9.8,4.96-19.6,7.43-29.4c1.45-5.73,2.88-11.46,4.33-17.19c0.4-1.6,0.53-1.7,2.13-1.87
		c0.5-0.05,1-0.05,1.49-0.11C592.39,297.28,594.04,297.04,595.7,296.81z M268.32,377.73c0.55-0.4,1.06-0.74,1.53-1.12
		c5.9-4.82,11.79-9.65,17.68-14.47c3.78-3.1,3.74-3.1,3.98-7.94c0.37-7.32,0.82-14.63,1.22-21.95c0.14-2.53,0.22-5.06,0.33-7.68
		C278.75,331.32,264.77,361.39,268.32,377.73z M374.59,360.71c-0.19-0.13-0.39-0.27-0.58-0.4c-0.14,0.33-0.22,0.71-0.43,0.99
		c-6.47,8.58-12.96,17.14-19.4,25.74c-0.47,0.63-0.76,1.55-0.76,2.34c-0.07,9.32-0.07,18.64-0.07,27.96c0,0.43,0.17,0.87,0.32,1.6
		c8.66-7.3,14.63-16.06,18.27-26.4C375.58,382.16,376.48,371.54,374.59,360.71z M347.36,321.12c-15.28-9.63-37.63-8.24-50.98,1.25
		c7.68,5.21,15.32,10.4,22.99,15.61C328.77,332.33,338.02,326.75,347.36,321.12z M299.27,426.11c0.03-0.5,0.1-0.98,0.08-1.46
		c-0.34-8.03-0.71-16.07-1.03-24.1c-0.05-1.28-0.56-2.02-1.72-2.62c-8.84-4.58-17.65-9.23-26.47-13.85
		c-0.36-0.19-0.75-0.34-1.17-0.53C268.27,397.88,285.81,422.47,299.27,426.11z M300.34,400.84c-0.23,4.82,0.87,24.69,1.5,26.67
		c7.5-5.22,14.94-10.4,22.34-15.55c-0.15-0.32-0.22-0.44-0.26-0.56c-0.15-0.49-0.29-0.98-0.43-1.47c0.52-0.09,1.03-0.21,1.55-0.24
		c0.18-0.01,0.38,0.18,0.57,0.26c7.97,3.23,15.95,6.46,23.93,9.67c0.57,0.23,1.16,0.39,1.79,0.6c0.4-5.41,0.26-27.98-0.23-29.86
		c-4.97,9.34-12.07,15.89-22.54,18.13C317.99,410.76,308.75,407.84,300.34,400.84z M344.78,431.57c0.26,0.03,0.51,0.09,0.77,0.08
		c5.12-0.11,10.24-0.25,15.37-0.33c3.47-0.05,6.58-1.05,9.27-3.26c1.1-0.9,2.21-1.8,3.2-2.81c7.86-8.01,12.84-17.65,16-28.31
		c0.11-0.39,0.08-0.82,0.13-1.36c-4.28,0-8.46,0-12.74,0c-2.94,7.72-7.08,14.73-12.58,20.91
		C358.67,422.7,352.13,427.6,344.78,431.57z M260.27,311.18c-4.38,3.36-53.32,53.41-54.1,54.96c0.67,0.05,1.29,0.13,1.91,0.15
		c4.48,0.15,8.97,0.2,13.44,0.48c1.65,0.1,2.55-0.36,3.45-1.74c10.49-16.09,21.06-32.14,31.6-48.19
		C257.8,314.96,259.03,313.07,260.27,311.18z M373.6,356.32c-2.81-13.06-14.18-29.44-22.82-32.95c-0.74,9.59-1.47,19.11-2.21,28.76
		C357.01,353.55,365.19,354.92,373.6,356.32z M304.15,428.4c9.19,3.1,18.09,3.54,27.09,1.57c6.6-1.45,12.75-4.02,18.43-8.13
		c-0.6-0.29-0.91-0.46-1.24-0.59c-6.65-2.69-13.32-5.34-19.94-8.1c-1.29-0.54-2.18-0.37-3.29,0.42
		c-6.44,4.56-12.93,9.04-19.41,13.56C305.34,427.45,304.91,427.81,304.15,428.4z M321.19,375.89c-3.31,2.69-5.65,5.69-7.14,9.31
		c-2.22,5.42-2.1,10.81,0.38,16.14c0.49,1.05,1.17,1.67,2.34,1.92c2.9,0.62,5.79,0.7,8.68,0.1c5.31-1.12,9.51-4.02,12.9-8.17
		c0.74-0.91,1.38-1.91,2.25-3.13C330.78,390.56,323.91,385.88,321.19,375.89z M100.29,421.82c0.08,0.13,0.16,0.26,0.24,0.39
		c4.32-0.28,8.64-0.64,12.97-0.81c2.62-0.1,4.64-1.21,6.32-3.06c0.91-1,1.78-2.04,2.53-3.15c3.25-4.85,5.3-10.2,6.41-15.91
		c0.25-1.3,0.38-2.63,0.59-4.19c-4.76-0.16-9.28-0.32-13.91-0.48C112.89,405.17,108.51,414.57,100.29,421.82z M472.24,340.37
		c0.01-0.12,0.01-0.24,0.02-0.36c-0.46-0.15-0.92-0.33-1.38-0.46c-13.93-3.76-27.87-7.51-41.8-11.29c-1.15-0.31-2.19-0.3-3.33,0.06
		c-8.48,2.64-16.99,5.23-25.48,7.85c-0.48,0.15-0.94,0.4-1.41,0.6c0.02,0.12,0.04,0.25,0.07,0.37
		C423.36,338.21,447.8,339.29,472.24,340.37z M322.22,372.15c0.44-0.82,0.8-1.42,1.12-2.05c2.01-4.04,2.82-8.35,2.74-12.81
		c-0.07-3.94-0.9-7.75-2.65-11.34c-0.47-0.97-1.07-1.35-2.14-1.32c-5.11,0.14-9.58,1.93-13.46,5.2c-1.9,1.6-3.63,3.36-4.84,5.59
		C314.26,360.55,314.98,361.17,322.22,372.15z M294.57,394.7c0.12-0.1,0.23-0.2,0.35-0.29c-6.1-9.99-7.6-20.61-4.18-32.23
		c-0.73,0.5-1.1,0.71-1.41,0.98c-6.96,5.75-13.91,11.51-20.87,17.27c-0.04,0.04-0.04,0.13-0.04,0.2c0,0.07,0.02,0.13,0.08,0.41
		C277.11,385.55,285.84,390.12,294.57,394.7z M324.23,372.79c3.07,0.55,5.81,0.29,8.53-0.35c3.95-0.93,7.48-2.69,10.59-5.31
		c0.7-0.59,1.19-1.2,0.89-2.2c-2.49-8.45-7.08-15.18-15.44-18.81c-1.01-0.44-2.1-0.67-3.55-1.12
		C329.18,354.6,328.87,363.68,324.23,372.79z M111.48,383.26c-0.18-0.08-0.36-0.17-0.54-0.25c-0.51,0.46-1.04,0.9-1.53,1.39
		c-3.76,3.68-7.5,7.39-11.29,11.04c-0.75,0.72-1.21,1.5-1.48,2.5c-1.92,6.99-3.88,13.97-5.82,20.96c-0.2,0.73-0.35,1.47-0.54,2.29
		c0.38-0.03,0.6,0.01,0.77-0.06c0.52-0.23,1.03-0.48,1.53-0.76c4.07-2.25,7.25-5.47,9.88-9.26c4.12-5.94,6.57-12.58,7.87-19.65
		C110.83,388.75,111.11,386,111.48,383.26z M322.3,338.49c0.06,0.13,0.12,0.26,0.18,0.39c1.82,0.25,3.67,0.39,5.47,0.78
		c1.8,0.39,3.59,0.92,5.31,1.6c1.65,0.65,3.26,1.45,4.77,2.38c1.57,0.96,3.07,2.08,4.49,3.26c1.38,1.15,2.62,2.47,4.04,3.81
		c0.99-5.64,2.37-26.13,1.85-27.93C339.67,328.02,330.98,333.25,322.3,338.49z M293.36,355.31c0.15,0.06,0.31,0.13,0.46,0.19
		c5.4-8.88,13.14-14.42,23.88-16.35c-7.73-5.25-14.99-10.17-22.58-15.33C294.51,334.64,293.94,344.98,293.36,355.31z M373.45,358.29
		c-4.33-0.74-8.23-1.46-12.16-2.05c-3.94-0.6-7.83-1.56-12.22-1.84c5.6,9.6,6.89,19.46,4.29,29.87c0.14,0.02,0.27,0.04,0.41,0.05
		C360.25,375.76,366.71,367.2,373.45,358.29z M499.22,419.89c8.95,9.12,29.67,11.24,38.96,4.07c-0.26-0.15-0.48-0.31-0.72-0.42
		c-6.02-2.56-12.03-5.14-18.08-7.62c-0.78-0.32-1.82-0.3-2.67-0.12c-4.38,0.95-8.73,2.01-13.09,3.04
		C502.2,419.18,500.77,419.52,499.22,419.89z M319.36,374.83c-4.19-1.02-7.84-1.34-11.54-0.66c-3.34,0.61-6.42,1.79-9.11,3.91
		c-0.63,0.5-1.06,0.97-0.89,1.95c1.54,8.64,5.37,15.82,12.93,20.67c0.37,0.23,0.8,0.36,1.55,0.69c-1.93-4.94-2.28-9.6-0.94-14.34
		C312.71,382.29,315.44,378.39,319.36,374.83z M323.14,374.67c0.15,0.88,0.21,1.51,0.36,2.1c2.03,7.64,9.38,12.55,16.88,13.2
		c1.15,0.1,1.64-0.43,2.06-1.38c1.69-3.73,2.61-7.66,2.95-11.71c0.23-2.72,0.28-5.47-0.55-8.37
		C338.46,373.46,331.48,375.9,323.14,374.67z M536.85,429.68c0.55-0.06,1.11-0.09,1.66-0.19c6.46-1.18,12.47-3.52,17.95-7.13
		c8.8-5.8,15.06-13.6,18.37-23.67c0.23-0.7,0.37-1.42,0.55-2.16c-3.32,0-6.36,0-9.52,0C561.2,412.02,551.73,423.2,536.85,429.68z
		 M71.14,336.31c0.2,0.28,0.29,0.47,0.45,0.61c3.79,3.44,7.59,6.87,11.36,10.33c0.65,0.6,1.27,0.7,2.12,0.54
		c4.75-0.88,9.51-1.68,14.27-2.52c0.52-0.09,1.04-0.23,1.62-0.36C93.51,333.9,80.82,330.29,71.14,336.31z M297.76,376.27
		c6.75-4.73,14.22-5.12,22.03-3.42c-1.43-6.49-12.43-15.57-18.22-15.19C298.46,362.8,296.37,372.77,297.76,376.27z M423.31,327.07
		c0-0.12,0-0.24,0.01-0.35c-9.06-2.45-18.12-4.89-27.51-7.43c-0.19,5.58-0.36,10.87-0.55,16.42
		C404.77,332.78,414.04,329.93,423.31,327.07z M91.78,394.3c-7.47-1.51-10.25-6.86-11.74-13.47c-0.38,0.32-0.63,0.45-0.77,0.65
		c-4.51,6.53-5.4,13.58-2.97,21.1c0.27,0.83,0.84,1.24,1.64,1.5c2.87,0.96,5.47,0.36,7.84-1.38
		C88.61,400.62,90.36,397.74,91.78,394.3z M547.54,397.6c-1.7,8.06-3.35,15.88-5,23.71c0.15,0.08,0.29,0.15,0.44,0.23
		c8-5.5,13.62-12.86,17.11-22.32C555.75,398.65,551.71,398.13,547.54,397.6z M67.75,338.79c-7.57,5.37-15.64,23.04-14.46,31.05
		c0.13-0.04,0.3-0.04,0.38-0.13c3.93-4.11,7.88-8.21,11.75-12.37c0.47-0.51,0.69-1.38,0.76-2.11c0.38-3.96,0.67-7.93,1.02-11.89
		C67.32,341.94,67.53,340.54,67.75,338.79z M81.88,377.82c0.44,0.1,0.71,0.2,0.99,0.22c3.99,0.3,9-2.53,10.78-6.12
		c0.2-0.4,0.24-0.95,0.16-1.4c-0.74-4.25-2.14-8.26-4.61-11.83c-1.43-2.07-3.17-3.85-5.58-4.81c-0.4-0.16-0.87-0.14-1.45-0.22
		C84.72,361.87,84.5,369.85,81.88,377.82z M77.14,409.82c-5.63-0.4-13.72-0.28-15.1,0.24c5.05,8.79,16.6,14.88,23.81,12.36
		C82.96,418.23,80.11,414.11,77.14,409.82z M64.84,281.37c-0.54,0.14-0.94,0.23-1.32,0.35c-3.24,1.06-6.49,2.11-9.72,3.22
		c-1.68,0.58-3.37,1.16-4.95,1.95c-3.89,1.94-4.57,3.08-3.83,6.77c0.02,0.12,0.13,0.23,0.2,0.35c2.61,0.26,18.39-0.72,19.62-1.22
		C64.84,289.03,64.84,285.29,64.84,281.37z M111.16,377.48c0.74-7.63-3.26-23.61-7.93-28.86c-1.31,5.32-2.62,10.52-3.84,15.75
		c-0.11,0.49,0.19,1.26,0.57,1.65C103.55,369.76,107.2,373.44,111.16,377.48z M80.49,353.29c-4.77,0.32-9.55,4.76-10.8,10
		c5.77,2.78,8.66,7.95,10.89,13.85C83.65,370.68,83.61,359.13,80.49,353.29z M545.07,399.99c-5.12,8.41-12.23,13.72-22.22,15.04
		c5.77,2.62,11.48,5.18,17.45,7.57C541.94,414.86,543.5,407.42,545.07,399.99z M495.79,397.6c-0.16,0.07-0.31,0.14-0.47,0.22
		c-0.04,0.26-0.11,0.53-0.11,0.79c0.08,5.75,0.16,11.51,0.28,17.26c0.04,1.9,1.06,2.64,2.97,2.2c4.85-1.1,9.68-2.24,14.52-3.38
		c0.43-0.1,0.83-0.34,1.23-0.51c-2.03-0.9-4.06-1.6-5.88-2.66c-1.83-1.06-3.59-2.32-5.15-3.75c-1.55-1.43-2.93-3.1-4.17-4.82
		C497.8,401.27,496.86,399.39,495.79,397.6z M92.33,392.36c1.84-2.97,3.01-14.2,1.78-18.56c-3.36,4.01-7.3,6.65-12.71,5.8
		C81.15,385.39,86.39,392.98,92.33,392.36z M503.38,400.66c0.33,0.52,0.48,0.84,0.7,1.09c2.17,2.48,4.69,4.57,7.54,6.17
		c1.7,0.95,3.65,1.53,5.55,2.04c1.58,0.43,1.76,0.22,2.47-1.24c1.55-3.21,1.22-6.65,1.06-10.04c-0.04-0.82-0.68-1.49-1.55-1.5
		c-1.12-0.02-2.39-0.12-3.34,0.34C511.97,399.37,507.89,400.12,503.38,400.66z M59.12,404.99c0.29-1.11,0.56-1.96,0.73-2.83
		c0.75-3.69,1.43-7.4,2.23-11.08c0.22-0.99,0.06-1.74-0.48-2.58c-2.61-3.99-5.17-8.01-7.75-12.01c-0.25-0.38-0.57-0.72-0.95-1.2
		C51.84,382.57,54.66,398.05,59.12,404.99z M74.33,401.93c0.14-0.08,0.28-0.17,0.42-0.25c-0.91-3.78-1.09-7.58-0.44-11.42
		c0.66-3.89,2.35-7.35,4.57-10.73c-4.37-1.42-8.01-0.87-11.19,2.1c-0.65,0.61-1.06,1.24-0.94,2.23c0.66,5.35,1.99,10.47,5.03,15
		C72.52,399.96,73.47,400.91,74.33,401.93z M99.18,368.02c1.51,8.17,1.13,16.09-0.94,23.98c0.15,0.06,0.31,0.13,0.46,0.19
		c4.14-4.05,8.27-8.1,12.49-12.23C107.08,375.87,103.13,371.94,99.18,368.02z M536.7,401.83c-5.02-3.87-10.95-5.5-14.2-3.93
		c0.01,4.03,0.66,8.19-1.35,12.31C527.77,409.77,532.62,406.71,536.7,401.83z M343.04,389.95c0.68,0,1.18,0.03,1.66-0.01
		c0.56-0.05,1.12-0.21,1.68-0.25c1.22-0.08,1.87-0.72,2.32-1.84c3.12-7.74,3.45-15.61,1.26-23.62c-0.11-0.42-0.4-0.79-0.64-1.26
		c-1.06,1.41-2.06,2.61-2.91,3.91c-0.3,0.46-0.35,1.17-0.31,1.75c0.09,1.63,0.4,3.25,0.42,4.88c0.06,5.03-0.82,9.89-2.77,14.54
		C343.52,388.62,343.32,389.2,343.04,389.95z M323.04,341.25c0.83,1.96,1.77,3.12,3.73,3.48c2.53,0.47,4.82,1.69,6.95,3.16
		c5.17,3.56,8.56,8.45,10.67,14.3c0.3,0.83,0.6,1.66,1.08,2.98c0.84-1.41,1.47-2.41,2.04-3.44c0.75-1.35,0.65-2.64-0.11-4.04
		c-2.92-5.38-6.85-9.77-12.18-12.84C331.53,342.73,327.57,341.49,323.04,341.25z M79.05,377.87c-0.37-4.95-5.61-11.55-10.24-12.95
		c-1.83,4.94-2.33,10.05-2.36,15.8C70.35,377.19,74.38,376.35,79.05,377.87z M444.86,392.31c0.57,0.2,0.74,0.31,0.92,0.31
		c5.12-0.04,10.24-0.12,15.36-0.13c1.01,0,1.52-0.62,2.1-1.25c2.84-3.09,5.68-6.17,8.52-9.26c0.32-0.34,0.59-0.73,0.88-1.1
		c-0.06-0.09-0.11-0.18-0.17-0.26C463.36,384.47,454.27,388.33,444.86,392.31z M45.04,296.09c0.09,1.84,0.16,3.42,0.24,5.15
		c6.74-0.3,13.16-0.59,19.57-0.88c0-1.91,0-3.51,0-5.28C58.26,295.42,51.83,295.75,45.04,296.09z M346.71,391.7
		c-1.52,0.12-2.64,0.27-3.77,0.28c-0.89,0-1.41,0.39-1.9,1.1c-0.84,1.23-1.73,2.45-2.74,3.53c-5.56,5.92-12.25,8.87-20.49,7.57
		c-0.43-0.07-0.88-0.01-1.43-0.01c0.9,2,2.16,2.81,4.23,2.86c7.9,0.19,14.64-2.48,20.36-7.83
		C343.19,397.11,345.13,394.76,346.71,391.7z M97.42,363.02c1.23-2.96,3.91-14.48,3.75-16.12c-4.77,0.85-9.53,1.69-14.53,2.58
		C91.81,353.35,93.12,354.23,97.42,363.02z M88.03,421.78c1.78-6.41,3.52-12.71,5.28-19.02c-2.2,1.72-4.18,3.43-6.34,4.89
		c-2.2,1.49-4.87,1.62-7.54,1.69C80.39,411.67,85.44,418.94,88.03,421.78z M64.68,361.03c-3.67,3.84-7.33,7.68-10.95,11.47
		c2.25,4.19,7,11.31,8.22,12.31C60.97,376.64,61.89,368.76,64.68,361.03z M314.76,405.95c-1.54-2.94-1.54-2.93-3.71-4.12
		c-0.37-0.2-0.73-0.43-1.09-0.66c-6.92-4.41-10.77-10.92-12.74-18.7c-0.17-0.66-0.33-1.31-0.5-1.97c-0.14-0.03-0.29-0.07-0.43-0.1
		c-0.66,1.14-1.4,2.25-1.93,3.45c-0.25,0.58-0.3,1.41-0.09,2c3.32,9.13,9.19,15.9,18.38,19.52
		C313.21,405.58,313.83,405.69,314.76,405.95z M493.3,397.64c-1.74,0-3.15,0-4.57,0c-1.39,0-2.79,0-4.2,0
		c0.4,5.28,5.72,15.12,8.77,16.56C493.3,408.78,493.3,403.34,493.3,397.64z M80.88,348.2c-2.91-3.18-9.7-9.15-11.32-9.9
		c-0.51,5.63-1.02,11.15-1.52,16.68c0.15,0.09,0.31,0.19,0.46,0.28C71.62,351.31,75.45,348.57,80.88,348.2z M300.36,357.31
		c-3.55-0.65-3.89-0.51-5.16,2.49c-2.64,6.24-3.36,12.74-2.5,19.43c0.08,0.65,0.26,1.28,0.45,2.21c0.79-1.03,1.27-1.84,1.92-2.46
		c1.06-1.02,1.41-2.16,1.32-3.61c-0.35-6.02,0.91-11.71,3.62-17.09C300.17,357.99,300.24,357.65,300.36,357.31z M63.49,393.35
		c-0.95,4.68-1.9,9.36-2.89,14.28c4.51,0,8.97,0,13.86,0C68.88,404.1,65.97,398.99,63.49,393.35z M321.88,343.73
		c-1.42-2.6-1.45-2.61-4.02-2.21c-8.21,1.29-14.47,5.65-19.27,12.29c-0.2,0.27-0.32,0.6-0.61,1.16c1.37,0.13,2.54,0.24,3.63,0.34
		C307.56,347.46,312.8,344.56,321.88,343.73z M96.81,368.74c-1.23,2.12-2.28,4.23-1.8,6.78c0.74,3.98,0.04,7.92-0.56,11.85
		c-0.25,1.64-0.74,3.25-1.18,5.15c1.17-0.28,2.04-0.48,2.92-0.69C98.5,384.11,98.58,376.46,96.81,368.74z M94.56,370.11
		c1.06-2.25,1.66-4.17,0.93-6.23c-1.15-3.24-2.79-6.23-5.11-8.8c-1.64-1.82-3.51-3.36-5.86-4.13c-1.17-0.39-2.42-0.56-3.81-0.87
		c0.8,2.37,0.8,2.39,2.63,3.04c2.37,0.84,4.16,2.41,5.69,4.34c2.58,3.24,3.97,7.02,5.01,10.97
		C94.15,368.87,94.31,369.3,94.56,370.11z M92.95,394.18c-1.71,2.58-3,4.99-4.72,7.03c-2.57,3.06-5.87,4.68-10.04,3.62
		c-0.19-0.05-0.4-0.01-0.61-0.01c0.7,2.33,0.84,2.45,2.95,2.53c0.42,0.01,0.85-0.03,1.27-0.08c5.85-0.68,12.09-6.89,13.4-13.44
		C94.34,393.97,93.52,394.1,92.95,394.18z M76.1,406.17c0.12-0.13,0.25-0.25,0.37-0.38c-0.54-0.9-0.89-2.02-1.64-2.66
		c-3.9-3.32-6.03-7.64-7.33-12.45c-0.56-2.09-0.97-4.22-1.45-6.35c-1.38,1.08-1.76,2.59-1.43,4.14c1.16,5.42,3.25,10.42,7.12,14.52
		C73,404.32,74.4,405.47,76.1,406.17z M542.74,397.05c-1.2,0-1.18,0.01-1.75,0.91c-0.98,1.56-1.85,3.22-3.01,4.63
		c-4.27,5.15-9.7,8.22-16.46,8.69c-0.83,0.06-1.56,0.13-1.6,1.19C528.93,413.96,539.98,405.99,542.74,397.05z M67.84,364.7
		c-1.95-0.26-1.99-0.27-2.47,1.33c-1.44,4.73-1.92,9.58-1.71,14.5c0.05,1.16,0.14,2.32,0.25,3.97c1.34-1.81,2.19-3.13,2.05-5
		c-0.13-1.75-0.04-3.55,0.2-5.29C66.62,371.07,67.26,367.97,67.84,364.7z M68.77,363.05c2.44-5.1,5.31-9.5,11.45-10.61
		c-0.5-0.81-0.86-1.39-1.3-2.11c-6.51,1.76-9.73,6.55-12.36,12.29C67.4,362.79,68,362.9,68.77,363.05z M500.72,400.6
		c0.21,0.41,0.38,0.85,0.64,1.23c2.63,3.91,6.01,6.98,10.35,8.9c1.36,0.6,2.8,1.03,4.22,1.46c0.75,0.23,1.54,0.27,1.8-1.01
		C510.4,410.28,505.29,406,500.72,400.6z M533.44,397.01c-0.03,0.14-0.06,0.28-0.09,0.43c1.51,0.85,3.01,1.71,4.68,2.65
		c0.58-1.13,1.04-2.03,1.59-3.08C537.34,397.01,535.39,397.01,533.44,397.01z M509.64,397.46c-2.46,0-4.92-0.01-7.38,0.01
		c-0.17,0-0.33,0.21-0.84,0.55C504.47,399,507.09,398.43,509.64,397.46z M558.92,396.76c0.01,0.1,0.03,0.2,0.04,0.3
		c0.54,0,1.07,0,1.61,0c0-0.1,0-0.2,0-0.3C560.02,396.76,559.47,396.76,558.92,396.76z"/>
	<path class="st0" d="M45.15,303.29c2.44-0.17,4.62-0.35,6.79-0.45c4.06-0.19,8.11-0.33,12.17-0.48c2.36-0.09,2.7-0.35,2.72-2.77
		c0.04-5.63,0.01-11.26,0-16.88c0-0.78,0-1.55,0-2.18c0.27-0.24,0.36-0.36,0.48-0.42c6.25-3.06,11.65-7.39,17.18-11.52
		c22.21-16.57,44.42-33.15,66.62-49.72c0.51-0.38,1.1-0.72,1.48-1.22c1.57-2.06,3.82-2.61,6.19-2.91c0.63-0.08,1.28-0.08,1.92-0.09
		c14.02-0.15,28.04-0.29,42.06-0.44c1.35-0.01,2.72,0.09,4.06-0.07c3.24-0.38,6.1,0.56,9.02,1.9
		c57.19,26.25,114.41,52.44,171.61,78.67c2.44,1.12,4.72,2.59,7.14,3.93c-1,29.15-2,58.24-3,87.5c-1.14,0-2.15,0-3.37,0
		c0.12-1.17,0.26-2.21,0.34-3.26c1.5-20.19-2.95-38.8-15.15-55.19c-8.77-11.79-20.12-20.16-34.4-24
		c-20.36-5.48-38.85-1.12-55.23,11.86c-14.12,11.19-22.45,26.08-26.37,43.53c-1.41,6.28-2.02,12.65-1.86,19.09
		c0.02,0.77,0,1.53,0,2.25c-1.86,0.43-122.33-3.83-125.34-4.39c-0.18-3.29-0.35-6.61-0.54-10.07c0.49-0.05,0.96-0.16,1.43-0.15
		c7.69,0.23,15.38,0.46,23.07,0.7c11.39,0.37,22.78,0.76,34.18,1.12c6.76,0.22,13.53,0.41,20.29,0.61c4.7,0.14,9.41,0.18,14.1,0.46
		c1.64,0.1,2.42-0.52,3.24-1.77c7.64-11.77,15.34-23.5,23.02-35.25c5.54-8.47,11.07-16.93,16.61-25.39
		c0.27-0.42,0.58-0.81,0.82-1.25c0.63-1.18,0.23-1.91-1.14-1.96c-1.57-0.06-3.13,0-4.7,0.01c-16.74,0.09-33.49,0.17-50.23,0.28
		c-20.87,0.13-41.75,0.3-62.62,0.43c-20.02,0.13-40.04,0.21-60.06,0.34c-13.39,0.08-26.79,0.19-40.18,0.29
		c-0.57,0-1.15,0.04-1.7-0.08C45.59,304.29,45.48,303.84,45.15,303.29z M183.1,281.22c0,0.02,0,0.03,0,0.05
		c29.35,0,58.7,0,88.05,0.01c1.42,0,2.84,0.15,4.27,0.14c1.86-0.01,2.84-1.4,2.24-3.18c-0.2-0.58-0.56-1.15-0.99-1.59
		c-1.79-1.83-3.66-3.58-5.45-5.41c-7.61-7.8-15.22-15.61-22.8-23.43c-6.15-6.34-12.26-12.71-18.41-19.05
		c-4.43-4.57-9.74-6.93-16.21-6.86c-10.33,0.12-20.66,0.03-30.99,0.03c-7.55,0-15.1,0-22.65-0.01c-2.83,0-5.24,1.02-7.39,2.86
		c-2.86,2.45-5.75,4.89-8.75,7.16c-8.29,6.27-16.74,12.34-24.97,18.7c-10.48,8.1-20.8,16.4-31.18,24.63
		c-0.55,0.44-1.06,0.95-1.48,1.52c-1.57,2.1-0.78,3.9,1.83,4.16c1.63,0.16,3.27,0.26,4.9,0.26
		C123.11,281.23,153.1,281.22,183.1,281.22z"/>
	<path class="st1" d="M217.12,213.95c0.82,0,1.64,0.01,2.45,0c30.99-0.23,61.98-0.47,92.97-0.7c14.53-0.11,29.07-0.2,43.6-0.33
		c2.77-0.02,5.54-0.23,8.31-0.23c1.18,0,2.42,0.13,3.52,0.52c36.25,12.97,72.48,25.98,108.72,38.98
		c37.38,13.41,74.75,26.81,112.13,40.21c1.13,0.41,2.32,0.7,3.07,2.07c-0.6,0.06-1.12,0.15-1.64,0.15
		c-18.88,0.23-37.76,0.45-56.64,0.68c-23.29,0.28-46.59,0.56-69.88,0.84c-21.37,0.26-42.74,0.51-64.11,0.81
		c-1.75,0.02-3.33-0.3-4.94-1.03c-58.49-26.82-116.99-53.61-175.49-80.4c-0.73-0.34-1.45-0.71-2.18-1.06
		C217.05,214.29,217.09,214.12,217.12,213.95z M407.99,261.56c21.07,0.35,38.23,0.63,55.4,0.91c5.56,0.09,11.11,0.14,16.67,0.22
		c1.5,0.02,2.99,0.18,4.48,0.12c0.53-0.02,1.04-0.51,1.56-0.78c-0.29-0.53-0.46-1.21-0.9-1.56c-0.53-0.42-1.28-0.59-1.95-0.83
		c-36.92-13.17-73.85-26.33-110.77-39.51c-1.94-0.69-3.78-1.26-5.95-1.22c-21.3,0.38-42.59,0.62-63.89,0.88
		c-16.67,0.2-33.34,0.37-50,0.57c-0.71,0.01-1.44-0.01-2.12,0.15c-0.32,0.07-0.66,0.5-0.77,0.84c-0.06,0.2,0.27,0.65,0.54,0.79
		c0.63,0.33,1.32,0.51,1.98,0.8c28.45,12.37,56.91,24.74,85.37,37.1c0.63,0.27,1.36,0.42,2.05,0.43
		c13.82,0.26,27.63,0.49,41.45,0.71C391.39,261.33,401.64,261.47,407.99,261.56z"/>
	<path class="st1" d="M589.26,299.5c3.18-0.42,6.27-0.82,9.64-1.26c0.17,1.5,0.44,2.95,0.48,4.41c0.09,3.56,0.17,7.12,0.08,10.68
		c-0.25,10.03-0.47,20.06-0.94,30.08c-0.24,5.04-0.98,10.05-1.54,15.52c-1.4-0.96-2.47-1.69-3.54-2.42
		c-1.05-0.72-2.1-1.43-3.22-2.19c-1.39,1.34-2.74,2.59-4.02,3.9c-2.83,2.91-5.65,5.84-8.43,8.79c-0.72,0.77-1.43,1.11-2.56,1.12
		c-24.29,0.22-48.59,0.49-72.88,0.83c-1.92,0.03-3.34-0.43-4.75-1.74c-3.38-3.15-6.92-6.13-10.57-9.33
		c-0.71,0.31-1.54,0.67-2.37,1.05c-24.36,11.08-48.72,22.16-73.06,33.28c-1.6,0.73-3.18,1.11-4.93,1.09
		c-3.42-0.04-6.84,0.08-10.26,0.07c-0.98,0-1.95-0.26-2.93-0.35c-0.56-0.05-1.24-0.21-1.67,0.02c-1.35,0.73-2.77,0.53-4.18,0.53
		c-3.27,0-6.53,0-10.05,0c0.59-2.1,1.09-3.85,1.62-5.72c4.77-0.34,9.49,0.69,14.26,0.29c0.28-8.27,0.56-16.34,0.84-24.53
		c3.3-0.76,6.47-1.51,9.65-2.23c26.17-5.89,52.35-11.77,78.52-17.66c0.14-0.03,0.28-0.05,0.42-0.09c0.8-0.24,1.75-0.28,1.68-1.52
		c-0.07-1.19-0.93-1.18-1.78-1.4c-8.39-2.23-16.77-4.49-25.15-6.75c-19.99-5.4-39.98-10.8-59.97-16.2
		c-0.54-0.15-1.08-0.32-1.78-0.54c0.16-4.65,0.32-9.25,0.49-13.99c0.65-0.07,1.2-0.16,1.74-0.17c13.89-0.16,27.78-0.3,41.67-0.45
		c7.05-0.08,14.1-0.15,21.16-0.28c4.48-0.08,8.97-0.22,13.45-0.44c1.48-0.07,2.3,0.49,3.08,1.7c9.56,14.85,19.2,29.66,28.72,44.53
		c1.14,1.79,2.41,2.43,4.51,2.42c21.09-0.17,42.17-0.25,63.26-0.35c2.13-0.01,2.44-0.27,3.06-2.73c3.22-12.7,6.42-25.4,9.63-38.1
		c0.7-2.76,1.4-5.52,2.11-8.28C588.89,300.55,589.09,300.03,589.26,299.5z"/>
	<path class="st2" d="M464.98,392.42c0.73-0.87,1.14-1.41,1.59-1.91c3.23-3.52,6.46-7.02,9.69-10.54c0.29-0.31,0.59-0.62,0.87-0.94
		c0.49-0.55,0.97-1.14,0.38-1.87c-0.53-0.66-1.17-0.28-1.75-0.04c-4.59,1.93-9.17,3.88-13.76,5.82c-7.14,3.02-14.27,6.08-21.44,9.04
		c-1.21,0.5-2.59,0.8-3.9,0.83c-6.69,0.15-13.39,0.18-20.09,0.25c-0.34,0-0.69-0.05-1.16-0.37c0.58-0.31,1.14-0.66,1.73-0.93
		c18.52-8.44,37.05-16.86,55.57-25.29c4.14-1.89,8.31-3.72,12.43-5.67c1.07-0.5,1.78-0.42,2.66,0.37c3.12,2.81,6.33,5.53,9.45,8.34
		c0.95,0.85,1.9,1.29,3.23,1.27c21.87-0.26,43.73-0.47,65.6-0.7c2.21-0.02,4.42-0.16,6.62-0.13c1.38,0.02,2.75,0.26,4.47,0.43
		c4.17-4.33,8.61-8.94,13.22-13.74c1.82,1.34,3.62,2.59,5.32,3.96c0.34,0.27,0.5,1.02,0.42,1.49c-0.98,6.05-2.31,12-4.73,17.69
		c-1.7,3.99-4.51,6.92-8.24,8.92c-1.59,0.85-3.46,1.32-5.26,1.61c-2.23,0.37-4.52,0.49-6.79,0.53c-24.07,0.39-48.15,0.74-72.22,1.1
		c-10.61,0.16-21.22,0.32-31.84,0.48C466.52,392.43,465.98,392.42,464.98,392.42z"/>
	<path class="st3" d="M258.12,305.8c-43.86,14.43-87.71,28.86-131.8,43.37c-0.34-0.67-0.71-1.25-0.94-1.88
		c-3.78-10.16-9.2-19.24-17.48-26.42c-0.1-0.09-0.14-0.23-0.22-0.35c1.23-0.59,29.81-3.54,49.89-5.33c16.8-1.5,33.59-3.25,50.38-4.9
		c16.71-1.64,33.42-3.29,50.14-4.93C258.1,305.5,258.11,305.65,258.12,305.8z"/>
	<path class="st4" d="M255.08,309.14c-0.59,0.38-1.18,0.77-1.78,1.14c-28.86,17.39-57.73,34.74-86.54,52.21
		c-2.65,1.61-5.15,2.43-8.29,2.27c-9.32-0.48-18.65-0.65-27.98-0.94c-0.21-0.01-0.42-0.07-0.93-0.16c-0.9-4.03-1.83-8.17-2.81-12.56
		c42.69-14.11,85.44-28.24,128.18-42.37C254.98,308.86,255.03,309,255.08,309.14z"/>
	<path class="st5" d="M117.1,375.76c-0.27-2.37-0.46-4.63-0.78-6.87c-1.23-8.7-3.93-16.9-8.65-24.36c-3.55-5.62-8-10.38-13.96-13.51
		c-8.96-4.7-17.8-4.3-26.38,1c-5.4,3.34-9.34,8.08-12.49,13.51c-2.52,4.34-4.3,8.98-5.61,13.81c-0.11,0.4-0.25,0.79-0.47,1.48
		c-1.44-1.15-2.08-2.5-2.11-4.07c-0.1-4.69-0.09-9.38-0.17-14.08c-0.04-2.42-0.22-4.84-0.22-7.26c0-0.72,0.22-1.59,0.65-2.15
		c6.06-7.87,13.35-14.26,22.84-17.64c13.32-4.74,25.52-2.39,36.48,6.39c7.35,5.89,12.31,13.55,15.9,22.15
		c3.3,7.88,5.18,16.11,5.78,24.62c0.17,2.39,0.26,4.78,0.39,7.38C124.41,376.03,120.82,375.9,117.1,375.76z"/>
	<path class="st6" d="M116.56,388.83c0.23-3.65,0.47-7.31,0.71-11.12c48.54,1.76,96.96,3.52,145.36,5.28
		c0.78,3.54,1.51,6.85,2.25,10.17C263.22,393.59,119.22,389.4,116.56,388.83z"/>
	<path class="st7" d="M241.19,305.22c-4.51,0.46-9.02,0.92-13.53,1.36c-11.27,1.1-22.54,2.2-33.81,3.29
		c-10.92,1.06-21.83,2.1-32.75,3.16c-11.06,1.07-22.11,2.16-33.17,3.24c-7.3,0.71-14.6,1.4-21.9,2.16
		c-1.21,0.13-2.05-0.48-2.94-1.03c-3.41-2.12-7.02-3.76-10.91-4.79c-9.29-2.47-18.22-1.29-26.82,2.77
		c-6.54,3.09-12.05,7.54-16.84,12.91c-0.65,0.73-1.29,1.46-2.15,2.13c-0.67-7.95-0.64-15.87-1.06-24.09
		c65.44-0.48,130.65-0.95,195.86-1.42C241.18,305.01,241.19,305.12,241.19,305.22z"/>
	<path class="st5" d="M262.46,380.85c-1.64,0-3.17,0-4.78,0c-0.08-0.53-0.2-0.94-0.21-1.35c-0.2-26.57,9-48.76,30.73-64.86
		c10.12-7.5,21.71-11.26,34.33-11.31c15.01-0.06,28.18,5.13,39.48,14.92c12.4,10.74,19.78,24.46,23.23,40.37
		c1.83,8.42,2.16,16.93,1.25,25.49c-0.04,0.42-0.1,0.85-0.19,1.27c-0.04,0.2-0.17,0.38-0.33,0.74c-1.99-0.11-4.02-0.22-6.21-0.34
		c0.35-2.58,0.78-4.94,0.98-7.32c1.78-20.58-3.82-38.74-18.67-53.38c-19.8-19.51-49.53-21.62-72.22-5.4
		c-13.9,9.93-22.3,23.54-25.98,40.11c-1.39,6.27-2.06,12.65-1.42,19.1C262.51,379.51,262.46,380.14,262.46,380.85z"/>
	<path class="st3" d="M167.32,364.39c30.2-18.26,60.4-36.52,90.59-54.78c0.09,0.09,0.17,0.18,0.26,0.27
		c-0.31,0.4-0.59,0.83-0.95,1.19c-17.71,17.95-35.44,35.89-53.14,53.85c-0.82,0.84-1.65,1.18-2.8,1.14
		c-7.4-0.28-14.81-0.51-22.21-0.75c-3.13-0.1-6.27-0.15-9.4-0.24c-0.76-0.02-1.51-0.1-2.27-0.15
		C167.38,364.75,167.35,364.57,167.32,364.39z"/>
	<path class="st4" d="M394.35,361.62c0.27-7.75,0.53-15.05,0.78-22.3c2.08-0.52,75.14,2.46,82.2,3.6
		C449.8,349.12,422.27,355.33,394.35,361.62z"/>
	<path class="st5" d="M595.7,296.81c-1.65,0.23-3.31,0.47-4.96,0.68c-0.49,0.06-0.99,0.06-1.49,0.11c-1.6,0.16-1.73,0.27-2.13,1.87
		c-1.45,5.73-2.88,11.46-4.33,17.19c-2.47,9.8-4.95,19.6-7.43,29.4c-0.17,0.68-0.4,1.34-0.63,2.14c-0.91,0.05-1.75,0.13-2.59,0.14
		c-20.58,0.08-41.17,0.12-61.75,0.25c-1.44,0.01-1.99-0.72-2.63-1.71c-9.58-14.84-19.21-29.64-28.72-44.52
		c-1.15-1.8-2.37-2.48-4.47-2.4c-5.41,0.2-10.82,0.16-16.24,0.24c-19.87,0.29-39.73,0.6-59.6,0.9c-0.64,0.01-1.27,0-2.08,0
		c-0.06-0.69-0.1-1.28-0.15-1.86c0.31-0.15,0.49-0.31,0.68-0.32c1.14-0.05,2.28-0.07,3.42-0.09c13.67-0.16,27.35-0.32,41.02-0.48
		c25.28-0.3,50.57-0.6,75.85-0.9c10.47-0.13,20.94-0.25,31.41-0.39c14.6-0.19,29.2-0.4,43.8-0.6c0.99-0.01,1.99,0,2.98,0
		C595.66,296.58,595.68,296.69,595.7,296.81z M541.87,345.06c0,0.01,0,0.03,0,0.04c9.69-0.15,19.37-0.29,29.06-0.45
		c2.01-0.03,2.09-0.07,2.59-2.07c3.49-14.02,6.96-28.05,10.42-42.08c0.51-2.09,0.14-2.51-2.05-2.6c-0.36-0.01-0.71-0.01-1.07-0.01
		c-7.55,0.12-15.1,0.23-22.65,0.37c-15.38,0.29-30.76,0.6-46.14,0.9c-9.47,0.18-18.94,0.35-28.41,0.53
		c-0.36,0.01-0.72-0.01-1.06,0.07c-0.78,0.17-1.08,0.69-0.76,1.43c0.22,0.52,0.56,0.99,0.87,1.46c2.29,3.44,4.59,6.87,6.88,10.3
		c6.69,10,13.46,19.96,20,30.05c1.27,1.96,2.53,2.55,4.76,2.49C523.5,345.25,532.68,345.19,541.87,345.06z"/>
	<path class="st8" d="M268.32,377.73c-3.55-16.35,10.43-46.42,24.75-53.17c-0.11,2.63-0.19,5.16-0.33,7.68
		c-0.4,7.32-0.85,14.63-1.22,21.95c-0.25,4.83-0.2,4.84-3.98,7.94c-5.89,4.83-11.79,9.65-17.68,14.47
		C269.38,377,268.87,377.33,268.32,377.73z"/>
	<path class="st8" d="M374.59,360.71c1.89,10.83,0.99,21.45-2.66,31.83c-3.64,10.34-9.61,19.1-18.27,26.4
		c-0.15-0.74-0.32-1.17-0.32-1.6c0-9.32,0-18.64,0.07-27.96c0.01-0.79,0.29-1.71,0.76-2.34c6.44-8.6,12.93-17.16,19.4-25.74
		c0.21-0.28,0.29-0.66,0.43-0.99C374.2,360.44,374.39,360.58,374.59,360.71z"/>
	<path class="st8" d="M347.36,321.12c-9.34,5.63-18.59,11.2-27.98,16.86c-7.67-5.21-15.31-10.39-22.99-15.61
		C309.73,312.88,332.08,311.49,347.36,321.12z"/>
	<path class="st8" d="M299.27,426.11c-13.46-3.64-31-28.23-30.31-42.56c0.42,0.19,0.8,0.34,1.17,0.53
		c8.82,4.62,17.63,9.27,26.47,13.85c1.16,0.6,1.67,1.33,1.72,2.62c0.32,8.03,0.69,16.07,1.03,24.1
		C299.37,425.13,299.3,425.61,299.27,426.11z"/>
	<path class="st3" d="M300.34,400.84c8.42,7,17.66,9.92,28.22,7.65c10.48-2.24,17.57-8.8,22.54-18.13
		c0.49,1.89,0.63,24.45,0.23,29.86c-0.62-0.21-1.22-0.37-1.79-0.6c-7.98-3.22-15.95-6.45-23.93-9.67c-0.2-0.08-0.39-0.28-0.57-0.26
		c-0.52,0.04-1.04,0.16-1.55,0.24c0.14,0.49,0.28,0.98,0.43,1.47c0.04,0.12,0.11,0.24,0.26,0.56c-7.41,5.15-14.84,10.33-22.34,15.55
		C301.2,425.53,300.11,405.66,300.34,400.84z"/>
	<path class="st6" d="M344.78,431.57c7.35-3.97,13.89-8.87,19.41-15.09c5.5-6.18,9.64-13.19,12.58-20.91c4.28,0,8.46,0,12.74,0
		c-0.05,0.55-0.01,0.98-0.13,1.36c-3.16,10.66-8.14,20.31-16,28.31c-0.99,1.01-2.11,1.91-3.2,2.81c-2.69,2.21-5.8,3.21-9.27,3.26
		c-5.12,0.08-10.24,0.22-15.37,0.33C345.29,431.66,345.04,431.6,344.78,431.57z"/>
	<path class="st7" d="M260.27,311.18c-1.23,1.89-2.46,3.78-3.7,5.66c-10.54,16.06-21.11,32.1-31.6,48.19
		c-0.9,1.38-1.81,1.84-3.45,1.74c-4.47-0.28-8.96-0.33-13.44-0.48c-0.62-0.02-1.24-0.09-1.91-0.15
		C206.95,364.59,255.89,314.54,260.27,311.18z"/>
	<path class="st8" d="M373.6,356.32c-8.41-1.41-16.59-2.77-25.03-4.19c0.74-9.66,1.48-19.18,2.21-28.76
		C359.42,326.88,370.79,343.26,373.6,356.32z"/>
	<path class="st8" d="M304.15,428.4c0.76-0.59,1.19-0.96,1.64-1.27c6.47-4.51,12.97-8.99,19.41-13.56c1.11-0.79,2-0.95,3.29-0.42
		c6.62,2.75,13.29,5.4,19.94,8.1c0.33,0.13,0.64,0.3,1.24,0.59c-5.68,4.11-11.83,6.68-18.43,8.13
		C322.24,431.95,313.34,431.51,304.15,428.4z"/>
	<path class="st9" d="M321.19,375.89c2.72,9.98,9.6,14.67,19.42,16.16c-0.87,1.22-1.51,2.22-2.25,3.13
		c-3.39,4.15-7.59,7.06-12.9,8.17c-2.89,0.61-5.78,0.53-8.68-0.1c-1.18-0.25-1.86-0.87-2.34-1.92c-2.49-5.33-2.6-10.72-0.38-16.14
		C315.53,381.58,317.88,378.58,321.19,375.89z"/>
	<path class="st6" d="M100.29,421.82c8.22-7.25,12.6-16.65,15.15-27.22c4.63,0.16,9.15,0.32,13.91,0.48
		c-0.22,1.56-0.34,2.88-0.59,4.19c-1.11,5.71-3.16,11.06-6.41,15.91c-0.75,1.12-1.62,2.16-2.53,3.15c-1.69,1.85-3.71,2.96-6.32,3.06
		c-4.33,0.17-8.64,0.53-12.97,0.81C100.45,422.08,100.37,421.95,100.29,421.82z"/>
	<path class="st10" d="M472.24,340.37c-24.44-1.08-48.87-2.15-73.31-3.23c-0.02-0.12-0.04-0.25-0.07-0.37
		c0.47-0.2,0.92-0.45,1.41-0.6c8.49-2.62,17-5.21,25.48-7.85c1.14-0.36,2.17-0.37,3.33-0.06c13.93,3.79,27.87,7.53,41.8,11.29
		c0.47,0.13,0.92,0.3,1.38,0.46C472.25,340.13,472.24,340.25,472.24,340.37z"/>
	<path class="st9" d="M322.22,372.15c-7.24-10.98-7.96-11.61-19.24-16.73c1.21-2.23,2.94-3.99,4.84-5.59
		c3.89-3.27,8.35-5.06,13.46-5.2c1.07-0.03,1.66,0.35,2.14,1.32c1.76,3.58,2.58,7.39,2.65,11.34c0.08,4.46-0.74,8.78-2.74,12.81
		C323.02,370.73,322.66,371.34,322.22,372.15z"/>
	<path class="st3" d="M294.57,394.7c-8.73-4.58-17.46-9.15-26.07-13.67c-0.05-0.27-0.08-0.34-0.08-0.41c0-0.07,0-0.17,0.04-0.2
		c6.95-5.76,13.91-11.52,20.87-17.27c0.32-0.26,0.68-0.47,1.41-0.98c-3.42,11.62-1.92,22.24,4.18,32.23
		C294.8,394.51,294.68,394.6,294.57,394.7z"/>
	<path class="st5" d="M324.23,372.79c4.64-9.11,4.95-18.19,1.02-27.78c1.45,0.45,2.54,0.68,3.55,1.12
		c8.35,3.63,12.94,10.36,15.44,18.81c0.29,1-0.2,1.61-0.89,2.2c-3.1,2.63-6.64,4.38-10.59,5.31
		C330.04,373.08,327.3,373.34,324.23,372.79z"/>
	<path class="st8" d="M111.48,383.26c-0.38,2.73-0.65,5.48-1.15,8.19c-1.31,7.07-3.75,13.71-7.87,19.65
		c-2.63,3.78-5.8,7.01-9.88,9.26c-0.5,0.27-1.01,0.53-1.53,0.76c-0.17,0.08-0.39,0.04-0.77,0.06c0.19-0.82,0.34-1.56,0.54-2.29
		c1.94-6.99,3.9-13.96,5.82-20.96c0.27-0.99,0.73-1.77,1.48-2.5c3.79-3.65,7.53-7.36,11.29-11.04c0.49-0.48,1.02-0.92,1.53-1.39
		C111.12,383.1,111.3,383.18,111.48,383.26z"/>
	<path class="st3" d="M322.3,338.49c8.69-5.23,17.37-10.46,26.1-15.72c0.52,1.8-0.86,22.29-1.85,27.93
		c-1.41-1.35-2.66-2.67-4.04-3.81c-1.42-1.18-2.91-2.3-4.49-3.26c-1.51-0.92-3.12-1.73-4.77-2.38c-1.72-0.67-3.51-1.21-5.31-1.6
		c-1.79-0.39-3.64-0.53-5.47-0.78C322.42,338.74,322.36,338.61,322.3,338.49z"/>
	<path class="st3" d="M293.36,355.31c0.58-10.33,1.15-20.67,1.75-31.48c7.59,5.15,14.85,10.08,22.58,15.33
		c-10.74,1.93-18.48,7.46-23.88,16.35C293.67,355.44,293.51,355.37,293.36,355.31z"/>
	<path class="st3" d="M373.45,358.29c-6.74,8.92-13.2,17.47-19.67,26.03c-0.14-0.02-0.27-0.04-0.41-0.05
		c2.59-10.41,1.3-20.27-4.29-29.87c4.38,0.28,8.28,1.24,12.22,1.84C365.22,356.83,369.12,357.55,373.45,358.29z"/>
	<path class="st8" d="M499.22,419.89c1.55-0.37,2.98-0.71,4.41-1.05c4.36-1.02,8.71-2.08,13.09-3.04c0.85-0.18,1.89-0.2,2.67,0.12
		c6.05,2.48,12.06,5.06,18.08,7.62c0.24,0.1,0.46,0.26,0.72,0.42C528.89,431.13,508.16,429.01,499.22,419.89z"/>
	<path class="st5" d="M319.36,374.83c-3.91,3.56-6.65,7.46-7.99,12.22c-1.34,4.74-0.99,9.4,0.94,14.34
		c-0.75-0.33-1.18-0.46-1.55-0.69c-7.57-4.85-11.39-12.03-12.93-20.67c-0.18-0.98,0.26-1.45,0.89-1.95c2.68-2.12,5.77-3.3,9.11-3.91
		C311.52,373.49,315.17,373.81,319.36,374.83z"/>
	<path class="st11" d="M323.14,374.67c8.35,1.23,15.32-1.2,21.71-6.15c0.83,2.9,0.77,5.66,0.55,8.37
		c-0.34,4.05-1.26,7.98-2.95,11.71c-0.43,0.94-0.92,1.47-2.06,1.38c-7.51-0.65-14.85-5.56-16.88-13.2
		C323.34,376.17,323.28,375.55,323.14,374.67z"/>
	<path class="st6" d="M536.85,429.68c14.89-6.48,24.35-17.66,29.01-33.14c3.16,0,6.21,0,9.52,0c-0.18,0.73-0.32,1.46-0.55,2.16
		c-3.31,10.07-9.58,17.86-18.37,23.67c-5.48,3.61-11.49,5.95-17.95,7.13C537.96,429.59,537.4,429.62,536.85,429.68z"/>
	<path class="st8" d="M71.14,336.31c9.68-6.02,22.37-2.4,29.8,8.6c-0.58,0.13-1.09,0.27-1.62,0.36c-4.76,0.84-9.52,1.65-14.27,2.52
		c-0.85,0.16-1.46,0.06-2.12-0.54c-3.77-3.46-7.57-6.89-11.36-10.33C71.44,336.78,71.34,336.58,71.14,336.31z"/>
	<path class="st11" d="M297.76,376.27c-1.38-3.5,0.7-13.47,3.81-18.61c5.79-0.38,16.79,8.7,18.22,15.19
		C311.98,371.15,304.51,371.54,297.76,376.27z"/>
	<path class="st11" d="M423.31,327.07c-9.27,2.85-18.54,5.71-28.05,8.64c0.19-5.55,0.36-10.84,0.55-16.42
		c9.39,2.53,18.45,4.98,27.51,7.43C423.31,326.84,423.31,326.96,423.31,327.07z"/>
	<path class="st9" d="M91.78,394.3c-1.42,3.43-3.16,6.32-6,8.4c-2.37,1.74-4.97,2.34-7.84,1.38c-0.79-0.27-1.37-0.67-1.64-1.5
		c-2.43-7.52-1.53-14.56,2.97-21.1c0.14-0.2,0.39-0.34,0.77-0.65C81.53,387.44,84.3,392.8,91.78,394.3z"/>
	<path class="st8" d="M547.54,397.6c4.17,0.54,8.21,1.06,12.55,1.62c-3.49,9.46-9.11,16.81-17.11,22.32
		c-0.15-0.08-0.29-0.15-0.44-0.23C544.19,413.48,545.84,405.66,547.54,397.6z"/>
	<path class="st8" d="M67.75,338.79c-0.22,1.76-0.43,3.15-0.55,4.55c-0.35,3.96-0.63,7.93-1.02,11.89c-0.07,0.73-0.29,1.6-0.76,2.11
		c-3.87,4.17-7.82,8.26-11.75,12.37c-0.08,0.09-0.25,0.09-0.38,0.13C52.1,361.83,60.17,344.16,67.75,338.79z"/>
	<path class="st5" d="M81.88,377.82c2.62-7.97,2.84-15.95,0.3-24.17c0.57,0.08,1.05,0.06,1.45,0.22c2.41,0.96,4.15,2.74,5.58,4.81
		c2.47,3.57,3.87,7.58,4.61,11.83c0.08,0.45,0.04,1-0.16,1.4c-1.78,3.59-6.79,6.42-10.78,6.12
		C82.6,378.02,82.33,377.92,81.88,377.82z"/>
	<path class="st8" d="M77.14,409.82c2.97,4.3,5.82,8.42,8.71,12.59c-7.21,2.53-18.76-3.57-23.81-12.36
		C63.41,409.54,71.51,409.41,77.14,409.82z"/>
	<path class="st11" d="M64.93,281.52c-0.06,3.91-0.11,7.66-0.17,11.41c-1.24,0.48-17.03,1.24-19.63,0.94
		c-0.07-0.12-0.18-0.23-0.2-0.35c-0.68-3.7,0.01-4.83,3.93-6.71c1.59-0.77,3.29-1.32,4.98-1.88c3.24-1.06,6.5-2.06,9.76-3.08
		C63.98,281.73,64.38,281.65,64.93,281.52z"/>
	<path class="st8" d="M111.16,377.48c-3.97-4.04-7.61-7.72-11.21-11.46c-0.37-0.39-0.68-1.16-0.57-1.65
		c1.22-5.23,2.53-10.43,3.84-15.75C107.91,353.87,111.91,369.85,111.16,377.48z"/>
	<path class="st9" d="M80.49,353.29c3.12,5.85,3.16,17.4,0.08,23.85c-2.23-5.9-5.12-11.08-10.89-13.85
		C70.95,358.04,75.72,353.6,80.49,353.29z"/>
	<path class="st3" d="M545.07,399.99c-1.57,7.43-3.14,14.87-4.77,22.61c-5.98-2.38-11.68-4.95-17.45-7.57
		C532.84,413.71,539.95,408.39,545.07,399.99z"/>
	<path class="st3" d="M495.79,397.6c1.06,1.79,2.01,3.68,3.22,5.36c1.24,1.72,2.62,3.38,4.17,4.82c1.55,1.43,3.31,2.7,5.15,3.75
		c1.83,1.06,3.86,1.76,5.88,2.66c-0.4,0.17-0.8,0.4-1.23,0.51c-4.84,1.14-9.67,2.28-14.52,3.38c-1.9,0.43-2.93-0.31-2.97-2.2
		c-0.13-5.75-0.2-11.51-0.28-17.26c0-0.26,0.07-0.53,0.11-0.79C495.48,397.74,495.64,397.67,495.79,397.6z"/>
	<path class="st11" d="M92.25,392.4c-5.95,0.57-11.12-7.07-10.82-12.85c5.41,0.89,9.37-1.71,12.76-5.69
		C95.37,378.22,94.11,389.44,92.25,392.4z"/>
	<path class="st5" d="M503.38,400.66c4.51-0.54,8.59-1.29,12.43-3.14c0.95-0.46,2.22-0.35,3.34-0.34c0.87,0.01,1.52,0.68,1.55,1.5
		c0.16,3.39,0.49,6.83-1.06,10.04c-0.71,1.46-0.89,1.67-2.47,1.24c-1.9-0.51-3.85-1.09-5.55-2.04c-2.85-1.6-5.38-3.69-7.54-6.17
		C503.85,401.5,503.71,401.18,503.38,400.66z"/>
	<path class="st8" d="M59.12,404.99c-4.46-6.94-7.28-22.41-6.22-29.69c0.38,0.47,0.7,0.81,0.95,1.2c2.59,4,5.14,8.03,7.75,12.01
		c0.54,0.83,0.7,1.58,0.48,2.58c-0.8,3.68-1.48,7.39-2.23,11.08C59.68,403.03,59.41,403.88,59.12,404.99z"/>
	<path class="st5" d="M74.33,401.93c-0.85-1.02-1.81-1.97-2.54-3.06c-3.05-4.53-4.37-9.65-5.03-15c-0.12-0.99,0.29-1.62,0.94-2.23
		c3.18-2.97,6.82-3.52,11.19-2.1c-2.22,3.38-3.91,6.83-4.57,10.73c-0.65,3.84-0.46,7.64,0.44,11.42
		C74.61,401.77,74.47,401.85,74.33,401.93z"/>
	<path class="st3" d="M99.18,368.02c3.95,3.93,7.9,7.86,12.01,11.94c-4.22,4.13-8.36,8.18-12.49,12.23
		c-0.15-0.06-0.31-0.13-0.46-0.19C100.3,384.11,100.69,376.19,99.18,368.02z"/>
	<path class="st9" d="M536.7,401.83c-4.09,4.88-8.93,7.94-15.55,8.38c2.01-4.12,1.36-8.28,1.35-12.31
		C525.75,396.33,531.69,397.96,536.7,401.83z"/>
	<path class="st8" d="M343.04,389.95c0.28-0.74,0.47-1.33,0.71-1.9c1.95-4.65,2.84-9.51,2.77-14.54c-0.02-1.63-0.33-3.25-0.42-4.88
		c-0.03-0.58,0.01-1.29,0.31-1.75c0.85-1.3,1.85-2.5,2.91-3.91c0.24,0.47,0.53,0.84,0.64,1.26c2.19,8.01,1.85,15.88-1.26,23.62
		c-0.45,1.12-1.11,1.76-2.32,1.84c-0.56,0.04-1.12,0.2-1.68,0.25C344.22,389.98,343.72,389.95,343.04,389.95z"/>
	<path class="st8" d="M323.04,341.25c4.53,0.23,8.49,1.47,12.18,3.6c5.33,3.07,9.26,7.46,12.18,12.84c0.76,1.4,0.86,2.68,0.11,4.04
		c-0.57,1.03-1.2,2.03-2.04,3.44c-0.47-1.31-0.78-2.14-1.08-2.98c-2.11-5.85-5.5-10.74-10.67-14.3c-2.13-1.47-4.42-2.69-6.95-3.16
		C324.81,344.37,323.87,343.22,323.04,341.25z"/>
	<path class="st11" d="M79.05,377.87c-4.67-1.53-8.7-0.69-12.6,2.85c0.03-5.75,0.53-10.86,2.36-15.8
		C73.44,366.32,78.68,372.92,79.05,377.87z"/>
	<path class="st3" d="M444.86,392.31c9.41-3.99,18.5-7.84,27.6-11.69c0.06,0.09,0.11,0.18,0.17,0.26c-0.29,0.37-0.56,0.76-0.88,1.1
		c-2.83,3.09-5.68,6.17-8.52,9.26c-0.57,0.62-1.08,1.25-2.1,1.25c-5.12,0.01-10.24,0.09-15.36,0.13
		C445.6,392.63,445.42,392.51,444.86,392.31z"/>
	<path class="st5" d="M45.04,296.09c6.79-0.34,13.22-0.67,19.81-1c0,1.77,0,3.37,0,5.28c-6.41,0.29-12.83,0.58-19.57,0.88
		C45.2,299.51,45.13,297.93,45.04,296.09z"/>
	<path class="st8" d="M346.71,391.7c-1.58,3.07-3.52,5.41-5.75,7.5c-5.72,5.35-12.46,8.03-20.36,7.83
		c-2.06-0.05-3.32-0.87-4.23-2.86c0.55,0,1-0.06,1.43,0.01c8.25,1.3,14.93-1.65,20.49-7.57c1.02-1.08,1.9-2.31,2.74-3.53
		c0.49-0.71,1-1.1,1.9-1.1C344.07,391.97,345.19,391.82,346.71,391.7z"/>
	<path class="st3" d="M97.42,363.02c-4.31-8.79-5.62-9.67-10.78-13.55c5-0.89,9.76-1.73,14.53-2.58
		C101.33,348.54,98.65,360.06,97.42,363.02z"/>
	<path class="st3" d="M88.03,421.78c-2.59-2.84-7.64-10.11-8.61-12.44c2.68-0.07,5.34-0.2,7.54-1.69c2.16-1.46,4.14-3.17,6.34-4.89
		C91.55,409.07,89.8,415.37,88.03,421.78z"/>
	<path class="st3" d="M64.68,361.03c-2.79,7.73-3.71,15.61-2.73,23.78c-1.22-1-5.97-8.13-8.22-12.31
		C57.35,368.71,61.01,364.87,64.68,361.03z"/>
	<path class="st8" d="M314.76,405.95c-0.94-0.26-1.55-0.37-2.12-0.59c-9.19-3.62-15.06-10.39-18.38-19.52
		c-0.21-0.59-0.16-1.42,0.09-2c0.53-1.2,1.27-2.3,1.93-3.45c0.14,0.03,0.29,0.07,0.43,0.1c0.17,0.66,0.33,1.31,0.5,1.97
		c1.97,7.78,5.82,14.29,12.74,18.7c0.36,0.23,0.72,0.46,1.09,0.66C313.23,403.01,313.23,403.01,314.76,405.95z"/>
	<path class="st8" d="M493.3,397.64c0,5.7,0,11.14,0,16.56c-3.05-1.44-8.37-11.28-8.77-16.56c1.41,0,2.8,0,4.2,0
		C490.15,397.64,491.57,397.64,493.3,397.64z"/>
	<path class="st3" d="M80.88,348.2c-5.43,0.37-9.25,3.11-12.38,7.06c-0.15-0.09-0.31-0.19-0.46-0.28c0.5-5.53,1.01-11.05,1.52-16.68
		C71.18,339.06,77.97,345.02,80.88,348.2z"/>
	<path class="st8" d="M300.36,357.31c-0.12,0.34-0.19,0.68-0.34,0.97c-2.72,5.38-3.97,11.07-3.62,17.09
		c0.08,1.45-0.26,2.6-1.32,3.61c-0.65,0.62-1.13,1.43-1.92,2.46c-0.19-0.93-0.36-1.57-0.45-2.21c-0.86-6.69-0.14-13.19,2.5-19.43
		C296.47,356.8,296.81,356.66,300.36,357.31z"/>
	<path class="st3" d="M63.49,393.35c2.48,5.64,5.39,10.75,10.97,14.28c-4.89,0-9.36,0-13.86,0
		C61.6,402.72,62.55,398.04,63.49,393.35z"/>
	<path class="st8" d="M321.88,343.73c-9.08,0.83-14.32,3.73-20.27,11.58c-1.09-0.1-2.26-0.21-3.63-0.34
		c0.29-0.56,0.41-0.89,0.61-1.16c4.8-6.64,11.06-11,19.27-12.29C320.43,341.12,320.46,341.13,321.88,343.73z"/>
	<path class="st8" d="M96.81,368.74c1.77,7.72,1.69,15.37-0.62,23.09c-0.88,0.21-1.74,0.41-2.92,0.69c0.44-1.9,0.93-3.51,1.18-5.15
		c0.6-3.93,1.3-7.87,0.56-11.85C94.54,372.97,95.58,370.86,96.81,368.74z"/>
	<path class="st8" d="M94.56,370.11c-0.25-0.81-0.41-1.24-0.53-1.69c-1.03-3.95-2.43-7.73-5.01-10.97c-1.53-1.92-3.32-3.5-5.69-4.34
		c-1.84-0.65-1.83-0.67-2.63-3.04c1.39,0.31,2.63,0.48,3.81,0.87c2.36,0.78,4.22,2.31,5.86,4.13c2.32,2.57,3.96,5.56,5.11,8.8
		C96.22,365.94,95.62,367.86,94.56,370.11z"/>
	<path class="st8" d="M92.95,394.18c0.57-0.09,1.39-0.21,2.26-0.35c-1.31,6.55-7.55,12.76-13.4,13.44
		c-0.42,0.05-0.85,0.09-1.27,0.08c-2.11-0.07-2.25-0.2-2.95-2.53c0.21,0,0.42-0.04,0.61,0.01c4.16,1.06,7.46-0.56,10.04-3.62
		C89.95,399.17,91.24,396.77,92.95,394.18z"/>
	<path class="st8" d="M76.1,406.17c-1.7-0.7-3.1-1.85-4.36-3.17c-3.87-4.1-5.96-9.1-7.12-14.52c-0.33-1.55,0.05-3.05,1.43-4.14
		c0.48,2.12,0.89,4.26,1.45,6.35c1.3,4.81,3.42,9.13,7.33,12.45c0.76,0.64,1.1,1.76,1.64,2.66
		C76.34,405.92,76.22,406.04,76.1,406.17z"/>
	<path class="st10" d="M542.74,397.05c-2.77,8.93-13.81,16.91-22.83,15.43c0.05-1.06,0.77-1.14,1.6-1.19
		c6.76-0.47,12.19-3.54,16.46-8.69c1.17-1.41,2.03-3.07,3.01-4.63C541.56,397.07,541.54,397.06,542.74,397.05z"/>
	<path class="st8" d="M67.84,364.7c-0.59,3.26-1.23,6.37-1.68,9.51c-0.25,1.74-0.34,3.54-0.2,5.29c0.14,1.87-0.72,3.19-2.05,5
		c-0.1-1.65-0.2-2.81-0.25-3.97c-0.21-4.92,0.27-9.77,1.71-14.5C65.86,364.43,65.89,364.44,67.84,364.7z"/>
	<path class="st8" d="M68.77,363.05c-0.78-0.15-1.37-0.26-2.22-0.43c2.63-5.75,5.85-10.54,12.36-12.29c0.45,0.73,0.8,1.3,1.3,2.11
		C74.08,353.55,71.22,357.96,68.77,363.05z"/>
	<path class="st10" d="M500.72,400.6c4.57,5.4,9.68,9.68,17.01,10.58c-0.26,1.29-1.05,1.24-1.8,1.01c-1.42-0.43-2.86-0.86-4.22-1.46
		c-4.34-1.91-7.72-4.98-10.35-8.9C501.1,401.45,500.93,401.01,500.72,400.6z"/>
	<path class="st11" d="M533.44,397.01c1.95,0,3.9,0,6.18,0c-0.54,1.05-1.01,1.95-1.59,3.08c-1.67-0.95-3.17-1.8-4.68-2.65
		C533.38,397.29,533.41,397.15,533.44,397.01z"/>
	<path class="st11" d="M509.64,397.46c-2.56,0.97-5.17,1.53-8.23,0.56c0.51-0.34,0.68-0.54,0.84-0.55
		C504.72,397.46,507.18,397.46,509.64,397.46z"/>
	<path class="st3" d="M558.92,396.76c0.55,0,1.1,0,1.64,0c0,0.1,0,0.2,0,0.3c-0.54,0-1.07,0-1.61,0
		C558.95,396.96,558.94,396.86,558.92,396.76z"/>
	<path d="M183.1,281.22c-29.99,0-59.98,0-89.98-0.01c-1.63,0-3.28-0.09-4.9-0.26c-2.62-0.26-3.4-2.06-1.83-4.16
		c0.42-0.56,0.93-1.08,1.48-1.52c10.38-8.23,20.7-16.53,31.18-24.63c8.22-6.36,16.67-12.43,24.97-18.7c3-2.27,5.89-4.71,8.75-7.16
		c2.15-1.84,4.56-2.86,7.39-2.86c7.55,0,15.1,0,22.65,0.01c10.33,0,20.66,0.09,30.99-0.03c6.47-0.08,11.78,2.28,16.21,6.86
		c6.15,6.34,12.26,12.71,18.41,19.05c7.59,7.82,15.19,15.63,22.8,23.43c1.79,1.83,3.66,3.58,5.45,5.41
		c0.43,0.44,0.79,1.01,0.99,1.59c0.6,1.78-0.38,3.16-2.24,3.18c-1.42,0.01-2.84-0.14-4.27-0.14c-29.35-0.01-58.7-0.01-88.05-0.01
		C183.1,281.25,183.1,281.24,183.1,281.22z M87.36,278.47c0.19,0.28,0.22,0.35,0.27,0.39c0.11,0.09,0.22,0.19,0.34,0.25
		c0.13,0.06,0.27,0.08,0.41,0.09c0.28,0.02,0.57,0.04,0.85,0.04c61.97,0.02,123.93,0.04,185.9,0.06c0.06,0,0.14-0.05,0.19-0.1
		c0.05-0.04,0.06-0.12,0.25-0.48c-0.74-0.91-1.5-2-2.42-2.94c-4.48-4.59-9.02-9.1-13.49-13.7c-10.38-10.67-20.73-21.37-31.1-32.04
		c-3.33-3.43-7.25-5.74-12.12-6.07c-2.41-0.16-4.83-0.22-7.25-0.22c-12.25-0.02-24.5-0.01-36.75-0.02c-4.06,0-8.12-0.05-12.18-0.02
		c-2.35,0.01-4.46,0.61-6.12,2.47c-0.89,1-2,1.82-3.08,2.64c-6.19,4.68-12.47,9.24-18.6,14c-14.56,11.31-29.06,22.71-43.57,34.09
		C88.31,277.37,87.84,277.98,87.36,278.47z"/>
	<path d="M407.99,261.56c-6.35-0.09-16.61-0.23-26.86-0.4c-13.82-0.22-27.63-0.46-41.45-0.71c-0.69-0.01-1.42-0.16-2.05-0.43
		c-28.46-12.35-56.91-24.73-85.37-37.1c-0.65-0.28-1.35-0.47-1.98-0.8c-0.26-0.14-0.6-0.59-0.54-0.79c0.1-0.34,0.45-0.77,0.77-0.84
		c0.68-0.16,1.41-0.14,2.12-0.15c16.67-0.19,33.34-0.36,50-0.57c21.3-0.26,42.6-0.5,63.89-0.88c2.16-0.04,4.01,0.53,5.95,1.22
		c36.92,13.19,73.84,26.35,110.77,39.51c0.67,0.24,1.42,0.4,1.95,0.83c0.44,0.35,0.61,1.03,0.9,1.56c-0.52,0.27-1.03,0.76-1.56,0.78
		c-1.49,0.06-2.99-0.1-4.48-0.12c-5.56-0.08-11.11-0.14-16.67-0.22C446.23,262.2,429.06,261.91,407.99,261.56z M256.89,222.33
		c-0.03,0.12-0.05,0.24-0.08,0.35c0.67,0.32,1.33,0.67,2.01,0.97c26.3,11.43,52.61,22.86,78.93,34.26c0.88,0.38,1.91,0.59,2.87,0.61
		c10.11,0.22,20.23,0.41,30.34,0.57c12.54,0.2,25.07,0.34,37.61,0.55c23.15,0.38,46.3,0.79,69.45,1.18
		c0.49,0.01,0.99-0.06,1.48-0.09c-0.8-0.6-1.59-0.89-2.39-1.18c-33.98-12.12-67.96-24.2-101.91-36.41c-4.42-1.59-8.75-2.39-13.5-2.3
		c-25.07,0.49-50.15,0.7-75.22,1.01c-9.19,0.11-18.38,0.24-27.57,0.37C258.24,222.23,257.56,222.3,256.89,222.33z"/>
	<path d="M541.87,345.06c-9.19,0.13-18.38,0.19-27.56,0.45c-2.23,0.06-3.5-0.53-4.76-2.49c-6.55-10.1-13.31-20.05-20-30.05
		c-2.3-3.43-4.59-6.87-6.88-10.3c-0.31-0.47-0.65-0.95-0.87-1.46c-0.31-0.74-0.02-1.25,0.76-1.43c0.34-0.08,0.71-0.06,1.06-0.07
		c9.47-0.18,18.94-0.35,28.41-0.53c15.38-0.3,30.76-0.61,46.14-0.9c7.55-0.14,15.1-0.25,22.65-0.37c0.36-0.01,0.71-0.01,1.07,0.01
		c2.19,0.08,2.57,0.51,2.05,2.6c-3.46,14.03-6.93,28.06-10.42,42.08c-0.5,2-0.58,2.03-2.59,2.07c-9.69,0.15-19.37,0.3-29.06,0.45
		C541.87,345.08,541.87,345.07,541.87,345.06z M579.9,308.67c-30.11,0.32-59.94,0.64-90.25,0.96c5.61,8.39,10.93,16.35,16.15,24.16
		c22.84-0.34,45.44-0.68,68.14-1.02C575.92,324.81,577.87,316.89,579.9,308.67z M582.11,299.75c-32.71,0.61-65.04,1.22-97.83,1.84
		c1.22,1.83,2.21,3.2,3.07,4.65c0.65,1.1,1.44,1.54,2.76,1.48c3.41-0.14,6.83-0.13,10.25-0.16c23.21-0.21,46.42-0.43,69.63-0.63
		c3.41-0.03,6.81,0,10.35,0C580.93,304.52,581.47,302.33,582.11,299.75z M573.47,334.69c-22.21,0.34-44.02,0.67-66.15,1.01
		c0.44,0.83,0.66,1.33,0.95,1.78c0.97,1.49,2.06,2.91,2.94,4.45c0.73,1.27,1.63,1.66,3.1,1.64c18.01-0.29,36.02-0.51,54.03-0.74
		c0.98-0.01,1.96,0,3.09,0C572.12,340.1,572.75,337.57,573.47,334.69z"/>
	<path class="st3" d="M87.36,278.47c0.48-0.5,0.95-1.1,1.53-1.56c14.51-11.38,29.01-22.77,43.57-34.09c6.13-4.76,12.41-9.33,18.6-14
		c1.08-0.81,2.18-1.64,3.08-2.64c1.67-1.86,3.78-2.45,6.12-2.47c4.06-0.02,8.12,0.02,12.18,0.02c12.25,0.01,24.5,0,36.75,0.02
		c2.42,0,4.84,0.06,7.25,0.22c4.87,0.33,8.79,2.64,12.12,6.07c10.37,10.67,20.72,21.37,31.1,32.04c4.47,4.59,9.01,9.11,13.49,13.7
		c0.92,0.94,1.68,2.03,2.42,2.94c-0.18,0.36-0.2,0.43-0.25,0.48c-0.05,0.05-0.12,0.1-0.19,0.1c-61.97-0.02-123.93-0.03-185.9-0.06
		c-0.28,0-0.57-0.02-0.85-0.04c-0.14-0.01-0.29-0.04-0.41-0.09c-0.13-0.06-0.23-0.15-0.34-0.25
		C87.58,278.82,87.55,278.75,87.36,278.47z M95.33,276.57c0.7,0.05,1.25,0.11,1.8,0.12c13.75,0.1,27.49,0.21,41.24,0.29
		c42.95,0.23,85.9,0.44,128.85,0.65c0.43,0,0.88,0.09,1.27-0.03c0.47-0.14,0.89-0.45,1.53-0.8c-0.67-0.78-1.09-1.35-1.58-1.84
		c-13.27-13.32-26.53-26.65-39.84-39.93c-1.55-1.55-3.29-2.93-5.04-4.25c-3.06-2.31-6.59-3.26-10.4-3.26
		c-2.14,0-4.27-0.02-6.41-0.05c-15.74-0.17-31.48-0.34-47.22-0.51c-1.18-0.01-2.15,0.33-3.06,1.18c-1.92,1.79-3.92,3.51-5.99,5.13
		c-5.1,4-10.26,7.92-15.39,11.87c-12.69,9.77-25.39,19.54-38.07,29.34C96.39,274.97,95.45,275.24,95.33,276.57z"/>
	<path class="st2" d="M256.89,222.33c0.67-0.04,1.35-0.1,2.02-0.11c9.19-0.13,18.38-0.25,27.57-0.37
		c25.07-0.31,50.15-0.52,75.22-1.01c4.75-0.09,9.08,0.71,13.5,2.3c33.95,12.2,67.94,24.29,101.91,36.41
		c0.8,0.28,1.59,0.58,2.39,1.18c-0.49,0.03-0.99,0.1-1.48,0.09c-23.15-0.39-46.3-0.8-69.45-1.18c-12.54-0.21-25.07-0.35-37.61-0.55
		c-10.11-0.16-20.23-0.35-30.34-0.57c-0.96-0.02-1.99-0.23-2.87-0.61c-26.32-11.4-52.62-22.83-78.93-34.26
		c-0.68-0.3-1.34-0.65-2.01-0.97C256.84,222.57,256.87,222.45,256.89,222.33z"/>
	<path class="st7" d="M579.9,308.67c-2.03,8.22-3.98,16.14-5.95,24.11c-22.71,0.34-45.3,0.68-68.14,1.02
		c-5.22-7.81-10.54-15.77-16.15-24.16C519.96,309.31,549.79,309,579.9,308.67z"/>
	<path class="st11" d="M582.11,299.75c-0.64,2.58-1.18,4.77-1.77,7.18c-3.54,0-6.95-0.03-10.35,0c-23.21,0.2-46.42,0.41-69.63,0.63
		c-3.42,0.03-6.84,0.02-10.25,0.16c-1.32,0.05-2.11-0.38-2.76-1.48c-0.86-1.45-1.85-2.82-3.07-4.65
		C517.07,300.97,549.4,300.36,582.11,299.75z"/>
	<path class="st3" d="M573.47,334.69c-0.72,2.88-1.35,5.41-2.03,8.15c-1.12,0-2.11-0.01-3.09,0c-18.01,0.23-36.02,0.45-54.03,0.74
		c-1.47,0.02-2.38-0.37-3.1-1.64c-0.88-1.54-1.97-2.96-2.94-4.45c-0.29-0.45-0.51-0.95-0.95-1.78
		C529.45,335.37,551.26,335.03,573.47,334.69z"/>
	<path d="M95.33,276.57c0.12-1.33,1.06-1.6,1.69-2.09c12.68-9.8,25.37-19.57,38.07-29.34c5.13-3.95,10.29-7.88,15.39-11.87
		c2.07-1.62,4.07-3.34,5.99-5.13c0.91-0.85,1.88-1.2,3.06-1.18c15.74,0.17,31.48,0.34,47.22,0.51c2.14,0.02,4.27,0.05,6.41,0.05
		c3.81,0,7.34,0.95,10.4,3.26c1.75,1.32,3.49,2.7,5.04,4.25c13.31,13.28,26.57,26.61,39.84,39.93c0.49,0.49,0.91,1.06,1.58,1.84
		c-0.64,0.34-1.06,0.66-1.53,0.8c-0.39,0.12-0.85,0.03-1.27,0.03c-42.95-0.22-85.9-0.43-128.85-0.65
		c-13.75-0.07-27.49-0.19-41.24-0.29C96.58,276.68,96.03,276.62,95.33,276.57z M217.44,228.75c-11.78,15.95-23.28,31.55-34.9,47.28
		c3.93,0.51,51.18,0.59,52.65,0.14c-0.2-2.27-0.41-4.53-0.61-6.79c-0.85-9.49-1.7-18.99-2.57-28.48c-0.05-0.52-0.18-1.16-0.52-1.51
		c-2.93-3-5.7-6.21-9.34-8.39C220.72,230.14,219.12,229.54,217.44,228.75z M160.17,227.99c6.96,15.72,13.78,31.16,20.68,46.75
		c0.41-0.39,0.64-0.55,0.79-0.77c11.04-15.01,22.08-30.03,33.12-45.04c0.03-0.04,0.01-0.13-0.01-0.2c-0.02-0.07-0.06-0.13-0.11-0.23
		C196.62,228.33,178.58,228.16,160.17,227.99z M128.66,275.87c17.14,0.12,33.76,0.24,50.74,0.36c-7.03-15.89-13.9-31.41-20.93-47.3
		C148.48,244.65,138.69,260.06,128.66,275.87z M154.07,232.25c-0.59,0.19-0.8,0.2-0.94,0.31c-18.43,14.22-36.86,28.45-55.28,42.68
		c-0.04,0.03-0.06,0.13-0.05,0.19c0.01,0.07,0.07,0.12,0.17,0.31c9.45,0,18.98,0,28.5,0C135.61,261.34,144.74,246.95,154.07,232.25z
		 M237.1,276.42c6.46,0.55,29.49,0.43,31-0.16c-2.87-3.5-32.6-33.05-34.04-33.78C235.08,253.79,236.08,265.04,237.1,276.42z"/>
	<path class="st11" d="M217.44,228.75c1.68,0.79,3.28,1.39,4.72,2.25c3.65,2.18,6.41,5.39,9.34,8.39c0.34,0.35,0.47,0.99,0.52,1.51
		c0.87,9.49,1.72,18.99,2.57,28.48c0.2,2.26,0.41,4.52,0.61,6.79c-1.47,0.45-48.72,0.37-52.65-0.14
		C194.15,260.3,205.66,244.7,217.44,228.75z"/>
	<path class="st2" d="M160.17,227.99c18.41,0.17,36.45,0.34,54.48,0.51c0.05,0.1,0.09,0.16,0.11,0.23c0.02,0.06,0.04,0.15,0.01,0.2
		c-11.04,15.02-22.07,30.03-33.12,45.04c-0.16,0.21-0.39,0.38-0.79,0.77C173.95,259.15,167.13,243.72,160.17,227.99z"/>
	<path class="st7" d="M128.66,275.87c10.04-15.81,19.82-31.22,29.81-46.94c7.03,15.89,13.9,31.41,20.93,47.3
		C162.41,276.11,145.8,275.99,128.66,275.87z"/>
	<path class="st4" d="M154.07,232.25c-9.33,14.71-18.47,29.1-27.6,43.49c-9.52,0-19.05,0-28.5,0c-0.11-0.18-0.16-0.24-0.17-0.31
		c-0.01-0.06,0.01-0.16,0.05-0.19c18.42-14.23,36.85-28.46,55.28-42.68C153.27,232.44,153.48,232.43,154.07,232.25z"/>
	<path class="st3" d="M237.1,276.42c-1.02-11.38-2.03-22.63-3.04-33.94c1.43,0.73,31.17,30.28,34.04,33.78
		C266.6,276.85,243.56,276.97,237.1,276.42z"/>
</g>
</svg>
