<svg xmlns="http://www.w3.org/2000/svg"  viewBox="0 0 48 48" width="48px" height="48px" baseProfile="basic"><path fill="#455a64" d="M18,24l-4.828,4.828C12.421,29.579,12,30.596,12,31.657v6.686c0,1.061-0.421,2.078-1.172,2.828L7,45	l3,3l4.828-4.828c0.75-0.75,1.172-1.768,1.172-2.828v-6.686c0-1.061,0.421-2.078,1.172-2.828L21,27L18,24z"/><polyline fill="#455a64" points="30,7 36,1 39,4 33,10"/><polyline fill="#455a64" points="35,12 41,6 44,9 38,15"/><rect width="21.213" height="14.142" x="15.893" y="11.429" fill="#78909c" transform="rotate(-45.001 26.5 18.5)"/></svg>