<svg xmlns="http://www.w3.org/2000/svg"  viewBox="0 0 60 60" width="60px" height="60px"><path fill="#f9c764" d="M23.174,57.54,28,35H14.042A2.039,2.039,0,0,1,12.4,31.752L34.683,1.5a1.2,1.2,0,0,1,2.143.965L32,25H45.958A2.039,2.039,0,0,1,47.6,28.248L25.317,58.505A1.2,1.2,0,0,1,23.174,57.54Z"/><path fill="#373737" d="M14.042,36H26.764L22.2,57.33A2.162,2.162,0,0,0,23.445,59.8a2.257,2.257,0,0,0,.927.2,2.163,2.163,0,0,0,1.75-.905L48.4,28.842A3.038,3.038,0,0,0,45.958,24H33.236L37.8,2.669A2.162,2.162,0,0,0,36.555.2a2.157,2.157,0,0,0-2.677.7L29.823,6.407a1,1,0,0,0,1.612,1.186l4.054-5.506a.2.2,0,0,1,.36.163L31.021,24.79A1,1,0,0,0,32,26H45.958a1.038,1.038,0,0,1,.835,1.656L24.512,57.913a.174.174,0,0,1-.245.064.179.179,0,0,1-.116-.228L28.979,35.21A1,1,0,0,0,28,34H14.042a1.038,1.038,0,0,1-.835-1.656l15.6-21.182a1,1,0,0,0-1.612-1.186L11.6,31.158A3.039,3.039,0,0,0,14.042,36Z"/></svg>