<svg xmlns="http://www.w3.org/2000/svg"  viewBox="0 0 48 48" width="48px" height="48px"><path fill="#455a64" d="M27 14h-2V7.5l.4-.3c.2-.2 5.3-3.8 18.1 2.9l-.9 1.8C33 6.9 28.3 8 27 8.6V14zM23 14h-2V8.6C19.7 8 15 6.9 5.5 11.9l-.9-1.8C17.3 3.4 22.4 7 22.6 7.2L23 7.5V14zM12 34c0-.6-.4-1-1-1H7c-.6 0-1 .4-1 1v6c0 .6.4 1 1 1h4c.6 0 1-.4 1-1V34zM42 34c0-.6-.4-1-1-1h-4c-.6 0-1 .4-1 1v6c0 .6.4 1 1 1h4c.6 0 1-.4 1-1V34z"/><path fill="#82b1ff" d="M37 20c0 0 .3-1 1-1s3 .2 3 1v1.2c0 .4-.4.8-.8.8H37V20zM11 20c0 0-.3-1-1-1s-3 .2-3 1v1.2C7 21.6 7.4 22 7.8 22H11V20z"/><path fill="#82b1ff" d="M38,22l-2-6c-0.7-1.7-2.1-2.2-4-2.5c-2-0.3-4.8-0.5-8-0.5s-6.1,0.3-8,0.5c-1.8,0.2-3.2,0.8-4,2.5 l-2,6c0,0-4,1.8-4,6v8.1c0,0.5,0.4,0.9,0.9,1C8.9,37.4,14.6,38,24,38s15.1-0.6,17.1-0.9c0.5-0.1,0.9-0.5,0.9-1V28 C42,23.8,38,22,38,22z"/><path fill="#455a64" d="M31.9,34.1c-0.6-0.7-1.4-1.1-2.3-1.1H18.4c-0.9,0-1.8,0.4-2.3,1.1l-2.9,3.6C16,37.9,19.6,38,24,38 s8-0.1,10.8-0.3L31.9,34.1z"/><path fill="#fff" d="M33 26l2.5 1.7c.3.2.7.3 1.1.3h3.3c.7 0 1.1-.6 1-1.3-.2-.7-.5-1.2-.8-1.7C36.8 25.2 33 26 33 26zM15 26l-2.5 1.7c-.3.2-.7.3-1.1.3H8.1c-.7 0-1.1-.6-1-1.3C7.3 26.1 7.6 25.5 8 25 11.2 25.2 15 26 15 26z"/><path fill="#37474f" d="M24 26c0 0-6.5 0-8 1 0 0 5.7 0 6.5.4C23.3 27.7 24 29 24 29s.7-1.3 1.5-1.6C26.3 27 32 27 32 27 30.5 26 24 26 24 26zM35.9 22l-1.8-5.3c-.2-.5-.6-1-2.4-1.2C30 15.3 27.2 15 24 15s-6 .3-7.8.5c-1.7.2-2.1.7-2.4 1.2L12.1 22H35.9z"/><path fill="#1e88e5" d="M8 32v1.4c0 1 .8 1.9 1.8 2 .6.1 1.4.1 2.2.2v-2.9L8 32zM40 32v1.4c0 1-.8 1.9-1.8 2-.6.1-1.4.1-2.2.2v-2.9L40 32z"/></svg>